<svg width="218" height="217" viewBox="0 0 218 217" fill="none" xmlns="http://www.w3.org/2000/svg">
<path d="M162.956 162.75C192.955 132.789 192.955 84.2114 162.956 54.25C132.957 24.2885 84.318 24.2886 54.3187 54.25C24.3193 84.2114 24.3193 132.789 54.3187 162.75C84.318 192.711 132.957 192.711 162.956 162.75Z" fill="#4FF0CB"/>
<path d="M68.3496 172.707C71.5585 173.193 134.958 145.223 134.181 144.738L68.3496 172.707Z" fill="#E5213C"/>
<path d="M66.9881 173.193C66.9881 173.193 60.1814 168.143 56.8752 165.132C52.4995 161.247 48.5127 156.489 45.012 151.439C39.5666 143.669 33.3433 129.588 32.5654 118.905L33.0516 119.099C33.0516 119.293 108.023 113.369 134.18 112.592C135.153 112.398 133.013 112.884 134.18 112.592C134.18 112.592 134.667 139.979 134.18 144.641" fill="#E5213C"/>
<path d="M133.402 112.884C121.734 114.632 109.287 114.632 97.4239 115.311C83.1297 116.088 68.5438 117.448 54.1524 118.419C47.5402 118.905 32.9543 119.196 32.9543 119.196C32.4681 119.196 32.4681 119.002 32.4681 119.002C31.593 114.632 31.3012 101.812 32.9543 94.917C32.9543 94.917 96.9377 91.3237 103.258 91.0324L103.453 91.2266C113.76 97.8305 124.165 105.6 133.889 113.078" fill="#EA5A72"/>
<path d="M101.8 132.501C117.844 136.871 135.833 137.357 149.252 148.234C154.309 152.313 159.171 157.169 163.352 162.316C158.879 167.172 147.502 174.649 146.335 175.329C131.458 183.973 111.037 187.663 90.8117 183.099C83.0326 181.156 71.8501 176.786 65.335 172.027C62.0289 169.599 57.2642 165.715 53.4718 161.83C43.8452 152.118 39.6639 142.407 37.2329 136.677C37.2329 136.677 62.3206 131.336 68.8356 129.879C76.1286 134.735 94.604 139.396 101.605 132.598" fill="#114C56"/>
<path d="M143.418 107.057C148.766 112.689 165.297 113.369 170.645 108.805V108.61C170.84 99.87 171.812 90.6439 171.617 81.9034C171.423 81.7092 171.131 81.4179 170.645 81.4179C163.06 79.9611 152.072 79.3784 144.196 81.2236C143.807 81.7092 143.126 98.5103 143.418 107.057Z" fill="#E5213C"/>
<path d="M143.418 97.1507C140.695 98.8988 140.501 101.424 140.695 103.852C141.182 106.959 140.89 108.222 140.695 111.427C140.209 119.973 150.905 122.595 150.225 130.073L150.419 130.267C154.309 132.21 166.95 131.238 168.895 127.354L169.089 127.548C169.284 122.207 171.228 118.613 172.493 113.466C173.27 111.33 175.41 107.833 175.604 105.697C175.799 103.56 173.854 101.035 171.909 99.8699L171.715 100.064C170.937 109.97 155.184 105.697 150.322 102.978C147.794 101.715 145.557 99.093 143.418 97.1507Z" fill="#EBB516"/>
<path d="M147.794 125.994C147.794 143.766 146.821 161.636 140.015 178.437C148.474 174.552 151.392 171.833 159.074 166.006C165.977 160.859 175.701 145.709 175.701 145.709C175.701 137.94 175.021 130.85 171.812 123.663C163.352 119.585 155.962 121.527 147.794 125.994Z" fill="#407685"/>
<path d="M101.994 132.987C101.508 136.094 95.1875 138.522 92.2703 139.299C85.2691 141.047 71.6556 137.454 68.7384 129.879C68.544 118.419 65.3351 108.416 66.9881 96.9565H67.1826C73.5032 99.8699 78.8513 105.988 84.9774 109.776C87.7001 111.427 95.8682 116.574 98.7854 115.797C96.7433 122.11 98.8826 127.451 101.994 132.987Z" fill="#EBB516"/>
<path d="M51.7215 82.4861C52.2077 86.6621 49.874 87.5362 49.874 91.4208C49.6795 95.1112 56.0973 96.1795 57.3614 98.3161C57.8476 98.9959 56.8752 100.744 56.6807 101.521C56.4862 103.657 57.1669 105.891 59.1117 107.057C61.3482 108.319 64.1681 107.833 65.9184 106.085C72.3362 99.9671 58.82 75.3967 51.7215 82.4861Z" fill="#092E37"/>
<path d="M70.6832 99.1901C73.8921 109.873 91.1034 124.537 100.536 122.498C114.149 119.585 123.581 93.1689 121.248 73.9399C118.039 46.7474 82.6436 36.7444 64.8489 56.7503C56.0973 66.462 60.7648 78.7957 64.5572 87.8275L64.8489 87.9246C60.4731 90.8381 62.6124 101.035 70.3915 98.8988" fill="#EBB516"/>
<path d="M108.801 80.2525C110.454 84.2342 111.524 88.3131 111.913 92.5862C112.107 94.917 112.107 97.442 111.037 99.5786C109.871 102.006 105.786 102.007 103.55 102.298C102.772 102.395 102.772 103.56 103.55 103.463C106.662 103.172 111.426 102.881 112.593 99.1901C114.441 93.0718 112.399 85.5939 110.065 79.9611C109.676 79.1842 108.509 79.4755 108.801 80.2525Z" fill="#092E37"/>
<path d="M99.8551 105.308C96.4517 105.406 94.3124 102.978 91.9787 100.938C91.1035 100.161 89.256 98.5103 87.8946 99.3844C85.4637 100.841 87.0195 105.891 87.4084 108.125C87.5057 108.902 88.6726 108.61 88.5753 107.833C88.2836 106.377 86.7278 99.1901 89.8394 100.938C93.4373 102.978 95.1876 106.765 99.8551 106.668C100.633 106.571 100.633 105.308 99.8551 105.308Z" fill="#092E37"/>
<path d="M52.9857 80.5438C63.0013 89.6727 68.8357 90.9352 77.49 87.8275C82.8381 85.8852 81.1851 75.4938 87.4084 75.9793C90.52 76.1736 92.0758 78.6986 95.6737 76.7563C97.424 75.7851 98.5909 74.037 99.2716 72.1918C101.508 74.814 105.398 77.339 108.995 75.7851C110.746 75.0082 111.621 73.0659 112.885 71.7062C116.969 77.5332 122.803 80.1553 126.985 72.6774C127.957 74.814 130.388 76.8534 132.138 74.9111C139.723 66.8504 131.458 65.685 129.902 62.9658C128.735 61.0234 130.874 62.4802 128.735 61.0234C123.873 57.333 116.386 54.2253 110.454 53.2541C94.2151 50.5349 70.2943 51.6032 58.7228 65.5879C56.8753 67.7245 49.9713 77.6303 52.9857 80.5438Z" fill="#092E37"/>
<path d="M64.1683 88.1189C61.4456 84.914 56.9726 79.7669 56.0974 78.6986C54.0554 76.1736 49.8741 79.6698 51.2355 82.9717C51.4299 83.3602 59.6953 92.2949 62.6125 92.2949C62.6125 92.2949 63.0986 88.8958 64.3628 88.3131" fill="#E5213C"/>
<path d="M72.5305 105.697C77.198 116.671 89.8391 125.509 101.994 125.12C103.55 125.023 103.55 122.595 101.994 122.692C90.7143 123.081 79.0456 114.729 74.6698 104.434C73.9891 102.978 71.9471 104.24 72.5305 105.697Z" fill="#E5213C"/>
<path d="M66.5991 68.5985C66.1129 78.8928 67.766 90.5468 70.6831 100.453C71.6555 103.852 72.8224 106.668 74.9617 109.776C75.5451 110.65 75.5451 106.862 75.7396 107.154L77.6844 112.884C73.9893 104.823 73.7948 91.8093 73.9893 82.5833C74.1838 75.8822 75.5451 70.9293 75.4479 69.4726C75.0589 65.4908 69.808 65.7821 67.1825 68.3072" fill="#E5213C"/>
<path d="M51.2354 82.9717C50.0686 81.2236 48.0265 69.5697 48.0265 65.1995C47.9293 54.3224 55.6112 41.9887 69.0302 37.1329C76.0314 34.5107 89.1587 29.0722 102.286 32.9569C114.927 36.8415 129.027 49.2724 128.735 61.6062H128.93C122.317 60.4408 115.511 61.4119 108.996 62.0917C89.0615 64.0341 66.6965 68.1129 51.6244 82.4861" fill="#EC1F3E"/>
<path d="M158.782 93.5574C160.178 93.5574 161.31 92.4269 161.31 91.0324C161.31 89.6378 160.178 88.5073 158.782 88.5073C157.386 88.5073 156.254 89.6378 156.254 91.0324C156.254 92.4269 157.386 93.5574 158.782 93.5574Z" fill="#092E37"/>
<path d="M120.178 134.346C116.774 132.015 108.898 131.918 105.884 133.472C110.065 136.58 112.593 141.727 114.538 146.389C117.066 152.41 118.719 158.722 119.886 165.035C120.956 170.668 121.734 176.398 121.539 182.127C121.539 182.419 121.247 183.681 121.442 183.875C121.831 184.361 123.873 183.681 124.456 183.681C125.915 183.487 127.276 182.904 128.638 182.516C129.513 182.322 130.485 182.127 131.36 181.836C132.138 181.545 132.819 181.156 133.597 180.865C134.569 180.476 135.347 180.574 135.444 179.505C135.444 178.825 135.444 178.146 135.444 177.466C135.444 176.009 135.347 174.455 135.153 172.998C134.861 169.599 134.277 166.297 133.499 162.898C132.138 156.197 128.249 139.785 120.178 134.346Z" fill="#EA5A72"/>
<path d="M76.2256 178.049C76.2256 176.689 76.1283 175.426 75.9339 174.067C75.6421 170.668 75.0587 167.366 74.2808 163.967C72.8222 157.169 67.5713 135.9 58.7225 131.918C56.2915 130.85 47.7345 132.987 46.5676 134.54C50.7489 137.648 53.2771 142.795 55.3192 147.457C57.8474 153.478 59.5004 159.791 60.6673 166.103C60.8618 166.977 60.959 167.851 61.1535 168.725" fill="#EA5A72"/>
<path d="M61.1536 168.822C68.3493 175.135 76.2256 178.243 76.2256 178.049L61.1536 168.822Z" fill="#EA5A72"/>
<path d="M132.722 92.9747C134.569 92.5862 136.417 92.1006 138.264 91.7122C139.042 91.518 138.75 90.3526 137.973 90.5468C136.125 90.9353 134.277 91.4208 132.43 91.8093C131.652 92.0035 132.041 93.1689 132.722 92.9747Z" fill="#E5213C"/>
<path d="M135.056 79.9611C136.028 80.1553 137 80.3496 137.973 80.6409C138.751 80.8352 139.042 79.6698 138.264 79.4755C137.292 79.2813 136.32 79.0871 135.347 78.7957C134.569 78.6986 134.278 79.864 135.056 79.9611Z" fill="#E5213C"/>
<path d="M146.724 73.9399C145.557 71.6091 144.39 69.3754 143.126 67.1418C142.737 66.462 141.667 67.0447 142.056 67.7245C143.321 69.9581 144.487 72.1918 145.654 74.5226C146.043 75.2024 147.113 74.6197 146.724 73.9399Z" fill="#E5213C"/>
<path d="M155.281 72.6774C154.989 69.2783 154.6 65.8793 154.211 62.4802C154.114 61.7033 152.947 61.7033 153.045 62.4802C153.434 65.8793 153.822 69.2783 154.114 72.6774C154.114 73.4543 155.378 73.4543 155.281 72.6774Z" fill="#E5213C"/>
<path d="M163.741 72.386C164.13 70.7351 164.519 68.987 164.811 67.336C165.005 66.5591 163.838 66.2677 163.644 67.0447C163.255 68.6956 162.866 70.4437 162.574 72.0947C162.38 72.8716 163.547 73.163 163.741 72.386Z" fill="#E5213C"/>
</svg>
