<svg width="427" height="94" viewBox="0 0 427 94" fill="none" xmlns="http://www.w3.org/2000/svg">
<path d="M0.508545 61.1016V0.558105H24.2108V55.7363C24.2108 57.826 25.6608 58.899 28.5051 58.899L26.7762 76.8023H17.2953C6.08554 76.8023 0.508545 71.5499 0.508545 61.1016Z" fill="#092E37"/>
<path d="M34.2974 61.1016V0.558105H57.9996V55.7363C57.9996 57.826 59.4496 58.899 62.2939 58.899L60.565 76.8023H51.0841C39.8744 76.8023 34.2974 71.5499 34.2974 61.1016Z" fill="#092E37"/>
<path d="M65.1902 47.3379C65.1902 37.9886 67.6622 30.7925 72.6636 25.6362C77.6075 20.48 84.966 17.9302 94.6239 17.9302C104.282 17.9302 111.123 19.9134 115.147 23.8231C119.171 27.7328 121.183 33.3423 121.183 40.6517C121.183 43.5415 120.838 47.9612 120.206 53.7974H90.2548C90.5998 58.0471 93.1867 60.1436 98.1307 60.1436C100.43 60.1436 106.466 59.2936 116.239 57.6504L118.251 73.5159C109.801 75.7257 101.982 76.8023 94.6239 76.8023C85.081 76.8023 77.78 74.1958 72.7211 69.0395C67.7196 63.9399 65.1902 56.6872 65.1902 47.3379ZM94.164 36.912C92.4969 36.912 91.3471 37.422 90.7148 38.4419C90.0824 39.4618 89.7375 41.0484 89.7375 43.1449H98.3031V41.275C98.3606 38.3286 96.9809 36.912 94.164 36.912Z" fill="#092E37"/>
<path d="M150.878 17.9302H182.969V32.3151H174.264V32.7699C176.71 34.6462 177.905 37.4322 177.905 41.128C177.905 53.466 169.939 59.6634 154.065 59.6634H146.611C145.985 59.6634 145.644 60.0046 145.644 60.7437C145.644 61.4829 145.985 61.824 146.611 61.824H165.387C175.458 61.824 180.465 65.9177 180.465 74.1052C180.465 86.8412 170.508 93.2092 150.594 93.2092C142.571 93.2092 136.37 92.2995 131.931 90.4801C127.55 88.6607 125.331 85.4198 125.331 80.7006C125.331 78.0852 126.697 76.1521 129.485 74.9012V74.4463C125.843 72.57 124.08 69.4429 124.08 65.008C124.08 60.63 127.095 57.1617 133.069 54.7737C127.55 50.8506 124.819 45.3922 124.819 38.4557C124.819 31.5191 127.095 26.3451 131.647 22.9905C136.199 19.579 142.628 17.9302 150.878 17.9302ZM145.701 79.2223H159.129C159.811 79.2223 160.21 78.9381 160.21 78.3695V77.6872C160.21 77.1186 159.868 76.8343 159.129 76.8343H145.701C145.132 76.8343 144.847 77.1186 144.847 77.6872V78.3695C144.847 78.9381 145.132 79.2223 145.701 79.2223ZM151.96 35.9539C149.911 35.9539 148.887 37.9439 148.887 41.8671C148.887 45.7902 149.968 47.7802 152.187 47.7802C154.235 47.7802 155.26 45.8471 155.26 41.9808C155.26 39.8771 155.032 38.3419 154.577 37.3754C154.065 36.4088 153.211 35.9539 151.96 35.9539Z" fill="#092E37"/>
<path d="M236.012 34.5729L235.282 58.0651C235.282 59.1406 235.675 59.8765 236.517 60.2162C237.358 60.5558 238.761 60.7257 240.893 60.7257L238.705 76.3494C234.048 76.689 230.906 76.8023 229.279 76.8023C223.612 76.8023 219.517 75.2739 216.936 72.217H216.094C212.391 75.2739 207.678 76.8023 202.068 76.8023C196.457 76.8023 192.193 75.2739 189.276 72.2736C186.358 69.2734 184.9 65.0845 184.9 59.7633C184.9 53.1968 187.088 48.6116 191.464 46.0076C195.84 43.4037 202.797 41.762 212.335 41.0828V38.9883C212.335 37.5731 211.606 36.8938 210.147 36.8938C206.164 36.8938 199.375 38.0825 189.781 40.5167L186.19 21.9493C197.299 19.2888 206.837 17.9302 214.804 17.9302C222.771 17.9302 228.325 19.2888 231.411 21.9493C234.497 24.6665 236.012 28.8555 236.012 34.5729ZM209.698 61.688C211.942 61.688 213.065 60.4992 213.065 58.1783V53.7063C209.025 54.2724 207.005 55.8008 207.005 58.4047C207.005 60.6124 207.903 61.688 209.698 61.688Z" fill="#092E37"/>
<path d="M284.161 17.9302C295.257 17.9302 300.747 23.2772 300.747 33.9712V75.8372H275.696V39.2613C275.696 38.0099 275.067 37.3842 273.752 37.3842C272.436 37.3842 271.006 37.7824 269.405 38.5787V75.8372H244.754V19.2954H267.174L267.861 22.9359C272.894 19.6367 278.327 17.9302 284.161 17.9302Z" fill="#092E37"/>
<path d="M354.117 76.8023C347.978 76.8023 343.771 75.2785 341.498 72.231H341.043C337.405 75.2785 333.142 76.8023 328.197 76.8023C320.012 76.8023 314.214 74.2063 310.747 69.0706C307.279 63.935 305.574 56.5984 305.574 47.1737C305.574 37.749 307.507 30.5253 311.315 25.559C315.124 20.5927 320.637 18.1095 327.742 18.1095C331.835 18.1095 335.132 18.7303 337.633 19.9719V0.558105H361.335V58.0657C361.335 59.0816 361.733 59.7588 362.472 60.1539C363.211 60.5489 364.519 60.7182 366.394 60.7182L364.291 76.2944C360.199 76.633 356.788 76.8023 354.117 76.8023ZM330.869 38.652C330.414 40.4579 330.243 43.5619 330.243 48.0203C330.243 52.4786 330.414 55.5826 330.812 57.3321C331.21 59.0816 332.233 59.9845 333.824 59.9845C335.416 59.9845 336.723 59.8152 337.633 59.5331V36.846C336.268 36.2817 335.018 35.9995 333.881 35.9995C332.29 35.9431 331.266 36.8461 330.869 38.652Z" fill="#092E37"/>
<path d="M370.256 47.2528C370.256 36.9303 372.507 29.4437 377.065 24.8496C381.623 20.1988 388.714 17.9302 398.449 17.9302C408.185 17.9302 415.219 20.1988 419.609 24.7362C424.054 29.2735 426.249 36.7602 426.249 47.1393C426.249 57.5185 424.111 65.0619 419.777 69.7694C415.444 74.4769 408.354 76.8023 398.506 76.8023C388.658 76.8023 381.455 74.4769 376.953 69.7694C372.507 65.1186 370.256 57.5753 370.256 47.2528ZM401.488 37.2706C401.038 35.9094 400.025 35.2288 398.393 35.2288C396.761 35.2288 395.748 35.9094 395.298 37.2706C394.848 38.6318 394.679 41.5811 394.679 46.0617V48.8976C394.679 53.9454 394.904 57.1782 395.298 58.5962C395.748 60.0708 396.761 60.7514 398.393 60.7514C400.025 60.7514 401.038 60.0141 401.488 58.5962C401.938 57.1215 402.107 54.1155 402.107 49.4647V46.1752C402.107 41.5811 401.938 38.6318 401.488 37.2706Z" fill="#092E37"/>
</svg>
