<svg width="22" height="22" viewBox="0 0 22 22" fill="none" xmlns="http://www.w3.org/2000/svg">
<path fill-rule="evenodd" clip-rule="evenodd" d="M11 1.97402C12.4647 1.91908 13.9315 1.95987 15.3909 2.09614C16.0988 2.08745 16.8021 2.21172 17.4642 2.46249C18.3776 2.8882 19.1118 3.62232 19.5375 4.53577C19.7882 5.19785 19.9125 5.90111 19.9038 6.60904C19.9038 7.70674 20.0259 8.07309 20.0259 10.9998C20.0809 12.4645 20.0401 13.9312 19.9038 15.3906C19.9125 16.0985 19.7882 16.8018 19.5375 17.4639C19.1118 18.3773 18.3776 19.1114 17.4642 19.5371C16.8021 19.7879 16.0988 19.9122 15.3909 19.9035C14.2931 19.9035 13.9268 20.0256 11 20.0256C9.53528 20.0806 8.06854 20.0398 6.60915 19.9035C5.90121 19.9122 5.19793 19.7879 4.53584 19.5371C3.62238 19.1114 2.88824 18.3773 2.46253 17.4639C2.21176 16.8018 2.08748 16.0985 2.09617 15.3906C2.09617 14.2929 1.97405 13.9266 1.97405 10.9998C1.91911 9.53513 1.9599 8.06841 2.09617 6.60904C2.08748 5.90111 2.21176 5.19785 2.46253 4.53577C2.67533 4.08344 2.96399 3.67087 3.31601 3.31595C3.60188 2.88923 4.03698 2.58481 4.53584 2.46249C5.19793 2.21172 5.90121 2.08745 6.60915 2.09614C8.06854 1.95987 9.53528 1.91908 11 1.97402ZM11 0.0228657C9.4946 -0.0307858 7.98732 0.0100004 6.48703 0.144984C5.57066 0.142782 4.66158 0.307854 3.80449 0.632087C3.06438 0.873558 2.39454 1.29232 1.8533 1.8519C1.29303 2.39336 0.873766 3.0637 0.632097 3.80443C0.249496 4.64427 0.0820883 5.56618 0.144987 6.48692C0.0100006 7.98719 -0.0307863 9.49445 0.022866 10.9998C-0.0307863 12.5052 0.0100006 14.0125 0.144987 15.5127C0.143055 16.4296 0.308599 17.3392 0.633469 18.1966C0.874944 18.9367 1.29371 19.6065 1.8533 20.1477C2.39454 20.7073 3.06438 21.1261 3.80449 21.3676C4.66192 21.6924 5.57148 21.858 6.4884 21.856C7.98827 21.9905 9.49509 22.0308 11 21.9768C12.5054 22.0304 14.0127 21.9896 15.513 21.8547C16.4299 21.8566 17.3394 21.6911 18.1969 21.3662C18.9315 21.1131 19.5989 20.696 20.1483 20.1466C20.6977 19.5972 21.1148 18.9298 21.3679 18.1952C21.6928 17.3378 21.8583 16.4283 21.8564 15.5114C21.855 14.2929 21.9771 13.9266 21.9771 10.9998C22.0308 9.49445 21.99 7.98719 21.855 6.48692C21.8569 5.57002 21.6914 4.66048 21.3665 3.80306C21.1251 3.06296 20.7063 2.39312 20.1467 1.8519C19.6055 1.29232 18.9356 0.873558 18.1955 0.632087C17.3384 0.307854 16.4293 0.142782 15.513 0.144984C14.0127 0.0100004 12.5054 -0.0307858 11 0.0228657ZM11 5.38923C10.2598 5.37698 9.52473 5.51374 8.83848 5.79136C8.15223 6.06898 7.52882 6.4818 7.00536 7.00525C6.4819 7.5287 6.06908 8.15209 5.79145 8.83834C5.51382 9.52458 5.37707 10.2597 5.38931 10.9998C5.38931 12.1095 5.71837 13.1942 6.33488 14.1169C6.95139 15.0396 7.82766 15.7587 8.85288 16.1833C9.8781 16.608 11.0062 16.7191 12.0946 16.5026C13.183 16.2861 14.1827 15.7518 14.9674 14.9671C15.752 14.1825 16.2864 13.1827 16.5029 12.0944C16.7194 11.006 16.6083 9.87794 16.1836 8.85274C15.7589 7.82754 15.0398 6.95128 14.1171 6.33478C13.1945 5.71828 12.1097 5.38923 11 5.38923ZM11 14.6593C10.517 14.6682 10.0371 14.5797 9.58906 14.3989C9.14104 14.2182 8.73405 13.949 8.39244 13.6073C8.05082 13.2657 7.7816 12.8588 7.60085 12.4107C7.42011 11.9627 7.33156 11.4828 7.3405 10.9998C7.33156 10.5168 7.42011 10.0369 7.60085 9.58891C7.7816 9.14089 8.05082 8.73391 8.39244 8.3923C8.73405 8.05069 9.14104 7.78147 9.58906 7.60073C10.0371 7.41999 10.517 7.33144 11 7.34038C11.483 7.33144 11.9629 7.41999 12.4109 7.60073C12.859 7.78147 13.266 8.05069 13.6076 8.3923C13.9492 8.73391 14.2184 9.14089 14.3991 9.58891C14.5799 10.0369 14.6684 10.5168 14.6595 10.9998C14.6684 11.4828 14.5799 11.9627 14.3991 12.4107C14.2184 12.8588 13.9492 13.2657 13.6076 13.6073C13.266 13.949 12.859 14.2182 12.4109 14.3989C11.9629 14.5797 11.483 14.6682 11 14.6593ZM16.8549 3.80443C16.5895 3.80443 16.3301 3.88313 16.1094 4.03058C15.8887 4.17804 15.7167 4.38762 15.6151 4.63282C15.5136 4.87803 15.487 5.14785 15.5388 5.40816C15.5905 5.66847 15.7183 5.90758 15.906 6.09525C16.0937 6.28292 16.3328 6.41073 16.5931 6.46251C16.8534 6.51429 17.1233 6.48771 17.3685 6.38614C17.6137 6.28458 17.8233 6.11258 17.9707 5.8919C18.1182 5.67122 18.1969 5.41177 18.1969 5.14636C18.194 4.79134 18.0517 4.45168 17.8007 4.20064C17.5496 3.9496 17.2099 3.8073 16.8549 3.80443Z" fill="#4ABAD9"/>
</svg>
