<svg width="149" height="76" viewBox="0 0 149 76" fill="none" xmlns="http://www.w3.org/2000/svg">
<g clip-path="url(#clip0_22_2658)">
<path d="M57.7603 18.7818C57.7892 18.4265 57.8204 18.0712 57.8494 17.7159C58.1677 13.8497 59.6483 10.1689 62.0979 7.1539C64.5474 4.13893 67.8522 1.92984 71.5808 0.81496C72.9901 0.387429 74.4462 0.131676 75.9173 0.0532944C76.305 0.033309 76.6928 0.0177648 77.1028 0V3.85496C76.9223 3.85496 76.7418 3.85496 76.5613 3.85496C72.9766 3.98558 69.548 5.35003 66.8592 7.71608C64.1703 10.0821 62.3874 13.3036 61.8137 16.8321C61.2325 20.4568 61.9631 24.1693 63.8751 27.3067C65.7871 30.4441 68.756 32.8021 72.2516 33.9596C74.1696 34.6048 76.1987 34.8571 78.217 34.7013C81.996 34.4531 85.5479 32.8158 88.1847 30.1069C89.2209 29.0654 89.9273 27.8019 90.52 26.4718C91.4559 24.3644 92.042 22.1527 92.5033 19.9054C92.5352 19.7928 92.5576 19.6776 92.5701 19.5613C92.5701 19.3192 92.7083 19.2881 92.9133 19.2903C94.11 19.3037 95.3044 19.3037 96.501 19.3081V19.921C96.4855 20.0431 96.4609 20.1653 96.4565 20.2874C96.4043 21.486 96.2311 22.6763 95.9395 23.8403C94.8905 28.2347 92.3087 32.1147 88.6548 34.7879C85.9695 36.8009 82.7927 38.0614 79.4538 38.4386C79.0772 38.4852 78.6983 38.5274 78.3217 38.5718H75.9373C75.864 38.5522 75.7896 38.5366 75.7145 38.5252C74.3108 38.4309 72.9225 38.1776 71.5764 37.7702C67.8475 36.6521 64.5433 34.4402 62.0947 31.423C59.646 28.4058 58.1666 24.7233 57.8494 20.8559C57.8182 20.5006 57.7892 20.1453 57.7603 19.79V18.7818Z" fill="#EC1F3E"/>
<path d="M66.4243 19.2503H63.5831C63.5831 19.0283 63.5719 18.8062 63.5831 18.5841C63.683 16.4514 64.3033 14.3751 65.3903 12.5352C67.4605 9.06888 70.4778 6.88825 74.4465 6.04886C75.5864 5.83048 76.747 5.73814 77.9073 5.77351C78.1992 5.77351 78.4933 5.76241 78.7875 5.77351C79.0103 5.77351 79.0839 5.73354 79.0727 5.49816C79.0482 5.05404 79.0593 4.60992 79.0571 4.1658C79.0571 4.10806 79.0571 4.05255 79.0727 3.96594C82.7852 4.48778 85.9317 6.07107 88.4699 8.80907C90.6641 11.158 92.0598 14.1362 92.4587 17.3206C92.0376 17.3206 91.6521 17.3206 91.2643 17.3206C91.0682 17.3206 90.7897 17.2629 90.6983 17.365C90.6069 17.4672 90.6448 17.747 90.6404 17.9491C90.6225 18.7529 90.6404 19.559 90.5869 20.3606C90.4504 22.4693 89.7871 24.5105 88.6571 26.2985C87.4495 28.2649 85.7567 29.8904 83.74 31.0201C81.7232 32.1497 79.4497 32.7458 77.1362 32.7516C77.1362 32.6672 77.1184 32.5917 77.1184 32.5162C77.1184 31.719 77.1184 30.9218 77.1184 30.1246C77.1184 29.9292 77.1808 29.8825 77.3702 29.8759C79.4558 29.8252 81.4806 29.1661 83.1939 27.98C84.9072 26.794 86.2337 25.1332 87.0092 23.2033C87.7847 21.2734 87.9751 19.1593 87.5567 17.1227C87.1384 15.086 86.1297 13.2164 84.6556 11.7454C83.1815 10.2744 81.3068 9.26661 79.2636 8.84681C77.2205 8.42702 75.0986 8.61369 73.1608 9.3837C71.223 10.1537 69.5545 11.4732 68.3619 13.1789C67.1692 14.8845 66.5048 16.9013 66.451 18.9794C66.4377 19.0705 66.431 19.1504 66.4243 19.2503Z" fill="#EC1F3E"/>
<path d="M83.7634 15.3954C84.1497 15.9868 84.426 16.6427 84.579 17.3317C83.4292 17.727 82.8877 18.3643 82.9055 19.2947C82.9233 20.2252 83.4626 20.8625 84.5924 21.2222C84.416 21.9043 84.1429 22.5578 83.7813 23.163C82.6671 22.6279 81.8269 22.7189 81.1718 23.3984C80.8559 23.7349 80.6682 24.171 80.6414 24.631C80.6145 25.091 80.7501 25.5458 81.0247 25.9166C80.4178 26.2846 79.758 26.558 79.0682 26.7271C78.803 25.6768 78.1657 25.0394 77.0626 25.0594C76.0175 25.0794 75.4181 25.7256 75.1573 26.7249C74.4709 26.5529 73.8133 26.2821 73.2053 25.921C73.7423 24.8729 73.6821 24.0468 73.0314 23.3829C72.3807 22.7189 71.5718 22.6345 70.4398 23.1608C70.0717 22.5565 69.7981 21.8998 69.6287 21.2133C69.9208 21.167 70.1993 21.0575 70.4445 20.8926C70.6897 20.7276 70.8958 20.5112 71.0482 20.2585C71.2601 19.9099 71.3553 19.5032 71.32 19.0971C71.2465 18.2311 70.6515 17.6049 69.6398 17.3206C69.8156 16.6317 70.0895 15.9714 70.4532 15.3598C70.6838 15.5306 70.949 15.6492 71.2303 15.7075C71.5116 15.7658 71.8023 15.7623 72.0821 15.6974C72.4771 15.6092 72.8347 15.4003 73.105 15.1C73.3977 14.7617 73.5669 14.3347 73.5851 13.8884C73.6034 13.442 73.4695 13.0027 73.2053 12.6418C73.8142 12.2685 74.4771 11.9906 75.1707 11.818C75.216 12.1073 75.324 12.3833 75.4872 12.6268C75.6503 12.8703 75.8648 13.0755 76.1155 13.2281C76.4488 13.4334 76.8391 13.5275 77.2298 13.4968C78.1813 13.4213 78.8052 12.8528 79.0593 11.8224C79.7507 12.0007 80.4137 12.2742 81.0292 12.6352C80.8594 12.8658 80.7414 13.1301 80.6829 13.4101C80.6245 13.6902 80.6271 13.9795 80.6905 14.2584C80.7801 14.6462 80.9879 14.9968 81.2854 15.2621C81.954 15.8706 82.7629 15.9128 83.7634 15.3954ZM77.1027 22.1882C77.6812 22.1934 78.2483 22.0276 78.7321 21.7115C79.216 21.3955 79.5949 20.9435 79.8208 20.4128C80.0468 19.8821 80.1097 19.2965 80.0015 18.7302C79.8934 18.1639 79.619 17.6423 79.2132 17.2314C78.8075 16.8205 78.2885 16.5388 77.7219 16.4219C77.1554 16.3051 76.5669 16.3584 76.0307 16.575C75.4946 16.7916 75.035 17.1619 74.7102 17.6389C74.3853 18.116 74.2098 18.6783 74.2058 19.2548C74.2011 20.0262 74.5032 20.768 75.0462 21.3178C75.5892 21.8676 76.3287 22.1806 77.1027 22.1882Z" fill="#EC1F3E"/>
<path d="M60.1157 56.1389C60.8511 55.5594 61.5062 54.9132 62.2772 54.4646C63.6455 53.6674 65.143 53.5231 66.7073 53.8451C69.2343 54.3691 70.8945 55.928 71.875 58.2041C72.6022 59.9072 72.7714 61.7956 72.3585 63.6002C72.0287 65.1435 71.4293 66.5314 70.324 67.6772C68.5591 69.507 66.4199 69.9688 63.9931 69.3915C62.6427 69.0695 61.6466 68.2412 60.6884 67.0377C60.6326 67.2911 60.5924 67.5477 60.5681 67.806C60.5681 70.1213 60.5681 72.4389 60.5681 74.7587C60.5681 75.5981 60.5502 75.6136 59.6901 75.6136C58.8299 75.6136 57.9319 75.6025 57.0539 75.6136C56.6929 75.6136 56.548 75.4737 56.5614 75.1317C56.5614 75.0118 56.5614 74.8897 56.5614 74.7698V54.6911C56.5614 53.945 56.5614 53.945 57.3302 53.945H58.5179C60.0355 53.945 60.0355 53.945 60.0399 55.4372C60.0399 55.6438 60.0555 55.848 60.0711 56.0546C60.0777 56.0863 60.0931 56.1156 60.1157 56.1389ZM60.5614 61.4084C60.4232 62.6431 60.6126 63.7578 61.475 64.7571C62.8834 66.387 65.2633 66.7556 66.7898 65.3877C68.3162 64.0199 68.7842 62.2478 68.256 60.2137C67.6611 57.9154 65.1831 56.4632 62.8299 57.3825C62.1746 57.6302 61.6085 58.0674 61.2043 58.6379C60.8001 59.2085 60.5762 59.8863 60.5614 60.5846V61.4084Z" fill="#EC1F3E"/>
<path d="M18.4959 52.9279C17.453 53.6385 16.4903 54.3025 15.5254 54.9265C15.443 54.9798 15.1221 54.851 15.0574 54.7311C13.9054 52.6104 11.4029 51.6999 9.04076 52.1441C6.93269 52.5393 5.64244 53.8739 4.79342 55.7348C4.2263 57.0144 4.02577 58.4256 4.21403 59.8118C4.53492 62.5498 6.02795 64.9614 8.95162 65.7297C11.1355 66.3026 13.8251 65.4166 15.0329 63.2981C15.3382 62.763 15.4207 62.7519 15.9533 63.0583C16.7109 63.5024 17.4664 63.9354 18.2352 64.3529C18.5739 64.5372 18.7053 64.6949 18.4981 65.1079C17.8118 66.4669 16.7154 67.3974 15.4229 68.1146C13.0363 69.447 10.4803 69.8644 7.81068 69.2405C5.80511 68.7741 4.18506 67.6461 2.83465 66.1316C0.940508 63.9887 -0.0600449 61.4728 0.000122041 58.6238C0.0914866 54.4868 2.25972 50.7873 6.40901 49.1018C8.34995 48.3158 10.38 48.2403 12.4435 48.6155C14.3225 48.9407 16.0343 49.8938 17.297 51.318C17.7182 51.7821 18.0502 52.3239 18.4959 52.9279Z" fill="#EC1F3E"/>
<path d="M89.2653 55.0709C88.8823 54.5391 88.467 54.0311 88.0219 53.5497C86.6848 52.2507 85.0425 51.8421 83.2286 52.1197C80.4096 52.5527 78.9746 54.4069 78.3261 57.005C77.691 59.5298 78.1701 61.8392 79.8503 63.8444C81.301 65.5743 83.213 66.1983 85.4035 65.7697C86.1703 65.639 86.8975 65.3369 87.5304 64.8862C88.1633 64.4355 88.6856 63.8478 89.0581 63.1672C89.2698 62.7852 89.4859 62.823 89.7533 62.974C90.5912 63.4403 91.4157 63.9266 92.2447 64.4107C92.5233 64.5728 92.5968 64.766 92.4341 65.0924C91.7879 66.3804 90.7673 67.293 89.5506 68.0125C87.6681 69.1465 85.4779 69.6681 83.2843 69.5047C80.6392 69.316 78.491 68.0702 76.7283 66.1317C75.5398 64.8165 74.6906 63.2327 74.2542 61.5172C73.8178 59.8017 73.8073 58.006 74.2236 56.2855C74.7202 54.0426 75.9721 52.0365 77.7712 50.6008C79.4905 49.2029 81.6381 48.4334 83.857 48.4202C85.7199 48.3846 87.4893 48.6822 89.116 49.6104C90.3658 50.3112 91.4068 51.3295 92.1333 52.5616C92.3294 52.8947 92.2447 53.0612 91.9951 53.2278C91.0882 53.8495 90.179 54.4557 89.2653 55.0709Z" fill="#EC1F3E"/>
<path d="M148.149 65.5987C147.558 66.9478 146.495 68.0369 145.158 68.6631C142.261 70.0488 139.329 70.071 136.526 68.4255C134.337 67.1443 133.203 65.1279 132.92 62.6253C132.519 59.0724 134.244 55.7082 137.622 54.3203C139.29 53.6394 141.129 53.4897 142.885 53.8917C144.689 54.2384 146.308 55.2205 147.445 56.6586C148.806 58.384 149.132 60.4025 148.958 62.5298C148.958 62.6609 148.735 62.8207 148.59 62.8851C148.422 62.9234 148.248 62.9301 148.078 62.9051H137.749C137.08 62.9051 137.018 63.0139 137.201 63.6646C137.434 64.579 137.982 65.383 138.748 65.9368C139.515 66.4905 140.452 66.7591 141.397 66.6957C142.689 66.6069 143.783 66.1161 144.557 65.0191C144.664 64.8659 144.927 64.6794 145.063 64.7127C146.088 64.9747 147.099 65.2856 148.149 65.5987ZM140.949 60.3159C142.085 60.3159 143.22 60.3159 144.354 60.3159C144.909 60.3159 144.958 60.2226 144.846 59.7119C144.336 57.3781 141.836 55.9613 139.605 56.8362C138.257 57.3625 137.446 58.3507 137.105 59.7385C137.002 60.1494 137.143 60.3359 137.597 60.327C138.714 60.3026 139.832 60.3181 140.949 60.3159Z" fill="#EC1F3E"/>
<path d="M45.4995 53.6475C49.1652 53.7985 51.7168 55.0598 53.1563 58.0331C54.2995 60.3959 54.2705 62.8341 53.1875 65.2323C52.7811 66.1615 52.1815 66.994 51.4282 67.675C50.6749 68.356 49.7851 68.8699 48.8176 69.1828C47.2088 69.7163 45.4828 69.7932 43.8327 69.4048C42.458 69.1352 41.1954 68.4625 40.2071 67.4729C39.5446 66.7607 38.9892 65.9566 38.558 65.0858C37.7135 63.4203 37.6043 61.5994 38.0099 59.8185C38.6294 57.1094 40.2383 55.1353 42.9302 54.2226C43.8995 53.8962 44.9224 53.7718 45.4995 53.6475ZM41.9564 61.786C41.8784 62.8629 42.2661 63.8467 42.9034 64.7549C43.8304 66.0762 45.9296 66.5936 47.3848 65.9318C47.9432 65.6867 48.4373 65.3165 48.8288 64.8501C49.2203 64.3837 49.4986 63.8337 49.6421 63.2427C50.148 61.4529 49.9586 59.7852 48.6995 58.3396C48.0585 57.6092 47.1526 57.1623 46.181 57.0974C45.2094 57.0324 44.2517 57.3546 43.5185 57.9932C42.3864 58.9791 41.894 60.2449 41.9564 61.786Z" fill="#EC1F3E"/>
<path d="M36.1803 61.635C36.2138 66.1517 32.8957 69.6602 28.0623 69.6291C23.4183 69.6158 19.9821 66.1472 20.0556 61.5106C20.1247 57.1205 23.4249 53.5698 28.4121 53.6852C32.8065 53.7896 36.2115 57.1338 36.1803 61.635ZM28.1893 57.1205C27.693 57.088 27.1956 57.1658 26.7332 57.3482C26.2707 57.5306 25.8547 57.8131 25.5152 58.1753C23.6144 60.0628 23.6745 63.6535 25.7247 65.3589C26.0983 65.6751 26.5309 65.9144 26.9977 66.0633C27.4646 66.2121 27.9563 66.2675 28.4447 66.2262C28.933 66.185 29.4084 66.0478 29.8434 65.8228C30.2784 65.5977 30.6644 65.2891 30.9792 64.9148C32.187 63.4536 32.3854 61.7882 31.8706 59.9806C31.4806 58.6238 29.9519 56.9962 28.1893 57.1205Z" fill="#EC1F3E"/>
<path d="M100.969 65.541C101.101 65.3368 101.216 65.1222 101.312 64.8993C101.783 63.4189 102.246 61.9385 102.7 60.4581C103.146 59.0191 103.561 57.5713 103.997 56.1345C104.187 55.5128 104.37 54.8866 104.601 54.2804C104.646 54.1973 104.71 54.1258 104.787 54.0715C104.864 54.0171 104.953 53.9814 105.047 53.9672C106.027 53.9384 107.01 53.9495 107.991 53.9517C108.47 53.9517 108.356 54.2715 108.269 54.5268C107.955 55.4484 107.621 56.3655 107.298 57.2848C106.754 58.8392 106.219 60.3826 105.671 61.9281C105.123 63.4736 104.575 64.9481 104.042 66.4648C103.596 67.7016 103.215 68.9585 102.761 70.1887C102.335 71.3412 101.97 72.5381 101.359 73.5907C100.485 75.1007 99.0615 75.9112 97.2855 75.9956C96.6831 76.0159 96.08 75.9951 95.4804 75.9334C94.8855 75.8801 94.7116 75.6603 94.7094 75.0718C94.7094 74.3346 94.7094 73.5973 94.7094 72.8512C94.7094 72.4471 94.8364 72.2805 95.2687 72.4071C95.5536 72.4762 95.8448 72.5164 96.1378 72.527C96.5423 72.5783 96.9524 72.4949 97.3043 72.2896C97.6562 72.0843 97.9301 71.7688 98.0832 71.3923C98.3061 70.9126 98.4866 70.413 98.6737 69.9178C98.9456 69.1917 98.5512 68.5854 98.3105 67.9481C97.6866 66.3249 97.0314 64.7105 96.3896 63.0917C95.8652 61.7726 95.3401 60.4544 94.8142 59.1368C94.1947 57.5824 93.5714 56.028 92.9445 54.4735C92.793 54.0938 92.9089 53.9384 93.3256 53.9428C94.3573 53.9561 95.3913 53.9428 96.4253 53.9428C96.5593 53.9226 96.6961 53.9547 96.8069 54.0325C96.9178 54.1102 96.9942 54.2277 97.0203 54.3603C97.9339 57.0072 98.8832 59.6453 99.8125 62.2878C100.136 63.2094 100.436 64.1376 100.751 65.0636C100.789 65.1702 100.846 65.2723 100.969 65.541Z" fill="#EC1F3E"/>
<path d="M123.44 57.6267C122.801 57.8488 122.21 58.0531 121.611 58.2441C121.058 58.4195 120.496 58.5993 119.937 58.7259C119.84 58.7429 119.74 58.7373 119.645 58.7096C119.551 58.6818 119.464 58.6327 119.391 58.566C117.724 56.2855 114.108 56.7118 112.929 59.4099C112.178 61.1286 112.238 62.8229 113.252 64.4173C114.665 66.6379 117.568 66.86 119.304 64.8903C119.605 64.5483 119.859 64.4706 120.28 64.615C121.221 64.9369 122.172 65.2234 123.128 65.5032C123.471 65.6031 123.482 65.7719 123.331 66.0295C122.86 66.8695 122.216 67.6007 121.442 68.1748C120.667 68.749 119.779 69.153 118.836 69.3604C117.177 69.784 115.433 69.7502 113.791 69.2627C112.036 68.7551 110.536 67.6091 109.588 66.0517C108.566 64.4627 108.139 62.5652 108.383 60.6934C108.817 57.5246 110.471 55.2573 113.562 54.2026C116.053 53.3499 118.511 53.4875 120.82 54.8199C121.964 55.4627 122.879 56.4434 123.44 57.6267Z" fill="#EC1F3E"/>
<path d="M125.152 57.3159C125.152 54.4306 125.152 51.5438 125.152 48.6556C125.152 47.9206 125.178 47.8983 125.9 47.8961C126.745 47.8961 127.59 47.9161 128.432 47.8961C128.927 47.8806 129.1 48.0738 129.1 48.5623C129.085 49.9702 129.1 51.378 129.1 52.7814V63.8045C129.1 63.9755 129.1 64.1465 129.1 64.3197C129.167 65.9296 130.134 66.4737 131.681 65.9296C132.151 65.7653 132.318 65.823 132.405 66.3093C132.525 66.9755 132.628 67.6595 132.739 68.3367C132.795 68.692 132.661 68.8941 132.294 69.014C131.169 69.4016 129.985 69.5873 128.795 69.5625C126.544 69.4826 125.163 68.2301 125.156 65.9163C125.145 63.0495 125.152 60.1783 125.152 57.3159Z" fill="#EC1F3E"/>
</g>
<defs>
<clipPath id="clip0_22_2658">
<rect width="149" height="76" fill="white"/>
</clipPath>
</defs>
</svg>
