<svg width="163" height="41" viewBox="0 0 163 41" fill="none" xmlns="http://www.w3.org/2000/svg">
<path d="M-0.000244141 4.17114H17.452V8.38375H4.22826V15.2771H13.4541V19.4897H4.22826V32.051H-0.000244141V4.17114Z" fill="#C1C0C1"/>
<path d="M26.2355 20.2195H33.3086L29.6952 9.11355L26.2355 20.2195ZM34.5388 24.3555H24.8516L22.3145 32.0148H17.9323L27.3119 4.13501H32.2323L41.6119 32.0148H36.999L34.5388 24.3555Z" fill="#C1C0C1"/>
<path d="M64.6597 25.7486C64.6597 27.6634 63.7371 29.2718 61.8151 30.5739C59.893 31.876 57.8941 32.4887 55.7414 32.4887C51.0516 32.4887 47.8226 31.1101 46.0543 28.3527C44.286 25.5954 43.3634 22.3019 43.3634 18.3956C43.3634 14.566 44.3629 11.2725 46.208 8.43856C48.1301 5.60462 51.2822 4.22595 55.7414 4.22595C57.8172 4.22595 59.893 4.8387 61.8151 6.14077C63.7371 7.44285 64.6597 8.97472 64.6597 10.8895H60.3543C60.2005 10.8895 60.1237 10.8129 60.1237 10.6598C60.0468 9.97042 59.5855 9.43428 58.6629 8.97472C57.6634 8.51516 56.664 8.20879 55.6645 8.20879C52.5892 8.20879 50.4366 9.28108 49.2833 11.4257C48.1301 13.5703 47.515 15.8681 47.515 18.319C47.515 20.9232 48.0532 23.221 49.1295 25.3656C50.2059 27.4336 52.3586 28.5059 55.5876 28.5059C56.5871 28.5059 57.6634 28.2761 58.6629 27.74C59.5855 27.2804 60.0468 26.6677 60.1237 25.9017C60.1237 25.7485 60.2005 25.672 60.3543 25.672H64.6597" fill="#C1C0C1"/>
<path d="M86.6789 8.36337H79.0676V31.954H74.8391V8.36337H67.3047V4.15076H86.602" fill="#C1C0C1"/>
<path d="M118.666 8.36337H111.055V31.954H106.827V8.36337H99.2921V4.15076H118.59" fill="#C1C0C1"/>
<path d="M129.381 31.9936H125.153V8.40304H122.001V4.19043H129.381V31.9936Z" fill="#C1C0C1"/>
<path d="M153.859 25.7486C153.859 27.6634 152.936 29.2718 151.014 30.5739C149.092 31.876 147.093 32.4887 144.941 32.4887C140.251 32.4887 137.022 31.1101 135.253 28.3527C133.485 25.5954 132.562 22.3019 132.562 18.3956C132.562 14.566 133.485 11.2725 135.407 8.43856C137.329 5.60462 140.481 4.22595 144.941 4.22595C147.016 4.22595 149.092 4.8387 151.014 6.14077C152.936 7.44285 153.859 8.97472 153.859 10.8895H149.553C149.477 10.8895 149.323 10.8129 149.323 10.6598C149.246 9.97042 148.785 9.43428 147.862 8.97472C146.863 8.51516 145.863 8.20879 144.864 8.20879C141.788 8.20879 139.636 9.28108 138.482 11.4257C137.329 13.5703 136.714 15.8681 136.714 18.319C136.714 20.9232 137.252 23.221 138.329 25.3656C139.405 27.4336 141.558 28.5059 144.787 28.5059C145.786 28.5059 146.863 28.2761 147.862 27.74C148.785 27.2804 149.246 26.6677 149.323 25.9017C149.323 25.8251 149.4 25.672 149.553 25.672H153.859" fill="#C1C0C1"/>
<path d="M89.8002 0V1.60846V39.139V40.7474H91.2609H95.72H97.104H97.2577V37.5305H97.104H95.72H92.7217V3.21691H95.5663H95.72H97.104H97.2577V0H97.104H95.72H95.5663H91.2609H89.8002Z" fill="#C1C0C1"/>
<path d="M162.949 0V1.60846V39.139V40.7474H161.488H157.029H155.645H155.491V37.5305H155.645H157.029H160.027V3.21691H157.183H157.029H155.645H155.491V0H155.645H157.029H157.183H161.488H162.949Z" fill="#C1C0C1"/>
</svg>
