<svg width="289" height="471" viewBox="0 0 289 471" fill="none" xmlns="http://www.w3.org/2000/svg">
<path d="M146.919 387.488C146.919 396.915 154.845 400.419 161.936 405.758C167.109 409.596 175.117 415.352 176.035 422.276C176.953 429.701 173.449 434.373 161.519 434.79C155.679 434.957 135.824 426.448 132.07 424.696C125.145 421.108 120.14 418.439 119.222 410.43C118.555 403.923 118.805 395.663 123.477 390.491C126.146 387.571 147.42 378.645 149.172 384.901" fill="#092E37"/>
<path d="M159.35 434.623C134.989 429.367 116.969 415.936 116.969 415.936L123.56 416.103C123.56 416.103 157.264 437.126 174.533 430.035C174.533 430.118 170.529 435.624 159.35 434.623Z" fill="#114C56"/>
<path d="M205.568 401.336C212.242 397.332 280.151 365.046 281.819 364.963C281.819 364.963 287.075 287.043 287.742 283.456C283.571 284.957 216.33 312.237 211.241 312.988C211.324 313.072 206.235 389.406 205.568 401.336L144.583 376.058L157.431 288.962L211.241 313.155" fill="#EC1F3E"/>
<path d="M211.241 313.822L287.826 283.539L195.64 251.253L132.987 277.699L211.241 313.822Z" fill="#FF5A70"/>
<path d="M259.461 249.751C261.881 259.012 263.049 273.361 254.956 280.202C246.03 287.96 237.687 277.782 229.011 274.863C225.173 273.695 220.334 275.196 218.582 271.275C214.995 263.517 226.925 250.419 232.932 247.415C235.268 246.248 256.792 243.494 259.461 249.751Z" fill="#B51D37"/>
<path d="M227.759 256.426C223.922 260.263 224.506 267.354 224.506 272.777C224.172 282.621 220.001 287.96 209.906 288.628C201.23 289.546 191.386 287.126 186.046 279.952C176.786 266.854 180.957 244.746 190.551 232.816C200.396 220.302 222.17 216.381 236.769 222.388C243.944 225.391 249.951 227.81 255.29 237.071C267.804 258.678 248.199 243.578 234.684 253.422C233.432 254.34 229.261 255.258 227.759 256.426Z" fill="#EC1F3E"/>
<path d="M259.962 251.837C267.136 249.751 267.47 244.078 260.295 242.66C247.281 239.991 237.353 249.835 227.509 256.676C240.106 251.003 246.78 248.417 259.962 251.837Z" fill="#FF5A70"/>
<path d="M210.465 313.05L204.766 401.295L206.431 401.403L212.13 313.157L210.465 313.05Z" fill="#FCE39F"/>
<path d="M287.53 282.743L211.034 312.299L211.635 313.855L288.132 284.3L287.53 282.743Z" fill="#FCE39F"/>
<path d="M166.01 291.771L165.325 293.292L210.895 313.801L211.58 312.279L166.01 291.771Z" fill="#FCE39F"/>
<path d="M120.307 407.927C124.061 413.099 125.229 422.443 124.478 424.612C119.973 438.127 105.957 454.145 96.9473 460.986C87.7705 468.411 67.7482 477.838 60.9073 459.901C57.2366 450.224 64.7449 439.963 70.0842 432.12C74.756 425.446 81.0964 418.105 87.1031 412.682C89.439 410.513 89.9396 405.174 90.2733 404.924C96.6136 400.168 102.787 405.508 110.629 405.508C114.884 405.508 116.469 407.093 119.139 408.678" fill="#114C56"/>
<path d="M53.8995 215.463C74.756 216.631 96.2799 226.225 117.136 228.561C138.577 230.313 155.095 228.144 175.952 226.893C176.703 236.987 172.781 265.686 169.027 283.456C163.771 308.483 162.604 326.837 158.432 348.361C156.68 360.875 151.258 414.851 124.311 401.587C123.143 415.936 102.704 417.771 89.0218 411.097C83.5992 408.428 73.7549 372.137 70.0007 357.121C65.9963 341.353 49.7282 231.565 53.8995 215.463Z" fill="#114C56"/>
<path d="M148.087 49.7795C195.056 60.5414 204.066 119.273 196.474 159.151C193.805 174.835 185.712 177.922 176.786 163.155C166.024 145.719 158.432 125.113 154.845 105.425C152.175 92.9107 148.588 79.8962 146.752 67.3824C145.918 61.9597 144.083 54.2011 148.087 49.7795Z" fill="#07EDB7"/>
<path d="M216.497 135.792L216.83 136.376C219.25 147.138 209.072 164.74 202.481 173.083C199.478 176.921 196.224 182.594 191.719 185.013C183.043 189.184 175.868 181.426 171.697 174.585C164.522 162.071 163.938 139.713 179.456 132.788C192.637 127.449 204.233 131.036 216.497 135.792Z" fill="#07EDB7"/>
<path d="M103.454 242.16C123.477 243.745 164.188 243.244 180.206 227.977C199.061 210.124 185.963 168.244 178.621 148.306C176.035 141.131 175.368 142.799 178.287 135.792C180.29 130.953 183.543 120.441 182.626 114.768C179.372 94.7461 165.857 88.2388 158.682 78.3112C156.346 75.0575 156.18 73.2222 155.679 70.7194C153.844 60.5414 160.685 54.3679 160.935 54.3679C160.935 54.3679 152.342 50.4469 148.004 49.7795C142.665 48.9452 137.325 54.3679 131.986 54.3679C125.979 54.3679 122.309 44.5237 116.886 45.6916C114.216 46.1087 82.9316 49.6126 81.7637 50.4469C72.0863 57.121 55.5679 173.75 48.9773 217.883C62.242 233.4 84.3499 240.408 103.454 242.16Z" fill="#06BA90"/>
<path d="M47.0585 120.191C50.2287 121.943 57.8204 124.195 60.49 125.53C65.9127 124.696 116.469 116.604 123.143 114.768C111.547 108.928 85.7681 104.006 83.3488 103.172C78.8438 102.755 49.311 112.599 46.6414 120.191" fill="#FCE39F"/>
<path d="M53.4824 182.343C56.152 168.161 60.4901 125.53 60.4901 125.53C60.9073 123.111 60.4901 125.53 60.4901 125.53C59.7393 124.195 47.0586 120.191 47.0586 120.191C46.6415 120.191 46.7249 120.024 45.3066 120.942C42.1365 122.861 39.2165 129.034 37.548 132.121C32.7927 140.797 30.9574 152.56 33.7104 162.071C35.379 168.161 39.0497 173.834 44.1387 177.755C45.8072 179.09 47.8928 180.091 49.8116 181.092C50.8127 181.592 53.4824 182.343 53.4824 182.343Z" fill="#EDC037"/>
<path d="M85.1007 49.7795C85.1007 49.7795 83.5157 49.8629 77.0084 51.6983C56.7359 57.5381 39.4668 68.2166 25.9518 85.2355C6.26324 110.18 -13.5087 144.218 14.3556 182.343C21.9473 192.772 50.3121 204.284 60.9072 199.779C70.3343 195.775 67.7481 180.424 65.5791 180.675C63.9106 180.842 54.3166 181.843 52.7315 182.093C51.3132 182.26 40.9684 175.836 38.1319 169.996C28.7048 151.643 33.8772 127.699 52.2309 116.937C65.9962 108.845 75.3399 106.092 85.6013 98.25C89.0218 95.6637 96.9472 88.3223 96.697 69.2177C96.5301 60.3746 90.6903 53.3668 85.1007 49.7795Z" fill="#07EDB7"/>
<path d="M218.165 112.349C218.249 111.848 224.589 96.6648 224.839 89.4068C224.923 89.0731 221.752 87.6548 221.419 87.4046C219.333 85.9863 210.156 86.9874 208.571 87.2377C206.569 87.488 197.893 88.5725 194.305 91.7427C193.304 92.577 189.8 110.931 189.216 114.935C189.633 115.019 191.719 116.52 192.303 116.604C199.394 117.772 215.829 118.272 218.082 112.516" fill="#FF5A70"/>
<path d="M221.252 114.017C221.335 113.517 224.672 97.082 224.923 89.9073C225.256 87.4045 213.493 88.7394 211.658 88.9896C209.656 89.2399 200.979 90.3245 197.392 93.4947C196.391 94.3289 192.887 112.683 192.303 116.687C197.726 117.772 218.749 120.525 221.168 114.268" fill="#EC1F3E"/>
<path d="M208.321 99.835C207.904 101.837 208.654 103.756 210.156 104.09C211.658 104.423 213.243 103.089 213.66 101.003C214.077 99.0008 213.326 97.0819 211.825 96.7482C210.323 96.498 208.738 97.8328 208.321 99.835Z" fill="#FCE39F"/>
<path d="M222.837 105.091C221.836 114.184 214.411 117.688 206.986 117.938C203.733 118.272 199.311 117.605 196.308 116.437C194.556 115.853 192.637 114.101 190.885 114.351C186.714 114.935 186.38 121.526 186.38 124.779C186.046 130.119 186.964 134.29 191.719 137.627C201.563 144.218 217.081 140.63 222.42 130.452C224.506 125.947 226.925 120.942 227.759 116.103C228.093 113.1 227.509 104.59 223.004 103.923C223.004 103.923 223.004 104.507 222.67 104.757" fill="#99D5EC"/>
<path d="M60.9072 199.863C73.9217 199.612 82.3477 190.686 89.7726 181.259C92.9428 177.254 95.1119 173.834 88.4378 173.834C81.7637 173.834 70.7515 174.751 65.5791 179.84" fill="#99D5EC"/>
<path d="M60.4901 125.53C81.5135 122.36 122.225 114.351 123.143 114.768C120.473 127.783 115.384 171.081 114.884 171.581C114.216 172.249 85.6014 176.921 77.509 178.756C69.4167 180.091 61.4912 181.175 53.3989 182.093C54.3166 180.424 56.9028 155.48 58.6548 142.466C59.1553 138.962 60.4901 125.53 60.4901 125.53Z" fill="#EDC037"/>
<path d="M60.0866 122.39L52.6013 182.243L54.257 182.45L61.7423 122.597L60.0866 122.39Z" fill="#FCE39F"/>
<path d="M91.0889 120.145L86.4255 176.848L88.0884 176.985L92.7517 120.282L91.0889 120.145Z" fill="#FCE39F"/>
<path d="M102.62 137.46L103.204 130.202L98.866 130.536L107.209 123.278L115.051 129.535L110.963 129.952L110.796 136.793L102.62 137.46Z" fill="#EC1F3E"/>
<path d="M72.9205 366.297C74.8393 366.131 76.6746 365.964 78.5934 366.464C79.2608 366.631 79.5111 365.63 78.8437 365.463C76.9249 364.963 74.9227 365.046 72.9205 365.213C72.2531 365.296 72.2531 366.381 72.9205 366.297Z" fill="#FCE39F"/>
<path d="M79.094 365.63C77.3421 364.212 75.7569 362.627 74.2553 360.958C73.3376 359.874 72.5033 358.706 71.8359 357.454C70.5845 355.118 71.9194 350.78 75.173 352.282C78.7603 353.867 78.4266 362.043 79.5946 365.296C79.7614 365.713 80.3454 365.88 80.5122 365.38C81.9305 362.21 82.3476 358.706 83.8493 355.536C84.3498 354.451 85.0172 353.617 85.9349 352.949C89.1051 352.866 90.6068 354.034 90.2731 356.37C90.1896 357.454 89.8559 358.455 89.3554 359.373C87.6869 362.543 84.183 364.796 81.1796 366.464C80.5957 366.798 81.0962 367.632 81.6802 367.382C84.6001 365.964 87.9371 365.13 91.1908 365.296C93.3598 365.38 94.7781 366.464 95.0284 368.8C95.4455 372.888 90.5233 372.221 88.6045 371.72C85.7681 370.886 83.2653 368.884 80.8459 367.382C80.4288 367.132 79.9282 367.549 80.0951 367.966C80.8459 370.135 81.6802 372.304 82.3476 374.473C82.8482 376.142 83.0984 377.81 82.7647 379.562C82.0973 383.316 78.3432 381.898 77.7592 379.646C76.9249 375.975 78.1763 371.72 78.7603 368.049C78.8437 367.549 78.2597 367.132 77.926 367.549C76.5912 368.967 75.3398 370.052 73.7547 371.136C73.1708 371.553 73.7547 372.388 74.2553 372.054C75.8404 370.969 77.2586 369.718 78.5934 368.3C78.3432 368.133 78.0095 367.966 77.7592 367.799C77.2586 370.886 74.2553 381.231 78.5934 382.732C80.8459 383.567 83.015 381.898 83.7659 379.896C85.1007 376.225 82.2642 371.22 81.0962 367.799C80.8459 367.966 80.5957 368.216 80.3454 368.383C83.3487 370.302 87.7703 374.056 91.6913 373.305C94.3609 372.888 96.8637 370.719 95.946 367.716C94.1106 361.876 85.0172 364.712 81.1796 366.548C81.3465 366.881 81.5134 367.132 81.6802 367.465C85.4344 365.38 96.9471 355.953 88.8548 351.948C82.5979 348.861 81.0128 361.959 79.678 364.963C80.0117 364.963 80.3454 365.046 80.5957 365.046C79.3443 361.375 79.5111 349.946 73.2542 351.114C64.411 352.866 75.6735 364.295 78.2597 366.381C78.8437 366.715 79.5946 366.047 79.094 365.63Z" fill="#FCE39F"/>
<path d="M84.9338 404.757C88.4377 402.588 92.9427 402.337 96.8637 403.339C97.5311 403.505 97.7814 402.504 97.114 402.337C92.9427 401.253 88.104 401.503 84.3498 403.839C83.8493 404.256 84.3498 405.174 84.9338 404.757Z" fill="#FCE39F"/>
<path d="M95.8626 413.016C96.1129 410.263 96.6969 407.593 97.114 404.924C97.1974 404.423 96.6135 404.006 96.2798 404.423C94.1107 406.842 91.6079 409.095 88.3543 409.679C87.6869 409.846 87.9372 410.847 88.6046 410.68C92.025 410.013 94.6947 407.677 96.9472 405.09C96.6969 404.924 96.3632 404.757 96.1129 404.59C95.6123 407.343 95.0284 410.179 94.7781 413.016C94.7781 413.683 95.7792 413.683 95.8626 413.016Z" fill="#FCE39F"/>
<path d="M97.3644 402.504C95.6125 401.086 94.0274 399.501 92.5257 397.832C91.6081 396.748 90.7738 395.58 90.1064 394.329C88.855 391.993 90.1898 387.655 93.4434 389.156C97.0307 390.741 96.697 398.917 97.865 402.171C98.0318 402.588 98.6158 402.755 98.7827 402.254C100.201 399.084 100.618 395.58 102.12 392.41C102.62 391.325 103.288 390.491 104.205 389.824C107.376 389.74 108.877 390.908 108.544 393.244C108.46 394.329 108.126 395.33 107.626 396.247C105.957 399.418 102.453 401.67 99.4501 403.339C98.8661 403.672 99.3667 404.507 99.9506 404.256C102.871 402.838 106.208 402.004 109.461 402.171C111.63 402.254 113.049 403.339 113.299 405.675C113.716 409.762 108.794 409.095 106.875 408.594C104.039 407.76 101.536 405.758 99.1164 404.256C98.6993 404.006 98.1987 404.423 98.3656 404.84C99.3667 408.01 100.535 411.014 100.952 414.351C101.035 415.018 102.036 415.018 101.953 414.351C101.536 410.93 100.368 407.844 99.2832 404.59C99.0329 404.757 98.7827 405.007 98.5324 405.174C101.536 407.093 105.957 410.847 109.878 410.096C112.548 409.679 115.051 407.51 114.133 404.507C112.298 398.667 103.204 401.503 99.3667 403.339C99.5335 403.672 99.7004 403.923 99.8672 404.256C103.621 402.171 115.134 392.743 107.042 388.739C100.785 385.652 99.1998 398.75 97.865 401.754C98.1987 401.754 98.5324 401.837 98.7827 401.837C97.5313 398.166 97.6981 386.737 91.4412 387.905C82.598 389.573 93.8605 401.086 96.4467 403.172C97.1976 403.672 97.9484 402.921 97.3644 402.504Z" fill="#FCE39F"/>
<path d="M123.477 371.637C122.643 371.053 121.725 370.552 120.891 369.968C120.473 369.718 119.973 370.135 120.14 370.552C120.891 372.888 121.892 375.224 122.559 377.643C123.06 379.395 123.31 381.314 122.476 382.983C121.475 385.068 118.721 384.735 118.054 382.899C116.719 379.228 118.221 374.306 118.888 370.636C118.972 370.135 118.388 369.718 118.054 370.135C116.552 371.804 115.051 373.138 113.132 374.306C111.297 375.474 109.294 375.808 107.292 374.89C104.456 373.555 104.956 372.221 106.291 370.886C106.958 370.302 107.626 369.885 108.46 369.634C111.463 368.383 115.551 368.3 118.722 369.134C119.389 369.301 119.639 368.3 118.972 368.133C114.8 367.048 106.041 366.965 104.456 372.137C103.788 374.306 106.958 376.225 108.627 376.392C112.798 376.809 116.219 373.722 118.805 370.802C118.555 370.636 118.221 370.469 117.971 370.302C117.387 373.806 114.467 383.316 118.888 385.319C121.141 386.32 123.477 384.151 123.977 382.148C125.062 378.394 122.392 373.722 121.308 370.218C121.057 370.385 120.807 370.636 120.557 370.802C121.391 371.386 122.309 371.887 123.143 372.471C123.56 372.888 124.061 371.97 123.477 371.637Z" fill="#FCE39F"/>
<path d="M122.893 368.133C122.309 368.467 121.725 368.8 121.141 369.134C121.308 369.468 121.474 369.718 121.641 370.052C122.142 369.801 122.642 369.551 123.143 369.384C123.727 369.134 123.477 368.133 122.893 368.383C122.309 368.633 121.725 368.884 121.141 369.134C120.557 369.468 121.057 370.302 121.641 370.052C122.225 369.718 122.809 369.384 123.393 369.05C123.977 368.633 123.477 367.716 122.893 368.133Z" fill="#FCE39F"/>
<path d="M119.055 368.3C116.886 366.631 114.967 364.629 113.299 362.46C112.298 361.125 111.38 359.54 111.13 357.871C110.879 355.953 112.965 354.451 114.717 354.701C117.053 355.118 117.804 359.373 118.137 361.208C118.638 363.378 118.805 365.797 119.556 367.883C119.723 368.3 120.307 368.467 120.473 367.966C121.725 365.213 122.309 362.293 123.393 359.54C123.644 358.873 122.642 358.622 122.392 359.29C121.391 361.959 120.807 364.879 119.556 367.465C119.889 367.465 120.223 367.549 120.473 367.549C119.222 364.045 119.305 352.282 113.132 353.617C104.456 355.535 115.301 366.631 118.137 368.884C118.805 369.384 119.556 368.717 119.055 368.3Z" fill="#FCE39F"/>
<path d="M103.705 327.921C101.285 326.003 92.5257 317.91 97.1141 314.907C102.37 311.487 103.288 324.918 104.289 327.588C104.456 328.005 105.04 328.172 105.206 327.671C107.209 323.834 107.209 319.245 110.045 315.825C111.547 313.989 113.632 315.241 114.717 316.826C116.219 318.912 114.05 321.748 112.798 323.25C110.963 325.502 108.377 327.421 105.79 328.756C105.206 329.089 105.707 330.007 106.291 329.673C109.127 328.172 117.971 325.586 119.472 329.924C120.473 332.844 117.47 334.846 114.967 334.429C113.549 334.262 112.298 333.511 111.046 332.927C109.127 332.009 107.292 330.758 105.54 329.59C105.123 329.34 104.622 329.757 104.789 330.174C105.874 333.928 107.959 337.682 107.292 341.687C106.875 344.356 103.288 344.69 102.37 342.02C101.869 340.602 102.12 338.85 102.203 337.432C102.37 335.013 103.037 332.593 103.454 330.174C103.538 329.673 102.954 329.256 102.62 329.673C100.952 331.509 99.1164 333.01 96.9473 334.095C94.7782 335.263 92.5257 335.346 90.6903 333.511C88.5213 331.425 91.3577 330.091 92.776 329.507C95.7793 328.255 100.034 327.755 103.204 328.589C103.872 328.756 104.122 327.755 103.454 327.588C99.9506 326.587 89.8561 326.92 88.855 331.676C88.4378 333.928 91.4412 335.597 93.1931 335.847C96.9473 336.431 100.952 332.76 103.288 330.257C103.037 330.091 102.704 329.924 102.453 329.757C101.953 332.76 98.2821 345.941 105.206 344.69C111.797 343.522 106.875 333.344 105.79 329.673C105.54 329.84 105.29 330.091 105.04 330.257C109.127 332.844 120.307 339.935 120.64 330.174C120.891 323.75 108.627 327.004 105.79 328.505C105.957 328.839 106.124 329.089 106.291 329.423C110.796 327.004 121.308 318.328 113.215 313.906C107.626 310.903 105.624 324.334 104.289 326.92C104.622 326.92 104.956 327.004 105.206 327.004C103.538 322.582 104.122 310.485 96.5302 313.739C90.2732 316.409 100.618 326.587 102.954 328.339C103.455 329.006 104.205 328.339 103.705 327.921Z" fill="#FCE39F"/>
<path d="M61.2409 304.979C62.7425 308.734 62.9928 312.738 64.2442 316.492C64.411 316.909 64.995 317.076 65.1619 316.576C66.5801 313.405 66.9972 309.902 68.4989 306.731C68.9995 305.647 69.6669 304.813 70.5846 304.145C73.7547 304.062 75.2564 305.23 74.9227 307.566C74.8393 308.65 74.5056 309.651 74.005 310.569C72.3365 313.739 68.8326 315.992 65.8293 317.66C65.2453 317.994 65.7459 318.828 66.3298 318.578C69.2497 317.16 72.5868 316.325 75.8404 316.492C78.0095 316.576 79.4277 317.66 79.678 319.996C80.0951 324.084 75.173 323.417 73.2542 322.916C70.4177 322.082 67.9149 320.079 65.4956 318.578C65.0784 318.328 64.5779 318.745 64.7447 319.162C65.8293 322.499 70.084 330.257 65.7459 332.677C65.1619 333.011 65.6624 333.928 66.2464 333.594C71.3354 330.841 66.9972 322.749 65.6624 318.912C65.4122 319.078 65.1619 319.329 64.9116 319.495C67.9149 321.414 72.3365 325.168 76.2575 324.418C78.9272 324 81.4299 321.831 80.5122 318.828C78.6769 312.988 69.5835 315.825 65.7459 317.66C65.9127 317.994 66.0796 318.244 66.2464 318.578C70.0006 316.492 81.5133 307.065 73.421 303.061C67.1641 299.974 65.579 313.072 64.2442 316.075C64.5779 316.075 64.9116 316.158 65.1619 316.158C63.8271 312.404 63.6602 308.316 62.1585 304.646C61.9917 304.145 60.9906 304.395 61.2409 304.979Z" fill="#FCE39F"/>
<path d="M94.4445 282.288C92.0252 280.369 83.2654 272.276 87.8539 269.273C93.1097 265.853 94.0274 279.284 95.0285 281.954C95.1954 282.371 95.7793 282.538 95.9462 282.037C97.9484 278.2 97.9484 273.611 100.785 270.191C102.287 268.355 104.372 269.607 105.457 271.192C106.958 273.278 104.789 276.114 103.538 277.616C101.703 279.868 99.1164 281.787 96.5302 283.122C95.9462 283.455 96.4467 284.373 97.0307 284.039C99.8672 282.538 108.71 279.952 110.212 284.29C111.213 287.21 108.21 289.212 105.707 288.795C104.289 288.628 103.037 287.877 101.786 287.293C99.8672 286.375 98.0318 285.124 96.2799 283.956C95.8628 283.706 95.3622 284.123 95.529 284.54C96.6136 288.294 98.6992 292.048 98.0318 296.053C97.6147 298.722 94.0274 299.056 93.1097 296.387C92.6091 294.968 92.8594 293.216 92.9429 291.798C93.1097 289.379 93.7771 286.959 94.1942 284.54C94.2777 284.039 93.6937 283.622 93.36 284.039C91.6915 285.875 89.8561 287.377 87.687 288.461C85.5179 289.629 83.2654 289.712 81.4301 287.877C79.261 285.791 82.0975 284.457 83.5157 283.873C86.519 282.621 90.7738 282.121 93.9439 282.955C94.6114 283.122 94.8616 282.121 94.1942 281.954C90.6904 280.953 80.5958 281.286 79.5947 286.042C79.1776 288.294 82.1809 289.963 83.9328 290.213C87.687 290.797 91.6915 287.126 94.0274 284.623C93.7771 284.457 93.4434 284.29 93.1931 284.123C92.6926 287.126 89.0218 300.307 95.9462 299.056C102.537 297.888 97.6147 287.71 96.5302 284.039C96.2799 284.206 96.0296 284.457 95.7793 284.623C99.8672 287.21 111.046 294.301 111.38 284.54C111.63 278.116 99.3666 281.37 96.5302 282.872C96.697 283.205 96.8639 283.455 97.0307 283.789C101.536 281.37 112.047 272.694 103.955 268.272C98.3655 265.269 96.3633 278.7 95.0285 281.286C95.3622 281.286 95.6959 281.37 95.9462 281.37C94.2776 276.948 94.8616 264.852 87.2699 268.105C81.0129 270.775 91.3578 280.953 93.6937 282.705C94.1942 283.455 94.9451 282.705 94.4445 282.288Z" fill="#FCE39F"/>
<path d="M54.8172 247.165C55.9851 250.669 56.3189 254.423 57.4868 257.927C57.6537 258.344 58.2376 258.511 58.4045 258.011C59.8227 254.84 60.2399 251.336 61.7415 248.166C62.2421 247.082 62.9095 246.248 63.8272 245.58C66.9974 245.497 68.499 246.665 68.1653 249.001C68.0819 250.085 67.7482 251.086 67.2476 252.004C65.5791 255.174 62.0752 257.427 59.0719 259.095C58.4879 259.429 58.9885 260.263 59.5725 260.013C62.4924 258.595 65.8294 257.76 69.083 257.927C71.2521 258.011 72.6703 259.095 72.9206 261.431C73.3377 265.519 68.4156 264.851 66.4968 264.351C63.6603 263.517 61.1576 261.514 58.7382 260.013C58.3211 259.762 57.8205 260.18 57.9873 260.597C58.9885 263.6 63.6603 273.695 58.0708 274.279C57.4034 274.362 57.4034 275.363 58.0708 275.28C65.0786 274.529 60.1564 264.017 58.9885 260.263C58.7382 260.43 58.4879 260.68 58.2376 260.847C61.241 262.766 65.6626 266.52 69.5836 265.769C72.2532 265.352 74.756 263.183 73.8383 260.18C72.0029 254.34 62.9095 257.176 59.0719 259.012C59.2388 259.345 59.4056 259.596 59.5725 259.929C63.3266 257.844 74.8394 248.417 66.7471 244.412C60.4901 241.325 58.905 254.423 57.5702 257.427C57.9039 257.427 58.2376 257.51 58.4879 257.51C57.2365 254.006 56.9863 250.252 55.8183 246.748C55.568 246.248 54.5669 246.498 54.8172 247.165Z" fill="#FCE39F"/>
<path d="M114.3 243.161C115.635 249.668 107.709 247.249 105.624 246.248C103.621 245.33 101.869 243.912 100.034 242.66C99.7003 242.41 99.1163 242.827 99.2832 243.244C100.117 245.58 101.035 247.833 101.703 250.252C102.203 251.67 102.203 253.172 101.786 254.59C100.952 256.342 99.1998 258.678 97.1141 256.008C96.697 255.091 96.4467 254.09 96.4467 253.005C96.1964 249.751 97.3644 246.414 97.9484 243.244C98.0318 242.744 97.4478 242.326 97.1141 242.744C94.4445 245.664 89.0218 250.502 85.0174 247.082C81.4301 243.995 90.7738 241.743 92.3589 241.576C93.0263 241.492 93.0263 240.491 92.3589 240.575C90.2732 240.825 81.2632 242.66 83.3489 246.581C86.8528 252.922 94.5279 246.998 97.7815 243.578C97.5313 243.411 97.1976 243.244 96.9473 243.077C96.113 247.249 92.9428 255.842 98.2821 258.261C100.034 259.012 101.869 257.26 102.453 255.758C104.205 251.503 101.703 246.998 100.284 242.994C100.034 243.161 99.7838 243.411 99.5335 243.578C102.537 245.58 106.958 249.585 110.963 248.583C113.883 247.916 115.885 246.081 115.301 242.91C115.134 242.243 114.133 242.493 114.3 243.161Z" fill="#FCE39F"/>
<path d="M151.257 240.825C154.845 246.414 147.17 251.587 142.915 253.839C142.331 254.173 142.831 255.007 143.415 254.757C146.502 253.255 150.006 251.92 153.51 252.421C156.68 253.088 158.265 257.76 153.51 259.429C151.508 259.762 149.672 259.345 147.92 258.344C146.002 257.427 144.25 255.925 142.498 254.757C142.164 254.507 141.58 254.924 141.747 255.341C142.498 257.427 143.415 259.429 144.083 261.514C144.583 262.933 144.667 264.434 144.417 265.936C143.916 269.023 139.411 269.19 138.577 266.186C137.659 262.766 139.578 258.595 140.329 255.341C140.412 254.84 139.828 254.423 139.494 254.84C138.16 256.342 136.908 257.677 135.24 258.845C133.988 259.679 132.57 260.18 131.068 260.18C127.314 260.43 126.48 255.758 129.316 254.09C132.32 252.338 136.992 253.172 140.162 253.923C140.829 254.09 141.079 253.088 140.412 252.922C137.158 252.087 125.729 250.669 125.979 256.926C126.063 259.179 127.731 260.847 130.067 261.097C134.405 261.514 137.576 258.678 140.245 255.591C139.995 255.424 139.661 255.258 139.411 255.091C138.744 258.094 134.572 269.356 140.662 270.191C142.831 270.524 144.5 269.19 145.167 267.104C146.502 262.849 144.166 259.012 142.748 255.091C142.498 255.258 142.247 255.508 141.997 255.675C144.917 257.677 148.755 261.264 152.676 260.68C154.928 260.346 158.599 258.428 157.681 255.424C155.596 248.75 147.336 251.67 142.748 253.923C142.915 254.256 143.082 254.507 143.249 254.84C148.004 252.254 155.929 246.581 152.008 240.408C151.758 239.74 150.84 240.241 151.257 240.825Z" fill="#FCE39F"/>
<path d="M139.077 242.41C140.162 245.747 140.245 249.251 141.33 252.588C141.497 253.089 142.164 253.089 142.331 252.588C143.749 249.084 143.916 245.246 145.835 241.909C146.168 241.325 145.251 240.825 144.917 241.409C142.915 244.829 142.748 248.75 141.246 252.338C141.58 252.338 141.914 252.338 142.247 252.338C141.246 249.001 141.079 245.497 139.995 242.16C139.828 241.492 138.827 241.826 139.077 242.41Z" fill="#FCE39F"/>
<path d="M140.746 253.005C137.325 250.335 133.905 246.998 132.904 242.66C132.737 241.993 131.736 242.243 131.903 242.91C132.904 247.415 136.408 251.003 139.995 253.756C140.496 254.09 141.246 253.422 140.746 253.005Z" fill="#FCE39F"/>
<path d="M166.107 297.972C164.272 296.971 162.52 295.886 160.768 294.718C160.351 294.468 159.85 294.885 160.017 295.302C160.768 297.471 161.602 299.64 162.27 301.809C162.77 303.478 163.021 305.146 162.687 306.898C162.019 310.652 158.265 309.234 157.681 306.898C156.847 303.227 158.098 298.973 158.682 295.302C158.766 294.801 158.182 294.384 157.848 294.801C156.513 296.303 155.095 297.555 153.343 298.722C152.008 299.557 150.59 300.057 149.088 300.141C145.918 300.474 144.917 296.053 147.42 294.718C150.423 293.05 155.095 293.05 158.432 293.884C159.1 294.051 159.35 293.05 158.682 292.883C155.929 292.215 143.499 291.715 144.166 297.137C144.417 299.223 146.085 300.892 148.254 301.142C152.425 301.559 155.929 298.472 158.599 295.552C158.349 295.385 158.015 295.219 157.765 295.052C157.264 298.138 154.261 308.483 158.599 309.985C160.852 310.819 163.021 309.151 163.771 307.148C165.106 303.478 162.27 298.472 161.102 295.052C160.852 295.219 160.601 295.469 160.351 295.636C162.103 296.72 163.855 297.888 165.69 298.889C166.107 299.14 166.691 298.305 166.107 297.972Z" fill="#FCE39F"/>
<path d="M167.108 288.962C165.273 290.797 163.104 292.132 160.768 293.3C160.184 293.633 160.685 294.468 161.269 294.217C162.937 293.383 164.773 292.883 166.608 292.549C167.275 292.465 167.025 291.464 166.358 291.548C164.439 291.881 162.52 292.465 160.768 293.3C160.935 293.633 161.102 293.884 161.269 294.217C163.688 293.049 165.857 291.548 167.859 289.712C168.36 289.212 167.609 288.461 167.108 288.962Z" fill="#FCE39F"/>
<path d="M158.933 292.966C156.68 291.131 154.678 289.045 152.926 286.709C151.925 285.374 151.007 283.789 150.84 282.037C150.674 279.785 153.76 278.283 155.429 279.618C158.766 282.288 158.432 288.795 159.517 292.632C159.684 293.133 160.351 293.049 160.518 292.632C161.853 289.212 162.937 277.365 168.777 280.285C169.361 280.619 169.945 279.701 169.278 279.368C162.103 275.78 161.102 288.294 159.433 292.299C159.767 292.299 160.101 292.299 160.434 292.299C159.433 288.628 159.183 277.199 153.26 278.033C149.839 278.533 149.339 281.954 150.423 284.54C151.925 288.127 155.262 291.214 158.182 293.633C158.682 294.134 159.433 293.467 158.933 292.966Z" fill="#FCE39F"/>
<path d="M121.808 297.221C122.058 298.472 122.225 299.807 122.058 301.058C121.975 301.726 123.06 301.726 123.06 301.058C123.226 299.64 123.06 298.305 122.726 296.887C122.726 296.303 121.725 296.637 121.808 297.221Z" fill="#FCE39F"/>
<path d="M122.225 288.795C125.229 287.71 128.649 286.792 131.819 287.376C135.49 288.127 134.989 292.799 131.819 294.051C128.816 295.219 124.811 292.132 122.392 290.547C121.808 290.213 121.308 291.047 121.891 291.464C124.895 293.383 128.399 295.802 132.153 295.052C134.906 294.468 136.074 291.298 135.24 288.878C133.571 284.123 125.145 286.626 121.975 287.794C121.307 288.044 121.558 289.045 122.225 288.795Z" fill="#FCE39F"/>
<path d="M122.476 279.952C123.226 278.033 124.228 276.114 125.896 274.946C127.481 273.778 128.733 275.196 129.483 276.448C130.234 277.699 129.984 279.117 129.483 280.369C128.065 283.622 124.478 286.042 121.558 287.877C120.974 288.211 121.474 289.128 122.058 288.795C125.896 286.459 132.487 281.87 130.651 276.531C129.901 274.529 127.982 272.86 125.813 273.778C123.56 274.696 122.142 277.616 121.391 279.701C121.224 280.285 122.225 280.536 122.476 279.952Z" fill="#FCE39F"/>
<path d="M175.535 235.235C174.116 234.818 172.615 234.401 171.029 234.151C170.529 234.401 170.028 234.651 169.528 234.902C171.613 235.152 173.783 235.903 175.284 236.32C175.952 236.403 176.202 235.402 175.535 235.235Z" fill="#FCE39F"/>
<path d="M167.275 241.993C164.105 242.326 163.021 239.073 164.355 236.82C163.855 236.987 163.354 237.154 162.854 237.238C162.437 238.739 162.687 240.408 163.605 241.659C166.358 245.413 172.615 241.659 175.785 239.407C175.785 239.323 175.785 239.24 175.868 239.24C175.785 238.823 175.868 238.489 175.952 238.072C173.365 239.907 170.362 241.743 167.275 241.993Z" fill="#FCE39F"/>
<path d="M175.618 240.074C175.618 239.74 175.701 239.49 175.785 239.156C175.701 238.823 175.701 238.572 175.785 238.239C172.782 241.659 168.276 247.749 171.447 252.087C172.114 253.005 173.032 253.672 174.033 253.923C174.033 253.589 174.033 253.172 174.116 252.838C173.532 252.588 173.032 252.254 172.531 251.837C171.447 250.919 171.28 249.418 171.363 248.083C171.78 245.246 173.699 242.41 175.618 240.074Z" fill="#FCE39F"/>
<path d="M125.145 332.26C128.065 331.509 130.985 331.092 133.905 331.843C134.572 332.009 134.823 331.008 134.155 330.841C131.068 330.007 127.898 330.424 124.811 331.259C124.228 331.425 124.478 332.427 125.145 332.26Z" fill="#FCE39F"/>
<path d="M134.406 331.008C132.654 329.59 131.068 328.005 129.567 326.336C128.649 325.252 127.815 324.084 127.147 322.833C125.896 320.497 127.231 316.158 130.485 317.66C134.072 319.245 133.738 327.421 134.906 330.675C135.073 331.092 135.657 331.259 135.824 330.758C137.242 327.588 137.659 324.084 139.161 320.914C139.661 319.829 140.329 318.995 141.246 318.328C144.417 318.244 145.918 319.412 145.585 321.748C145.501 322.833 145.167 323.834 144.667 324.751C142.998 327.922 139.495 330.174 136.491 331.843C135.907 332.176 136.408 333.011 136.992 332.76C139.912 331.342 143.249 330.508 146.502 330.675C148.671 330.758 150.09 331.843 150.34 334.178C150.757 338.266 145.835 337.599 143.916 337.098C141.08 336.264 138.577 334.262 136.157 332.76C135.74 332.51 135.24 332.927 135.407 333.344C136.157 335.513 136.992 337.682 137.659 339.851C138.16 341.52 138.41 343.188 138.076 344.94C137.409 348.695 133.655 347.276 133.071 345.024C132.236 341.353 133.488 337.098 134.072 333.428C134.155 332.927 133.571 332.51 133.238 332.927C131.068 335.346 128.649 337.265 125.479 338.183C124.812 338.35 125.145 339.351 125.729 339.184C129.066 338.266 131.652 336.264 133.988 333.678C133.738 333.511 133.404 333.344 133.154 333.177C132.654 336.264 129.65 346.609 133.988 348.111C136.241 348.945 138.41 347.276 139.161 345.274C140.496 341.603 137.659 336.598 136.491 333.177C136.241 333.344 135.991 333.595 135.74 333.761C138.744 335.68 143.165 339.434 147.086 338.683C149.756 338.266 152.259 336.097 151.341 333.094C149.506 327.254 140.412 330.091 136.575 331.926C136.741 332.26 136.908 332.51 137.075 332.844C140.829 330.758 152.342 321.331 144.25 317.326C137.993 314.24 136.408 327.338 135.073 330.341C135.407 330.341 135.74 330.424 135.991 330.424C134.739 326.754 134.906 315.324 128.649 316.492C119.806 318.244 131.068 329.673 133.655 331.759C134.239 332.176 134.906 331.425 134.406 331.008Z" fill="#FCE39F"/>
<path d="M153.176 373.973C151.424 374.974 149.589 375.808 147.503 375.224C145.918 374.807 144.5 373.055 145.418 371.47C145.751 370.886 146.502 370.469 147.086 370.135C149.339 368.967 152.175 368.884 154.678 368.8C155.345 368.8 155.345 367.716 154.678 367.799C151.758 367.883 145.501 367.966 144.25 371.386C143.582 373.305 144.75 375.224 146.586 375.975C149.005 376.976 151.424 376.142 153.594 374.807C154.261 374.473 153.76 373.556 153.176 373.973Z" fill="#FCE39F"/>
<path d="M155.679 365.38C153.76 363.378 151.758 361.292 151.007 358.539C150.006 355.035 154.761 353.2 156.346 356.453C156.68 357.037 157.514 356.537 157.264 355.953C155.846 353.116 151.758 352.949 150.173 355.786C148.254 359.373 152.759 363.795 154.928 366.131C155.429 366.631 156.18 365.88 155.679 365.38Z" fill="#FCE39F"/>
<path d="M126.897 401.336C129.817 400.585 132.737 400.168 135.657 400.919C136.324 401.086 136.575 400.085 135.907 399.918C132.82 399.084 129.65 399.501 126.563 400.335C125.979 400.502 126.23 401.503 126.897 401.336Z" fill="#FCE39F"/>
<path d="M136.241 400.085C134.406 398.583 132.737 396.915 131.152 395.079C129.984 393.745 128.983 392.243 128.399 390.574C127.481 388.238 129.901 385.152 132.403 386.487C136.074 388.405 135.824 396.247 136.825 399.751C136.992 400.252 137.659 400.252 137.826 399.751C138.744 397.332 139.244 394.746 139.912 392.243C140.412 390.491 141.163 389.156 142.665 388.072C144.917 386.486 147.337 387.488 147.67 390.324C147.754 390.991 148.755 390.991 148.671 390.324C148.338 387.321 146.586 385.652 143.499 386.487C138.327 387.821 138.41 395.496 136.825 399.501C137.159 399.501 137.492 399.501 137.826 399.501C136.992 396.498 136.324 383.817 130.818 385.235C121.641 387.488 132.32 398.25 135.574 400.919C135.991 401.253 136.742 400.502 136.241 400.085Z" fill="#FCE39F"/>
<path d="M125.979 406.592C126.396 356.954 122.475 307.482 122.392 257.844C122.392 256.509 120.306 256.509 120.306 257.844C120.39 307.482 124.311 356.954 123.894 406.592C123.894 407.927 125.979 407.927 125.979 406.592Z" fill="#092E37"/>
<path d="M115.718 258.928C120.891 259.429 125.813 257.76 130.818 256.509C132.153 256.175 131.569 254.173 130.234 254.507C125.479 255.675 120.724 257.427 115.718 256.843C114.383 256.676 114.383 258.761 115.718 258.928Z" fill="#092E37"/>
<path d="M205.985 74.8074C205.568 72.5549 205.067 70.3024 204.233 68.1333C203.983 67.5493 202.982 67.7996 203.232 68.3836C204.066 70.5526 204.567 72.8051 204.984 75.0576C205.067 75.7251 206.068 75.4748 205.985 74.8074Z" fill="#EDC037"/>
<path d="M220.251 72.8884C220.751 71.3868 221.168 69.8851 222.003 68.5503C222.336 67.9663 221.502 67.4658 221.085 68.0497C220.167 69.468 219.75 71.0531 219.25 72.6382C219.083 73.2222 220.084 73.4724 220.251 72.8884Z" fill="#EDC037"/>
<path d="M234.517 80.2299C235.601 79.1454 236.602 78.1443 237.687 77.0598C238.187 76.5592 237.437 75.8084 236.936 76.3089C235.852 77.3935 234.85 78.3946 233.766 79.4791C233.265 79.9797 234.016 80.7305 234.517 80.2299Z" fill="#EDC037"/>
<path d="M240.357 94.7461C241.858 94.7461 243.36 94.7461 244.861 94.7461C245.529 94.7461 245.529 93.7449 244.861 93.7449C243.36 93.7449 241.858 93.7449 240.357 93.7449C239.689 93.6615 239.689 94.7461 240.357 94.7461Z" fill="#EDC037"/>
<path d="M235.434 108.344C236.686 110.013 237.937 111.681 239.689 113.016C240.19 113.433 240.774 112.516 240.19 112.099C238.605 110.931 237.52 109.346 236.352 107.844C235.935 107.26 235.017 107.844 235.434 108.344Z" fill="#EDC037"/>
<path d="M65.9128 467.159C84.2665 467.493 116.386 441.214 123.56 416.186C123.977 414.601 125.145 422.777 124.645 424.362C119.639 439.462 99.033 465.324 79.9284 469.662C71.5024 471.414 65.9128 467.159 65.9128 467.159Z" fill="#092E37"/>
<path d="M88.6046 410.68C88.6046 416.937 63.7437 442.215 73.5045 447.554C76.6747 449.223 80.5958 447.304 82.5146 445.635C86.6859 441.714 90.8571 436.292 94.2776 431.87C98.0318 427.115 101.536 420.441 102.036 414.434C102.286 410.93 101.703 407.176 98.6157 405.257C97.1975 404.256 92.7759 403.589 91.2743 405.007C90.1063 405.841 88.4378 408.678 88.6046 410.68Z" fill="#092E37"/>
<path d="M159.934 414.518C159.267 414.434 149.756 409.345 147.837 408.01C143.666 405.091 139.244 402.004 138.41 396.581C137.826 393.077 139.828 388.656 144 388.822C148.421 388.989 147.921 394.996 150.006 397.332C153.343 401.253 157.848 403.255 161.769 406.175C163.855 407.593 166.107 410.513 165.941 413.099C165.774 415.602 162.27 415.185 159.934 414.518Z" fill="#114C56"/>
<path d="M69.6669 439.962C76.0072 440.129 81.1796 442.966 84.6835 448.305C85.0172 448.889 85.9349 448.305 85.6012 447.805C81.9305 442.132 76.4244 439.045 69.7503 438.961C68.9995 438.878 68.9994 439.962 69.6669 439.962Z" fill="#07EDB7"/>
<path d="M73.004 433.122C76.6747 433.205 80.0118 433.622 83.3488 435.374C86.1853 436.876 88.2709 439.879 90.6068 441.965C91.1074 442.382 91.8582 441.631 91.3577 441.214C88.5212 438.711 86.2687 435.708 82.8482 433.956C79.8449 432.371 76.341 432.121 73.004 432.037C72.3366 432.037 72.3366 433.122 73.004 433.122Z" fill="#07EDB7"/>
<path d="M78.4266 425.363C85.6013 425.53 91.3576 428.366 96.4466 433.455C96.9472 433.956 97.698 433.205 97.1975 432.704C91.9416 427.532 85.935 424.529 78.5101 424.362C77.7592 424.278 77.7592 425.363 78.4266 425.363Z" fill="#07EDB7"/>
<path d="M82.8482 418.689C89.0217 418.772 96.7803 419.607 100.451 425.28C100.785 425.864 101.702 425.28 101.369 424.779C97.4477 418.772 89.4389 417.771 82.8482 417.688C82.1808 417.604 82.1808 418.689 82.8482 418.689Z" fill="#07EDB7"/>
<path d="M163.354 406.342C158.933 407.51 156.847 411.848 155.512 415.852C155.262 416.52 156.263 416.77 156.513 416.103C157.765 412.432 159.6 408.427 163.688 407.26C164.272 407.176 164.022 406.175 163.354 406.342Z" fill="#07EDB7"/>
<path d="M159.934 404.006C155.846 404.757 152.592 407.927 151.091 411.765C150.84 412.432 151.841 412.682 152.092 412.015C153.426 408.511 156.513 405.674 160.184 405.007C160.851 404.924 160.518 403.923 159.934 404.006Z" fill="#07EDB7"/>
<path d="M155.596 401.336C151.591 402.004 147.837 405.508 146.085 409.095C145.751 409.679 146.669 410.263 147.003 409.595C148.588 406.258 152.092 402.921 155.846 402.337C156.513 402.254 156.263 401.253 155.596 401.336Z" fill="#07EDB7"/>
<path d="M152.425 398.333C147.754 398.25 144.333 401.753 142.247 405.508C141.914 406.092 142.831 406.592 143.165 406.008C145.084 402.504 148.171 399.251 152.425 399.334C153.093 399.334 153.093 398.333 152.425 398.333Z" fill="#07EDB7"/>
<path d="M110.295 46.7761C109.795 56.3701 112.715 66.2978 117.136 74.8072C120.807 81.8984 127.064 88.7394 135.574 88.8228C149.839 89.0731 148.004 63.0442 148.004 54.2845C148.004 53.6171 146.919 53.6171 147.003 54.2845C147.003 63.2945 148.922 87.1543 135.657 87.8217C126.73 88.3222 120.557 79.3122 117.136 72.3879C113.299 64.7127 110.963 55.4524 111.38 46.7761C111.38 46.1087 110.295 46.1087 110.295 46.7761Z" fill="#FCE39F"/>
<path d="M112.715 31.0086C114.383 43.4391 118.638 60.7917 133.738 62.4602C143.332 63.2945 152.008 52.9497 154.261 44.9408C159.266 26.6705 155.429 11.8207 136.992 9.81846C127.231 8.9842 112.298 10.8196 112.298 29.5904" fill="#99D5EC"/>
<path d="M139.077 2.81068C164.439 -4.8645 161.018 37.5993 164.773 50.3635C161.269 50.9474 154.928 50.6972 151.424 51.1977C151.424 51.1977 155.846 44.9408 156.013 27.0876C155.512 24.418 154.928 20.7472 153.009 18.5782L152.426 18.3279C151.842 20.7473 151.091 23.25 149.672 25.4191L149.088 25.6694C147.17 22.9163 145.835 17.7439 143.666 14.24H143.416C143.416 18.3279 142.081 24.5849 138.827 26.7539C138.827 24.0009 136.658 19.4124 135.573 15.8251L135.323 15.2411C133.988 20.4135 131.235 26.17 126.897 28.8396V28.2556C126.647 26.3368 126.063 20.3301 124.144 17.6605V17.9108C122.225 30.1744 122.559 44.3568 124.478 56.537C118.721 57.121 91.1075 46.7761 90.2732 40.1855C94.3611 27.6716 103.121 11.0699 115.384 3.72837C119.973 0.975316 124.895 -0.609787 130.401 0.224472C133.321 0.89188 136.575 3.89522 139.077 2.81068Z" fill="#092E37"/>
<path d="M142.498 43.9397C145.251 44.2734 147.587 43.5225 148.671 40.8529C150.423 36.6816 146.586 32.6772 145.835 28.7562C145.751 28.0887 144.75 28.339 144.834 29.0064C145.334 31.5926 146.753 33.6783 147.587 36.0976C148.922 40.1855 146.669 43.3557 142.498 42.8551C141.83 42.8551 141.83 43.8562 142.498 43.9397Z" fill="#092E37"/>
<path d="M139.912 49.6961C134.155 50.864 131.319 44.2734 131.152 39.6015C131.152 38.9341 130.067 38.9341 130.151 39.6015C130.234 45.1076 133.738 52.032 140.245 50.6971C140.829 50.5303 140.579 49.5292 139.912 49.6961Z" fill="#092E37"/>
</svg>
