<svg width="15" height="15" viewBox="0 0 15 15" fill="none" xmlns="http://www.w3.org/2000/svg">
<path fill-rule="evenodd" clip-rule="evenodd" d="M14.9103 2.14043V13.3141C14.9103 13.7375 14.7421 14.1435 14.4427 14.4429C14.1434 14.7422 13.7374 14.9104 13.314 14.9104H10.3211C10.2152 14.9104 10.1137 14.8683 10.0389 14.7935C9.96404 14.7187 9.922 14.6172 9.922 14.5113V9.72259H11.7896C11.8816 9.72261 11.9708 9.69085 12.042 9.63267C12.1133 9.57449 12.1623 9.49348 12.1807 9.40334L12.468 7.96672C12.4739 7.93806 12.4733 7.90845 12.4665 7.88001C12.4596 7.85157 12.4466 7.82498 12.4283 7.80213C12.41 7.77929 12.387 7.76074 12.3607 7.7478C12.3345 7.73487 12.3057 7.72787 12.2765 7.72729H9.922V5.13339C9.922 5.08047 9.94302 5.02972 9.98044 4.9923C10.0179 4.95488 10.0686 4.93386 10.1215 4.93386H12.1168C12.2227 4.93386 12.3242 4.89182 12.399 4.81698C12.4739 4.74214 12.5159 4.64064 12.5159 4.5348V3.33762C12.5159 3.23178 12.4739 3.13028 12.399 3.05544C12.3242 2.9806 12.2227 2.93856 12.1168 2.93856H10.1215C9.48651 2.93856 8.87749 3.19082 8.42846 3.63985C7.97943 4.08888 7.72717 4.6979 7.72717 5.33292V7.72729H6.74548C6.63964 7.72729 6.53814 7.76933 6.4633 7.84417C6.38846 7.91901 6.34642 8.02051 6.34642 8.12635V9.32353C6.34642 9.42937 6.38846 9.53087 6.4633 9.60571C6.53814 9.68055 6.63964 9.72259 6.74548 9.72259H7.72717V14.5113C7.72717 14.6172 7.68512 14.7187 7.61028 14.7935C7.53545 14.8683 7.43394 14.9104 7.3281 14.9104H2.14031C1.71696 14.9104 1.31095 14.7422 1.0116 14.4429C0.712243 14.1435 0.544067 13.7375 0.544067 13.3141V2.14043C0.544067 1.71708 0.712243 1.31107 1.0116 1.01172C1.31095 0.712365 1.71696 0.544189 2.14031 0.544189H13.314C13.7374 0.544189 14.1434 0.712365 14.4427 1.01172C14.7421 1.31107 14.9103 1.71708 14.9103 2.14043Z" fill="white"/>
</svg>
