<svg width="15" height="16" viewBox="0 0 15 16" fill="none" xmlns="http://www.w3.org/2000/svg">
<path d="M11.5382 5.34968C12.0143 5.34968 12.4002 4.96376 12.4002 4.4877C12.4002 4.01165 12.0143 3.62573 11.5382 3.62573C11.0622 3.62573 10.6763 4.01165 10.6763 4.4877C10.6763 4.96376 11.0622 5.34968 11.5382 5.34968Z" fill="white"/>
<path d="M7.81726 11.7681C5.83652 11.7681 4.22571 10.1573 4.22571 8.17651C4.22571 6.19577 5.83652 4.58496 7.81726 4.58496C9.798 4.58496 11.4088 6.19577 11.4088 8.17651C11.4088 10.1573 9.798 11.7681 7.81726 11.7681ZM7.81726 6.38074C6.82689 6.38074 6.02148 7.18614 6.02148 8.17651C6.02148 9.16688 6.82689 9.97229 7.81726 9.97229C8.80763 9.97229 9.61303 9.16688 9.61303 8.17651C9.61303 7.18614 8.80763 6.38074 7.81726 6.38074Z" fill="white"/>
<path d="M11.4084 15.3591H4.22534C2.37928 15.3591 0.633789 13.6136 0.633789 11.7676V4.58447C0.633789 2.73841 2.37928 0.99292 4.22534 0.99292H11.4084C13.2545 0.99292 15 2.73841 15 4.58447V11.7676C15 13.6136 13.2545 15.3591 11.4084 15.3591ZM4.22534 2.78869C3.38581 2.78869 2.42956 3.74494 2.42956 4.58447V11.7676C2.42956 12.6233 3.36965 13.5633 4.22534 13.5633H11.4084C12.248 13.5633 13.2042 12.6071 13.2042 11.7676V4.58447C13.2042 3.74494 12.248 2.78869 11.4084 2.78869H4.22534Z" fill="white"/>
</svg>
