<svg width="259" height="51" viewBox="0 0 259 51" fill="none" xmlns="http://www.w3.org/2000/svg">
<path d="M0.0610902 24.7908C0.122177 24.2975 0.122175 23.8658 0.183261 23.3724C0.610866 18.0689 2.50455 13.3821 5.8643 9.2503C9.10189 5.24184 13.1947 2.52842 18.0816 1.04837C19.9142 0.493349 21.8079 0.123337 23.7626 0.0616687C24.2513 0.0616687 24.8011 0 25.2898 0C25.2898 1.72672 25.2898 3.33011 25.2898 5.1185C25.0455 5.1185 24.8011 5.1185 24.5568 5.1185C19.3033 5.36518 14.7218 7.33857 10.9956 11.1004C7.88015 14.1838 6.04756 17.9456 5.31452 22.2624C3.72627 32.1294 9.52949 41.7497 18.9368 44.8948C21.4413 45.7582 24.0681 46.0665 26.6948 45.8815C31.765 45.5115 36.1021 43.4764 39.7062 39.838C41.0501 38.4813 41.9664 36.8162 42.7605 35.0278C43.9823 32.2527 44.7764 29.2926 45.3261 26.3325C45.3872 26.2092 45.3872 26.0242 45.3872 25.9008C45.3872 25.5925 45.5705 25.5308 45.8148 25.5308C47.4031 25.5308 48.9303 25.5308 50.5185 25.5308C50.5185 25.7775 50.5185 26.0859 50.5185 26.3325C50.5185 26.5175 50.4574 26.6409 50.4574 26.8259C50.3963 28.4293 50.152 29.971 49.7855 31.5127C48.3194 37.4946 45.1429 42.3047 40.256 46.0048C36.713 48.7183 32.6813 50.26 28.283 50.815C27.7943 50.8767 27.3057 50.9383 26.817 51C25.7785 51 24.74 51 23.7015 51C23.5794 51 23.5183 50.9383 23.3961 50.9383C21.5635 50.815 19.7309 50.5066 18.0205 49.9516C13.5612 48.5949 9.77384 46.1898 6.65843 42.7364C2.80998 38.4196 0.610867 33.4244 0.122176 27.6276C0.0610893 27.1342 0.0610865 26.7025 0 26.2092C0.0610865 25.7158 0.0610902 25.2842 0.0610902 24.7908Z" fill="white"/>
<path d="M11.3625 25.4074C10.1408 25.4074 8.91905 25.4074 7.63623 25.4074C7.63623 25.0991 7.63623 24.7907 7.63623 24.4824C7.81949 21.6456 8.55253 18.9322 10.0186 16.4654C12.7064 11.902 16.677 9.00354 21.8083 7.8935C23.2744 7.58516 24.8015 7.52349 26.3287 7.52349C26.6952 7.52349 27.1228 7.52349 27.4893 7.52349C27.7948 7.52349 27.8559 7.46182 27.8559 7.15348C27.7948 6.53679 27.8559 5.98177 27.8559 5.36508C27.8559 5.30341 27.8559 5.24175 27.8559 5.11841C32.6817 5.79676 36.7745 7.8935 40.1342 11.532C43.0664 14.6771 44.7768 18.4388 45.3266 22.8173C44.7768 22.8173 44.2881 22.8173 43.7383 22.8173C43.494 22.8173 43.1275 22.7557 43.0053 22.879C42.8831 23.064 42.9442 23.3723 42.9442 23.6807C42.9442 24.7291 42.9442 25.7774 42.8831 26.8875C42.6999 29.7242 41.8447 32.3143 40.3786 34.7194C37.6908 39.0362 33.8423 41.8113 28.8943 42.8596C27.7337 43.1063 26.573 43.2297 25.3513 43.2297C25.3513 43.1063 25.3513 43.0447 25.3513 42.9213C25.3513 41.8729 25.3513 40.8246 25.3513 39.7762C25.3513 39.5295 25.4124 39.4679 25.6567 39.4679C31.9486 39.2829 37.3243 34.9661 38.8514 28.7992C40.684 21.2139 35.9804 13.5054 28.4667 11.7786C21.5639 10.1752 14.6001 13.9987 12.2177 20.7823C11.729 22.2006 11.4847 23.619 11.4236 25.0991C11.3625 25.2224 11.3625 25.2841 11.3625 25.4074Z" fill="white"/>
<path d="M33.964 20.3507C34.3306 20.7824 34.9414 22.2007 35.0025 22.8791C33.4753 23.3724 32.8034 24.2358 32.8034 25.4692C32.8034 26.7026 33.5364 27.5659 35.0025 27.9976C34.7582 28.9226 34.4527 29.786 33.964 30.5877C32.498 29.9093 31.3984 29.971 30.5432 30.896C29.8712 31.5744 29.4436 32.8694 30.3599 34.2261C29.5658 34.7195 28.7106 35.0895 27.7943 35.2745C27.4278 33.8561 26.6337 33.0544 25.1676 33.0544C23.8237 33.0544 23.0296 33.9178 22.663 35.2745C21.7467 35.0278 20.8915 34.6578 20.0974 34.2261C20.7694 32.8694 20.7083 31.7594 19.8531 30.896C18.9978 29.971 17.9594 29.9093 16.4933 30.5877C16.0046 29.786 15.6381 28.9226 15.4548 27.9976C16.249 27.8126 16.9209 27.4426 17.2874 26.7642C17.5318 26.2709 17.654 25.7775 17.654 25.2225C17.5318 24.0508 16.7987 23.2491 15.4548 22.8791C15.6992 21.9541 16.0657 21.0907 16.4933 20.289C17.1653 20.7207 17.8372 20.9057 18.6313 20.7207C19.1811 20.5974 19.6087 20.3507 19.9752 19.919C20.5861 19.179 20.9526 17.8839 20.0974 16.6506C20.8915 16.1572 21.7467 15.7872 22.663 15.5405C22.8463 16.3422 23.2128 16.9589 23.8848 17.3906C24.3124 17.6373 24.8011 17.7606 25.3508 17.7606C26.5726 17.6373 27.4278 16.8972 27.7332 15.5405C28.6495 15.7872 29.5047 16.1572 30.2988 16.5889C29.8712 17.2672 29.688 17.9456 29.8712 18.7473C29.9934 19.2406 30.2378 19.734 30.6654 20.104C31.6427 20.9674 32.6812 21.029 33.964 20.3507ZM25.2898 29.2926C27.3056 29.3543 29.0771 27.6276 29.1382 25.5309C29.1993 23.3725 27.55 21.5841 25.4119 21.5841C23.2739 21.5224 21.5635 23.2491 21.5024 25.4075C21.4413 27.5659 23.1517 29.2926 25.2898 29.2926Z" fill="white"/>
<path d="M142.377 20.5696C143.354 19.8296 144.209 18.9662 145.187 18.3495C146.958 17.3012 148.913 17.1162 150.99 17.5478C154.289 18.2262 156.427 20.3229 157.709 23.283C158.687 25.5648 158.87 27.9699 158.32 30.4366C157.893 32.4717 157.099 34.3217 155.694 35.8018C153.372 38.2069 150.623 38.8235 147.447 38.0835C145.675 37.6518 144.393 36.5418 143.11 35.0001C143.049 35.4934 142.927 35.7401 142.927 35.9868C142.927 39.0702 142.927 42.092 142.927 45.1754C142.927 46.2854 142.927 46.2854 141.766 46.2854C140.605 46.2854 139.445 46.2854 138.345 46.2854C137.856 46.2854 137.673 46.1004 137.673 45.6688C137.673 45.4838 137.673 45.3604 137.673 45.1754C137.673 36.3568 137.673 27.4765 137.673 18.6579C137.673 17.6712 137.673 17.6712 138.65 17.6712C139.139 17.6712 139.689 17.6712 140.178 17.6712C142.132 17.6712 142.132 17.6712 142.194 19.6446C142.194 19.8913 142.193 20.1996 142.255 20.4463C142.316 20.5079 142.377 20.5696 142.377 20.5696ZM142.927 27.5382C142.743 29.1416 142.988 30.6216 144.148 31.9783C145.981 34.1367 149.096 34.6301 151.051 32.78C153.067 30.93 153.678 28.6482 152.945 25.9348C152.151 22.913 148.913 21.0013 145.859 22.173C144.148 22.8514 142.927 24.5164 142.927 26.4281C142.927 26.7981 142.927 27.1682 142.927 27.5382Z" fill="white"/>
<path d="M88.0714 16.3142C86.7275 17.2392 85.4447 18.1026 84.2229 18.9659C84.1008 19.0276 83.6731 18.8426 83.6121 18.7193C82.0849 15.9442 78.8473 14.7108 75.793 15.3275C73.0441 15.8825 71.3337 17.6092 70.2341 20.076C69.44 21.8027 69.2567 23.6528 69.5011 25.4412C69.9287 29.0796 71.8835 32.2247 75.6708 33.2731C78.5419 34.0131 82.0238 32.8414 83.6121 30.0663C84.0397 29.3879 84.1008 29.3263 84.8338 29.758C85.8112 30.313 86.7886 30.9297 87.827 31.4847C88.2546 31.7314 88.4379 31.9164 88.1935 32.4714C87.2772 34.2598 85.8723 35.4932 84.1618 36.4182C81.0464 38.2066 77.6867 38.6999 74.2047 37.8982C71.578 37.2815 69.5011 35.8015 67.7296 33.7664C65.225 30.9297 63.9422 27.5996 64.0033 23.8378C64.1255 18.3493 66.9355 13.4774 72.3722 11.2574C74.8767 10.209 77.5645 10.1473 80.2523 10.6407C82.7568 11.134 84.8949 12.3057 86.6053 14.2175C87.0329 14.7725 87.4605 15.5125 88.0714 16.3142Z" fill="white"/>
<path d="M180.373 19.1511C179.823 18.4727 179.335 17.7327 178.724 17.116C176.952 15.3893 174.814 14.8343 172.493 15.2043C168.828 15.7593 166.934 18.2261 166.079 21.6795C165.224 25.0096 165.896 28.093 168.095 30.7448C169.989 33.0265 172.493 33.8282 175.364 33.2732C177.441 32.8415 179.09 31.7315 180.129 29.8198C180.434 29.3264 180.679 29.3881 181.045 29.5731C182.145 30.1898 183.183 30.8065 184.283 31.4848C184.649 31.6698 184.771 31.9782 184.527 32.4099C183.672 34.1366 182.328 35.3083 180.74 36.295C178.235 37.775 175.486 38.4534 172.554 38.2684C169.133 38.0217 166.323 36.3567 164.002 33.8282C162.536 32.1632 161.498 30.3131 160.887 28.2164C160.215 25.8113 160.154 23.3446 160.703 20.8161C161.436 17.7944 162.902 15.266 165.346 13.2926C167.667 11.4425 170.294 10.4558 173.287 10.3941C175.731 10.3325 178.052 10.7641 180.129 11.9975C181.778 12.9226 183.122 14.2176 184.038 15.8826C184.283 16.3143 184.161 16.561 183.855 16.746C182.756 17.5477 181.534 18.3494 180.373 19.1511Z" fill="white"/>
<path d="M257.159 33.0885C256.304 35.0002 254.96 36.2953 253.249 37.1586C249.462 39.0087 245.675 39.0087 242.009 36.8503C239.138 35.1852 237.672 32.4718 237.306 29.2034C236.756 24.5166 239.016 20.0764 243.414 18.2263C245.613 17.3013 247.935 17.1163 250.256 17.6713C252.699 18.2263 254.654 19.3981 256.181 21.3098C257.953 23.5915 258.381 26.2433 258.136 29.08C258.136 29.265 257.831 29.45 257.647 29.5734C257.464 29.6351 257.22 29.5734 256.976 29.5734C252.455 29.5734 247.996 29.5734 243.475 29.5734C242.62 29.5734 242.498 29.6967 242.742 30.5601C243.475 33.2735 245.797 34.7536 248.24 34.5685C249.951 34.4452 251.356 33.8285 252.333 32.3485C252.455 32.1635 252.822 31.9168 253.005 31.9168C254.471 32.2251 255.815 32.6568 257.159 33.0885ZM247.751 26.0583C249.218 26.0583 250.684 26.0583 252.211 26.0583C252.944 26.0583 253.005 25.9349 252.883 25.2566C252.211 22.1731 248.973 20.3231 246.041 21.4331C244.27 22.1115 243.231 23.4065 242.803 25.2566C242.681 25.8116 242.865 26.0583 243.475 26.0583C244.88 26.0583 246.346 26.0583 247.751 26.0583Z" fill="white"/>
<path d="M123.257 17.2395C128.022 17.4245 131.382 19.0896 133.214 23.0364C134.68 26.1815 134.68 29.3882 133.275 32.5333C132.115 35.1234 130.16 36.8501 127.594 37.7752C125.456 38.5152 123.257 38.5769 121.119 38.0835C119.287 37.6518 117.637 36.8501 116.415 35.5551C115.56 34.6301 114.827 33.52 114.277 32.41C113.178 30.1899 113.056 27.7848 113.544 25.4414C114.339 21.8646 116.415 19.2746 119.959 18.0412C121.18 17.6095 122.524 17.4245 123.257 17.2395ZM118.676 28.0315C118.554 29.4499 119.103 30.7449 119.897 31.9783C121.119 33.705 123.868 34.3834 125.762 33.52C127.35 32.78 128.266 31.6083 128.694 29.9432C129.366 27.5998 129.121 25.3798 127.472 23.468C125.762 21.433 122.707 21.248 120.692 23.0364C119.225 24.3314 118.554 25.9964 118.676 28.0315Z" fill="white"/>
<path d="M111.162 27.8466C111.223 33.8284 106.886 38.4536 100.594 38.3919C94.5466 38.3919 90.0262 33.7667 90.1484 27.6615C90.2095 21.8647 94.5466 17.1779 101.022 17.3012C106.703 17.4862 111.162 21.8647 111.162 27.8466ZM100.716 21.8647C99.3725 21.7414 98.1507 22.2964 97.2344 23.2831C94.7299 25.7498 94.8521 30.4983 97.4788 32.78C99.4946 34.5068 102.61 34.3218 104.32 32.225C105.909 30.3133 106.153 28.0932 105.481 25.6882C104.992 23.8381 102.977 21.6797 100.716 21.8647Z" fill="white"/>
<path d="M195.644 32.9645C195.828 32.5944 196.011 32.3478 196.072 32.1011C196.683 30.1277 197.294 28.216 197.905 26.2426C198.454 24.3308 199.004 22.4191 199.615 20.5074C199.859 19.7057 200.104 18.8423 200.409 18.0406C200.47 17.8556 200.776 17.609 201.02 17.609C202.303 17.5473 203.586 17.609 204.868 17.609C205.479 17.609 205.357 18.0406 205.235 18.349C204.807 19.5823 204.38 20.7541 203.952 21.9874C203.219 24.0225 202.547 26.0576 201.814 28.0926C201.142 30.066 200.409 32.1011 199.676 34.0745C199.126 35.7395 198.576 37.3429 198.027 39.008C197.477 40.5497 196.988 42.0914 196.194 43.5098C195.033 45.4832 193.201 46.5932 190.88 46.7166C190.085 46.7782 189.291 46.7166 188.497 46.6549C187.703 46.5932 187.52 46.2849 187.52 45.5449C187.52 44.5582 187.52 43.5715 187.52 42.6464C187.52 42.0914 187.703 41.9064 188.253 42.0298C188.619 42.1531 188.986 42.1531 189.413 42.2148C190.574 42.2764 191.49 41.7831 191.979 40.7347C192.285 40.118 192.529 39.4397 192.773 38.7613C193.14 37.7746 192.59 36.9729 192.285 36.1712C191.49 34.0128 190.635 31.9161 189.78 29.7577C189.108 28.031 188.436 26.2426 187.703 24.5158C186.909 22.4808 186.054 20.384 185.26 18.349C185.076 17.8556 185.199 17.6706 185.748 17.6706C187.092 17.6706 188.436 17.6706 189.78 17.6706C190.208 17.6706 190.391 17.794 190.574 18.2256C191.796 21.7408 193.018 25.1942 194.239 28.7093C194.667 29.9427 195.033 31.1761 195.461 32.3478C195.4 32.4711 195.461 32.6561 195.644 32.9645Z" fill="white"/>
<path d="M224.966 22.5428C224.111 22.8512 223.378 23.0979 222.584 23.3445C221.851 23.5912 221.118 23.8379 220.385 23.9612C220.14 24.0229 219.774 23.8996 219.652 23.7762C217.453 20.7544 212.749 21.3095 211.222 24.8863C210.244 27.168 210.305 29.3881 211.649 31.4848C213.482 34.4449 217.269 34.6916 219.529 32.1015C219.896 31.6698 220.263 31.5465 220.812 31.7315C222.034 32.1632 223.256 32.5332 224.539 32.9032C224.966 33.0265 225.027 33.2732 224.783 33.5815C223.439 35.8633 221.484 37.3433 218.919 37.96C216.719 38.515 214.459 38.515 212.321 37.8367C210 37.0967 208.106 35.6783 206.823 33.5815C205.541 31.4231 204.93 29.018 205.235 26.4896C205.785 22.2962 207.984 19.3361 212.016 17.9177C215.253 16.8077 218.491 16.9927 221.484 18.7194C222.95 19.6444 224.111 20.8161 224.966 22.5428Z" fill="white"/>
<path d="M227.165 22.111C227.165 18.2875 227.165 14.4641 227.165 10.7023C227.165 9.71558 227.226 9.71558 228.142 9.71558C229.242 9.71558 230.341 9.71558 231.441 9.71558C232.113 9.71558 232.296 9.96225 232.296 10.5789C232.296 12.429 232.296 14.2791 232.296 16.1291C232.296 21.0009 232.296 25.8111 232.296 30.6829C232.296 30.9296 232.296 31.1146 232.296 31.3613C232.357 33.5197 233.64 34.198 235.656 33.5197C236.267 33.273 236.511 33.3964 236.572 34.013C236.755 34.8764 236.878 35.8014 237 36.6648C237.061 37.1581 236.878 37.4048 236.389 37.5898C234.923 38.0832 233.396 38.3915 231.807 38.3299C228.875 38.2065 227.043 36.5415 227.043 33.5197C227.165 29.6962 227.165 25.9344 227.165 22.111Z" fill="white"/>
</svg>
