<svg width="15" height="13" viewBox="0 0 15 13" fill="none" xmlns="http://www.w3.org/2000/svg">
<path d="M14.676 1.68667C14.1373 1.95604 13.5985 2.04583 12.97 2.13562C13.5985 1.77646 14.0475 1.23773 14.2271 0.519421C13.6883 0.878576 13.0598 1.05815 12.3415 1.23773C11.8028 0.698999 10.9947 0.339844 10.1866 0.339844C8.66017 0.339844 7.31334 1.68667 7.31334 3.30287C7.31334 3.57224 7.31334 3.75182 7.40312 3.93139C4.97883 3.8416 2.73411 2.67435 1.29749 0.878576C1.02812 1.32752 0.938336 1.77646 0.938336 2.40498C0.938336 3.39266 1.47707 4.29055 2.28517 4.82928C1.83622 4.82928 1.38728 4.6497 0.938336 4.47012C0.938336 5.90674 1.92601 7.074 3.27284 7.34336C3.00348 7.43315 2.73411 7.43315 2.46474 7.43315C2.28517 7.43315 2.10559 7.43315 1.92601 7.34336C2.28517 8.51062 3.36263 9.40851 4.70946 9.40851C3.72179 10.2166 2.46474 10.6655 1.02812 10.6655H0.309814C1.65665 11.4736 3.18305 12.0124 4.79925 12.0124C10.1866 12.0124 13.1496 7.52294 13.1496 3.66203V3.30287C13.7781 2.85393 14.3169 2.3152 14.676 1.68667Z" fill="white"/>
</svg>
