<svg width="22" height="18" viewBox="0 0 22 18" fill="none" xmlns="http://www.w3.org/2000/svg">
<path fill-rule="evenodd" clip-rule="evenodd" d="M6.96713 17.9984C8.65672 18.0138 10.3324 17.6895 11.8963 17.0444C13.4603 16.3992 14.8811 15.4463 16.0758 14.2412C17.2705 13.0361 18.2151 11.6029 18.8546 10.0255C19.494 8.44804 19.8154 6.75789 19.8 5.05377V4.43801C20.654 3.78222 21.3969 2.99118 22 2.09566C21.1803 2.45502 20.3171 2.70356 19.4329 2.83484C20.3419 2.25907 21.031 1.39002 21.3881 0.369051C20.5052 0.864957 19.5598 1.23816 18.5776 1.47852C18.164 1.00894 17.6554 0.634076 17.0863 0.379089C16.5171 0.124103 15.9004 -0.00510088 15.2776 0.000154098C14.0839 0.018403 12.9441 0.504824 12.0998 1.35631C11.2556 2.20779 10.7733 3.3574 10.7552 4.56144C10.7275 4.89513 10.7692 5.23099 10.8776 5.54748C9.07895 5.45993 7.3196 4.98564 5.71747 4.15639C4.11534 3.32715 2.70745 2.16211 1.58812 0.739335C1.18589 1.45319 0.975449 2.26061 0.977623 3.08169C0.993754 3.82683 1.17826 4.55842 1.51709 5.22076C1.85592 5.88311 2.34014 6.45873 2.93287 6.9038C2.19832 6.88882 1.48107 6.67625 0.855252 6.28804C0.854108 7.34391 1.22064 8.36664 1.89087 9.17774C2.5611 9.98883 3.49246 10.5368 4.52238 10.7259C4.12436 10.8342 3.71141 10.8759 3.3 10.8493C3.0095 10.869 2.71813 10.827 2.44475 10.7259C2.74358 11.6395 3.31488 12.4377 4.08055 13.0113C4.84622 13.585 5.76888 13.9062 6.72237 13.9309C5.1157 15.1966 3.13866 15.8901 1.1 15.9029C0.729101 15.923 0.357466 15.8813 0 15.7795C2.02269 17.261 4.46773 18.0397 6.96713 17.9984Z" fill="#EC1F3E"/>
</svg>
