<svg width="15" height="10" viewBox="0 0 15 10" fill="none" xmlns="http://www.w3.org/2000/svg">
<path d="M3.876 9.168C2.892 9.168 2.104 8.892 1.512 8.34C0.92 7.788 0.624 6.956 0.624 5.844V3.756C0.624 2.668 0.92 1.844 1.512 1.284C2.104 0.716 2.892 0.431999 3.876 0.431999C4.868 0.431999 5.656 0.716 6.24 1.284C6.832 1.844 7.128 2.668 7.128 3.756V5.844C7.128 6.956 6.832 7.788 6.24 8.34C5.656 8.892 4.868 9.168 3.876 9.168ZM3.876 7.92C4.508 7.92 4.972 7.744 5.268 7.392C5.572 7.04 5.724 6.54 5.724 5.892V3.696C5.724 3.04 5.56 2.54 5.232 2.196C4.904 1.852 4.452 1.68 3.876 1.68C3.284 1.68 2.828 1.856 2.508 2.208C2.188 2.56 2.028 3.056 2.028 3.696V5.892C2.028 6.556 2.18 7.06 2.484 7.404C2.796 7.748 3.26 7.92 3.876 7.92ZM8.29781 9V8.028C8.29781 7.436 8.39381 6.952 8.58581 6.576C8.78581 6.192 9.06981 5.88 9.43781 5.64C9.80581 5.392 10.2538 5.188 10.7818 5.028L11.5498 4.788C11.8618 4.684 12.1258 4.56 12.3418 4.416C12.5578 4.272 12.7258 4.096 12.8458 3.888C12.9658 3.672 13.0258 3.42 13.0258 3.132V3.084C13.0258 2.652 12.8778 2.312 12.5818 2.064C12.2858 1.808 11.8898 1.68 11.3938 1.68C10.8978 1.68 10.4938 1.816 10.1818 2.088C9.86981 2.352 9.71381 2.744 9.71381 3.264V3.468H8.32181V3.288C8.32181 2.68 8.45781 2.164 8.72981 1.74C9.00181 1.316 9.36981 0.991999 9.83381 0.767999C10.2978 0.543999 10.8178 0.431999 11.3938 0.431999C11.9698 0.431999 12.4858 0.543999 12.9418 0.767999C13.4058 0.983999 13.7658 1.288 14.0218 1.68C14.2858 2.072 14.4178 2.532 14.4178 3.06V3.18C14.4178 3.716 14.3098 4.168 14.0938 4.536C13.8778 4.904 13.5778 5.208 13.1938 5.448C12.8178 5.68 12.3898 5.872 11.9098 6.024L11.1658 6.252C10.8058 6.364 10.5178 6.484 10.3018 6.612C10.0938 6.74 9.94581 6.888 9.85781 7.056C9.76981 7.216 9.72581 7.42 9.72581 7.668V7.752H14.3458V9H8.29781Z" fill="#4ABAD9"/>
</svg>
