<svg width="15" height="10" viewBox="0 0 15 10" fill="none" xmlns="http://www.w3.org/2000/svg">
<path d="M3.876 9.168C2.892 9.168 2.104 8.892 1.512 8.34C0.92 7.788 0.624 6.956 0.624 5.844V3.756C0.624 2.668 0.92 1.844 1.512 1.284C2.104 0.716 2.892 0.431999 3.876 0.431999C4.868 0.431999 5.656 0.716 6.24 1.284C6.832 1.844 7.128 2.668 7.128 3.756V5.844C7.128 6.956 6.832 7.788 6.24 8.34C5.656 8.892 4.868 9.168 3.876 9.168ZM3.876 7.92C4.508 7.92 4.972 7.744 5.268 7.392C5.572 7.04 5.724 6.54 5.724 5.892V3.696C5.724 3.04 5.56 2.54 5.232 2.196C4.904 1.852 4.452 1.68 3.876 1.68C3.284 1.68 2.828 1.856 2.508 2.208C2.188 2.56 2.028 3.056 2.028 3.696V5.892C2.028 6.556 2.18 7.06 2.484 7.404C2.796 7.748 3.26 7.92 3.876 7.92ZM11.4058 9.168C10.7818 9.168 10.2258 9.056 9.73781 8.832C9.25781 8.608 8.88181 8.288 8.60981 7.872C8.33781 7.448 8.20181 6.944 8.20181 6.36V6.144H9.59381V6.324C9.59381 6.812 9.75781 7.2 10.0858 7.488C10.4218 7.776 10.8618 7.92 11.4058 7.92C11.9498 7.92 12.3738 7.788 12.6778 7.524C12.9818 7.252 13.1338 6.912 13.1338 6.504V6.396C13.1338 6.108 13.0618 5.876 12.9178 5.7C12.7818 5.524 12.5938 5.396 12.3538 5.316C12.1218 5.228 11.8578 5.184 11.5618 5.184H9.95381V3.624L12.7978 2.028V1.848H8.40581V0.599999H14.3338V2.472L11.6458 3.984V4.164H12.1378C12.5378 4.164 12.9178 4.244 13.2778 4.404C13.6458 4.556 13.9458 4.792 14.1778 5.112C14.4098 5.432 14.5258 5.848 14.5258 6.36V6.492C14.5258 7.036 14.3938 7.508 14.1298 7.908C13.8738 8.308 13.5098 8.62 13.0378 8.844C12.5738 9.06 12.0298 9.168 11.4058 9.168Z" fill="#4ABAD9"/>
</svg>
