<svg width="16" height="10" viewBox="0 0 16 10" fill="none" xmlns="http://www.w3.org/2000/svg">
<path d="M3.876 9.168C2.892 9.168 2.104 8.892 1.512 8.34C0.92 7.788 0.624 6.956 0.624 5.844V3.756C0.624 2.668 0.92 1.844 1.512 1.284C2.104 0.716 2.892 0.431999 3.876 0.431999C4.868 0.431999 5.656 0.716 6.24 1.284C6.832 1.844 7.128 2.668 7.128 3.756V5.844C7.128 6.956 6.832 7.788 6.24 8.34C5.656 8.892 4.868 9.168 3.876 9.168ZM3.876 7.92C4.508 7.92 4.972 7.744 5.268 7.392C5.572 7.04 5.724 6.54 5.724 5.892V3.696C5.724 3.04 5.56 2.54 5.232 2.196C4.904 1.852 4.452 1.68 3.876 1.68C3.284 1.68 2.828 1.856 2.508 2.208C2.188 2.56 2.028 3.056 2.028 3.696V5.892C2.028 6.556 2.18 7.06 2.484 7.404C2.796 7.748 3.26 7.92 3.876 7.92ZM12.2818 9V7.296H8.08181V5.676L11.1418 0.599999H13.6738V6.048H15.0778V7.296H13.6738V9H12.2818ZM9.42581 6.048H12.2818V1.488H12.0778L9.42581 5.868V6.048Z" fill="#4ABAD9"/>
</svg>
