<svg width="15" height="10" viewBox="0 0 15 10" fill="none" xmlns="http://www.w3.org/2000/svg">
<path d="M3.876 9.168C2.892 9.168 2.104 8.892 1.512 8.34C0.92 7.788 0.624 6.956 0.624 5.844V3.756C0.624 2.668 0.92 1.844 1.512 1.284C2.104 0.716 2.892 0.431999 3.876 0.431999C4.868 0.431999 5.656 0.716 6.24 1.284C6.832 1.844 7.128 2.668 7.128 3.756V5.844C7.128 6.956 6.832 7.788 6.24 8.34C5.656 8.892 4.868 9.168 3.876 9.168ZM3.876 7.92C4.508 7.92 4.972 7.744 5.268 7.392C5.572 7.04 5.724 6.54 5.724 5.892V3.696C5.724 3.04 5.56 2.54 5.232 2.196C4.904 1.852 4.452 1.68 3.876 1.68C3.284 1.68 2.828 1.856 2.508 2.208C2.188 2.56 2.028 3.056 2.028 3.696V5.892C2.028 6.556 2.18 7.06 2.484 7.404C2.796 7.748 3.26 7.92 3.876 7.92ZM11.3938 9.168C10.7458 9.168 10.1858 9.052 9.71381 8.82C9.24981 8.588 8.88981 8.26 8.63381 7.836C8.37781 7.412 8.24981 6.92 8.24981 6.36V6.24H9.66581V6.348C9.66581 6.804 9.80981 7.18 10.0978 7.476C10.3938 7.772 10.8178 7.92 11.3698 7.92C11.9218 7.92 12.3498 7.768 12.6538 7.464C12.9578 7.16 13.1098 6.76 13.1098 6.264V6.156C13.1098 5.668 12.9578 5.28 12.6538 4.992C12.3578 4.704 11.9818 4.56 11.5258 4.56C11.2698 4.56 11.0578 4.596 10.8898 4.668C10.7298 4.74 10.5978 4.832 10.4938 4.944C10.3898 5.048 10.3058 5.156 10.2418 5.268H8.51381V0.599999H14.1898V1.872H9.90581V4.128H10.1098C10.1978 4.008 10.3098 3.896 10.4458 3.792C10.5898 3.68 10.7738 3.588 10.9978 3.516C11.2298 3.436 11.5058 3.396 11.8258 3.396C12.3218 3.396 12.7698 3.504 13.1698 3.72C13.5778 3.928 13.9018 4.236 14.1418 4.644C14.3818 5.052 14.5018 5.552 14.5018 6.144V6.276C14.5018 6.86 14.3778 7.368 14.1298 7.8C13.8818 8.232 13.5258 8.568 13.0618 8.808C12.5978 9.048 12.0418 9.168 11.3938 9.168Z" fill="#4ABAD9"/>
</svg>
