<?xml version="1.0" encoding="utf-8"?>
<!-- Generator: Adobe Illustrator 25.3.1, SVG Export Plug-In . SVG Version: 6.00 Build 0)  -->
<svg version="1.1" id="Capa_1" xmlns="http://www.w3.org/2000/svg" xmlns:xlink="http://www.w3.org/1999/xlink" x="0px" y="0px"
	 viewBox="0 0 879.9 463.8" style="enable-background:new 0 0 879.9 463.8;" xml:space="preserve">
<style type="text/css">
	.st0{fill:#00B0C7;}
	.st1{fill:#535452;}
</style>
<g>
	<g>
		<g>
			<path class="st0" d="M85.5,231.8c-10.2-0.6-19.6-1.3-28.1-2.4V46c9.6-2.2,20.4-4,32.3-5.2c11.9-1.3,23.5-1.9,34.8-1.9
				c37,0,64.6,7.9,83.1,23.7c18.4,15.8,27.7,40.2,27.7,73.2c0,22.7-4.4,41.2-13.2,55.4c-8.8,14.3-22.1,24.7-39.9,31.4
				c-17.8,6.7-40.4,10-68,10C105.3,232.7,95.7,232.4,85.5,231.8z M157,182.9c7.1-3.4,12.5-8.9,16-16.6c3.5-7.6,5.3-17.9,5.3-30.8
				c0-12.7-1.9-22.9-5.6-30.5c-3.7-7.6-9.2-13.2-16.4-16.6c-7.2-3.4-16.3-5.1-27.3-5.1c-2.3,0-5,0.1-8.1,0.4
				c-3.1,0.3-5.7,0.7-7.8,1.1v102.8c3.9,0.3,9.3,0.4,16.3,0.4C140.6,188,149.8,186.3,157,182.9z"/>
			<path class="st0" d="M258,230.5V41h55.7v189.5H258z"/>
			<path class="st0" d="M341.6,44.9c21.3-4.3,42.4-6.4,63.2-6.4c30.6,0,53.4,5.7,68.4,17.2c14.9,11.5,22.4,29.4,22.4,53.8
				c0,23.3-7.2,40.9-21.6,52.9c-14.4,12-35.4,18-62.9,18l-7.2-0.1c-1.5-0.1-3.7-0.1-6.7-0.1v50.3h-55.7V44.9z M434.6,132.7
				c4.9-4.5,7.3-12.2,7.3-22.9c0-10.6-2.5-18.3-7.6-23c-5.1-4.8-13.1-7.2-24-7.2c-5,0-9.3,0.3-12.9,1v58c4.5,0.6,9.3,0.9,14.3,0.9
				C422.1,139.5,429.7,137.2,434.6,132.7z"/>
			<path class="st0" d="M627.4,230.5l-12-43.4h-62.7l-11.9,43.4h-53.9L543.4,41h81.8l56.6,189.5H627.4z M564.6,143.6h38.7l-19.5-70
				L564.6,143.6z"/>
			<path class="st0" d="M686.4,136.3c0-20.9,4.2-38.7,12.7-53.3c8.4-14.6,20.8-25.7,37.2-33.2c16.3-7.6,36.3-11.3,59.8-11.3
				c14.6,0,28.1,1.3,40.6,4v45.2c-12.2-2.4-24.1-3.6-35.7-3.6c-13.1,0-23.8,1.8-32.1,5.4c-8.2,3.6-14.3,9.2-18.3,16.8
				c-4,7.6-6,17.4-6,29.4c0,12.3,1.9,22.2,5.8,29.8c3.8,7.6,9.8,13.1,17.9,16.6c8.1,3.5,18.5,5.3,31.4,5.3c10.9,0,23.3-1.7,37-5.2
				v45.2c-6,1.7-12.7,3.1-20.3,4.1c-7.6,1-15,1.5-22.3,1.5C722.3,233,686.4,200.8,686.4,136.3z"/>
		</g>
	</g>
	<g>
		<path class="st1" d="M56.2,419.8v-44.3c2.1-0.5,4.5-0.8,7-1.1c2.6-0.3,5-0.4,7.4-0.4c8.4,0,14.6,1.9,18.8,5.7
			c4.2,3.8,6.3,9.7,6.3,17.6c0,5.4-1,9.8-3,13.3c-2,3.4-5,5.9-9,7.6c-4,1.6-9,2.4-15.1,2.4C64.3,420.5,60.1,420.3,56.2,419.8z
			 M79.2,410.9c2.1-1,3.6-2.6,4.6-4.8c1-2.2,1.5-5.1,1.5-8.8c0-3.6-0.5-6.5-1.6-8.7c-1-2.2-2.6-3.9-4.7-4.9c-2.1-1-4.7-1.5-7.9-1.5
			c-1.6,0-3.3,0.2-5.1,0.5v29.6c1.3,0.1,3,0.2,5,0.2C74.5,412.4,77.1,411.9,79.2,410.9z"/>
		<path class="st1" d="M112.3,412.1h22.4v8h-32.4v-45.6h32.1v8h-22.1v10.3h19v8h-19V412.1z"/>
		<path class="st1" d="M187.1,420.1l-3.8-12.2h-16.9l-3.8,12.2h-9.8l14.7-45.6h14.7l14.7,45.6H187.1z M168.8,399.9h12l-6-19.4
			L168.8,399.9z"/>
		<path class="st1" d="M205,415c-4-3.8-6.1-9.6-6.1-17.6c0-7.8,2.1-13.6,6.3-17.6s10.2-5.9,18.1-5.9c3.5,0,6.8,0.4,9.8,1.1v8.3
			c-3-0.7-6-1-9-1c-3.3,0-6.1,0.5-8.2,1.5s-3.7,2.6-4.8,4.8c-1.1,2.2-1.6,5.1-1.6,8.7c0,3.7,0.5,6.6,1.6,8.8c1,2.2,2.6,3.8,4.7,4.8
			c2.1,1,4.7,1.5,8,1.5c2.9,0,6-0.5,9.3-1.4v8.3c-1.5,0.5-3.1,0.8-4.9,1.1c-1.8,0.3-3.6,0.4-5.4,0.4C214.9,420.7,209,418.8,205,415z
			"/>
		<path class="st1" d="M242.1,415c-4-3.8-6.1-9.6-6.1-17.6c0-7.8,2.1-13.6,6.3-17.6s10.2-5.9,18.1-5.9c3.5,0,6.8,0.4,9.8,1.1v8.3
			c-3-0.7-6-1-9-1c-3.3,0-6.1,0.5-8.2,1.5s-3.7,2.6-4.8,4.8c-1.1,2.2-1.6,5.1-1.6,8.7c0,3.7,0.5,6.6,1.6,8.8c1,2.2,2.6,3.8,4.7,4.8
			c2.1,1,4.7,1.5,8,1.5c2.9,0,6-0.5,9.3-1.4v8.3c-1.5,0.5-3.1,0.8-4.9,1.1c-1.8,0.3-3.6,0.4-5.4,0.4
			C252,420.7,246.1,418.8,242.1,415z"/>
		<path class="st1" d="M275.7,420.1v-45.6h10v45.6H275.7z"/>
		<path class="st1" d="M302.4,418.1c-3.2-1.7-5.7-4.3-7.5-7.8c-1.8-3.5-2.6-7.8-2.6-13c0-5.2,0.9-9.5,2.6-13
			c1.8-3.5,4.2-6.1,7.5-7.8s7-2.6,11.4-2.6c4.4,0,8.2,0.9,11.4,2.6c3.2,1.7,5.7,4.3,7.4,7.8c1.7,3.5,2.6,7.8,2.6,13
			c0,5.2-0.9,9.5-2.6,13c-1.8,3.5-4.2,6.1-7.5,7.8c-3.2,1.7-7,2.6-11.4,2.6C309.5,420.7,305.7,419.8,302.4,418.1z M322.2,409
			c1.9-2.4,2.9-6.2,2.9-11.5c0-5.4-1-9.4-2.9-11.8c-1.9-2.5-4.7-3.7-8.3-3.7c-3.6,0-6.4,1.2-8.3,3.6c-1.9,2.4-2.9,6.2-2.9,11.5
			c0,5.4,1,9.4,2.9,11.8c1.9,2.4,4.7,3.7,8.3,3.7C317.5,412.6,320.3,411.4,322.2,409z M309.4,371l5.5-9.3h10.4l-7,9.3H309.4z"/>
		<path class="st1" d="M371.9,374.5h9.5v45.6h-10.1l-19.8-30.5v30.5H342v-45.6h10.1l19.8,30.5V374.5z"/>
		<path class="st1" d="M409.6,415c-4-3.8-6.1-9.6-6.1-17.6c0-7.8,2.1-13.6,6.3-17.6s10.2-5.9,18.1-5.9c3.5,0,6.8,0.4,9.8,1.1v8.3
			c-3-0.7-6-1-9-1c-3.3,0-6.1,0.5-8.2,1.5s-3.7,2.6-4.8,4.8c-1.1,2.2-1.6,5.1-1.6,8.7c0,3.7,0.5,6.6,1.6,8.8c1,2.2,2.6,3.8,4.7,4.8
			c2.1,1,4.7,1.5,8,1.5c2.9,0,6-0.5,9.3-1.4v8.3c-1.5,0.5-3.1,0.8-4.9,1.1c-1.8,0.3-3.6,0.4-5.4,0.4
			C419.5,420.7,413.6,418.8,409.6,415z"/>
		<path class="st1" d="M450.7,418.1c-3.2-1.7-5.7-4.3-7.5-7.8c-1.8-3.5-2.6-7.8-2.6-13c0-5.2,0.9-9.5,2.6-13
			c1.8-3.5,4.2-6.1,7.5-7.8s7-2.6,11.4-2.6c4.4,0,8.2,0.9,11.4,2.6c3.2,1.7,5.7,4.3,7.4,7.8c1.7,3.5,2.6,7.8,2.6,13
			c0,5.2-0.9,9.5-2.6,13c-1.8,3.5-4.2,6.1-7.5,7.8c-3.2,1.7-7,2.6-11.4,2.6C457.7,420.7,453.9,419.8,450.7,418.1z M470.5,409
			c1.9-2.4,2.9-6.2,2.9-11.5c0-5.4-1-9.4-2.9-11.8c-1.9-2.5-4.7-3.7-8.3-3.7c-3.6,0-6.4,1.2-8.3,3.6c-1.9,2.4-2.9,6.2-2.9,11.5
			c0,5.4,1,9.4,2.9,11.8c1.9,2.4,4.7,3.7,8.3,3.7C465.8,412.6,468.5,411.4,470.5,409z"/>
		<path class="st1" d="M498.8,418.1c-3.2-1.7-5.7-4.3-7.5-7.8c-1.8-3.5-2.6-7.8-2.6-13c0-5.2,0.9-9.5,2.6-13
			c1.8-3.5,4.2-6.1,7.5-7.8s7-2.6,11.4-2.6c4.4,0,8.2,0.9,11.4,2.6c3.2,1.7,5.7,4.3,7.4,7.8c1.7,3.5,2.6,7.8,2.6,13
			c0,5.2-0.9,9.5-2.6,13c-1.8,3.5-4.2,6.1-7.5,7.8c-3.2,1.7-7,2.6-11.4,2.6C505.9,420.7,502,419.8,498.8,418.1z M518.6,409
			c1.9-2.4,2.9-6.2,2.9-11.5c0-5.4-1-9.4-2.9-11.8c-1.9-2.5-4.7-3.7-8.3-3.7c-3.6,0-6.4,1.2-8.3,3.6c-1.9,2.4-2.9,6.2-2.9,11.5
			c0,5.4,1,9.4,2.9,11.8c1.9,2.4,4.7,3.7,8.3,3.7C513.9,412.6,516.7,411.4,518.6,409z"/>
		<path class="st1" d="M538.4,375.3c4.7-0.9,9.3-1.4,13.8-1.4c6.9,0,12,1.3,15.3,4c3.4,2.7,5.1,6.8,5.1,12.5c0,5.4-1.7,9.5-5,12.3
			c-3.3,2.8-8.3,4.2-14.8,4.2c-0.9,0-2.4,0-4.4-0.1v13.3h-10V375.3z M560.5,397.3c1.6-1.4,2.4-3.7,2.4-6.8c0-3.1-0.8-5.4-2.4-6.9
			c-1.6-1.4-4-2.2-7.4-2.2c-1.7,0-3.2,0.1-4.7,0.4v17.2c1.5,0.2,3,0.3,4.5,0.3C556.4,399.4,558.9,398.7,560.5,397.3z"/>
		<path class="st1" d="M588.9,412.1h22.4v8H579v-45.6H611v8h-22.1v10.3h19v8h-19V412.1z"/>
		<path class="st1" d="M644.5,420.1l-11.6-16.7h-0.6c-1.4,0-3-0.1-4.8-0.2v16.9h-9.9v-44.6c2.2-0.5,4.5-0.9,7-1.1s4.9-0.4,7.3-0.4
			c6.6,0,11.5,1.2,14.8,3.6c3.3,2.4,4.9,6.1,4.9,11c0,3.2-0.8,6-2.4,8.2c-1.6,2.2-3.8,3.9-6.8,5l12.9,18.3H644.5z M627.5,395.6
			c1.7,0.2,3.4,0.3,5,0.3c3.3,0,5.8-0.6,7.4-1.7c1.6-1.1,2.4-3,2.4-5.6c0-2.5-0.8-4.4-2.3-5.5c-1.5-1.2-3.9-1.7-7-1.7
			c-1.8,0-3.6,0.2-5.4,0.5V395.6z"/>
		<path class="st1" d="M687.7,420.1l-3.8-12.2H667l-3.8,12.2h-9.8l14.7-45.6h14.7l14.7,45.6H687.7z M669.4,399.9h12l-6-19.4
			L669.4,399.9z"/>
		<path class="st1" d="M707.4,420.1v-37.2H693v-8.3h38.8v8.3h-14.3v37.2H707.4z"/>
		<path class="st1" d="M736.4,420.1v-45.6h10v45.6H736.4z"/>
		<path class="st1" d="M784.8,374.5h9.8L780,420.1h-14.8l-14.6-45.6H761l11.8,38L784.8,374.5z"/>
		<path class="st1" d="M826.3,420.1l-3.8-12.2h-16.9l-3.8,12.2h-9.8l14.7-45.6h14.7l14.7,45.6H826.3z M808.1,399.9h12l-6-19.4
			L808.1,399.9z"/>
	</g>
	<g>
		<path class="st1" d="M56.1,345.5v-48c2.3-0.5,4.9-0.9,7.6-1.2c2.8-0.3,5.5-0.4,8.1-0.4c9.1,0,15.9,2.1,20.4,6.2s6.8,10.5,6.8,19
			c0,5.9-1.1,10.7-3.2,14.4c-2.2,3.7-5.4,6.5-9.7,8.2c-4.3,1.7-9.8,2.6-16.4,2.6C64.9,346.3,60.4,346,56.1,345.5z M81.1,335.8
			c2.2-1.1,3.9-2.8,5-5.2c1.1-2.4,1.7-5.6,1.7-9.5c0-3.9-0.6-7.1-1.7-9.5c-1.1-2.4-2.8-4.2-5.1-5.3c-2.2-1.1-5.1-1.7-8.5-1.7
			c-1.8,0-3.6,0.2-5.5,0.5v32.1c1.4,0.2,3.2,0.2,5.5,0.2C76,337.4,78.9,336.9,81.1,335.8z"/>
		<path class="st1" d="M106.2,345.8v-49.4h10.9v49.4H106.2z"/>
		<path class="st1" d="M155.1,345.8l-12.6-18.1h-0.6c-1.6,0-3.3-0.1-5.2-0.2v18.3H126v-48.3c2.4-0.5,4.9-0.9,7.5-1.2
			c2.7-0.3,5.3-0.5,7.9-0.5c7.1,0,12.5,1.3,16.1,3.9c3.6,2.6,5.3,6.6,5.3,12c0,3.5-0.9,6.5-2.6,8.9c-1.7,2.4-4.2,4.2-7.4,5.4
			l14,19.9H155.1z M136.7,319.3c1.9,0.2,3.7,0.3,5.4,0.3c3.6,0,6.3-0.6,8-1.9c1.7-1.2,2.6-3.3,2.6-6c0-2.7-0.8-4.7-2.5-6
			s-4.2-1.9-7.6-1.9c-2,0-3.9,0.2-5.8,0.5V319.3z"/>
		<path class="st1" d="M182.7,337.1h24.3v8.7H172v-49.4h34.8v8.7h-24v11.1h20.6v8.7h-20.6V337.1z"/>
		<path class="st1" d="M217.8,340.3c-4.4-4.1-6.6-10.5-6.6-19.1c0-8.4,2.3-14.8,6.8-19c4.5-4.3,11.1-6.4,19.6-6.4
			c3.8,0,7.3,0.4,10.6,1.2v8.9c-3.2-0.8-6.5-1.1-9.8-1.1c-3.6,0-6.6,0.6-8.9,1.7c-2.3,1.1-4,2.9-5.2,5.3c-1.1,2.4-1.7,5.5-1.7,9.4
			c0,4,0.6,7.1,1.7,9.5s2.8,4.1,5.1,5.2c2.2,1.1,5.1,1.6,8.6,1.6c3.2,0,6.5-0.5,10.1-1.6v9c-1.6,0.5-3.4,0.9-5.3,1.2
			c-1.9,0.3-3.9,0.4-5.8,0.4C228.6,346.4,222.2,344.4,217.8,340.3z"/>
		<path class="st1" d="M258,340.3c-4.4-4.1-6.6-10.5-6.6-19.1c0-8.4,2.3-14.8,6.8-19c4.5-4.3,11.1-6.4,19.6-6.4
			c3.8,0,7.3,0.4,10.6,1.2v8.9c-3.2-0.8-6.5-1.1-9.8-1.1c-3.6,0-6.6,0.6-8.9,1.7c-2.3,1.1-4,2.9-5.2,5.3c-1.1,2.4-1.7,5.5-1.7,9.4
			c0,4,0.6,7.1,1.7,9.5s2.8,4.1,5.1,5.2c2.2,1.1,5.1,1.6,8.6,1.6c3.2,0,6.5-0.5,10.1-1.6v9c-1.6,0.5-3.4,0.9-5.3,1.2
			c-1.9,0.3-3.9,0.4-5.8,0.4C268.8,346.4,262.4,344.4,258,340.3z"/>
		<path class="st1" d="M294.5,345.8v-49.4h10.9v49.4H294.5z"/>
		<path class="st1" d="M323.5,343.6c-3.5-1.9-6.2-4.7-8.1-8.5c-1.9-3.8-2.9-8.5-2.9-14.1s1-10.3,2.9-14.1c1.9-3.8,4.6-6.6,8.1-8.5
			s7.6-2.8,12.4-2.8c4.8,0,8.9,0.9,12.4,2.8c3.5,1.9,6.2,4.7,8.1,8.5c1.9,3.8,2.8,8.5,2.8,14.1c0,5.6-1,10.3-2.9,14.1
			s-4.6,6.6-8.1,8.5c-3.5,1.9-7.6,2.8-12.4,2.8C331.1,346.4,327,345.5,323.5,343.6z M344.9,333.7c2.1-2.6,3.1-6.7,3.1-12.4
			c0-5.9-1-10.1-3.1-12.8s-5.1-4-9-4c-3.9,0-7,1.3-9,3.9c-2.1,2.6-3.1,6.7-3.1,12.4c0,5.9,1,10.2,3.1,12.8c2.1,2.6,5.1,4,9,4
			C339.8,337.6,342.9,336.3,344.9,333.7z M331,292.5l6-10.1h11.3l-7.6,10.1H331z"/>
		<path class="st1" d="M398.8,296.4h10.3v49.4h-11l-21.5-33.1v33.1h-10.3v-49.4h11l21.5,33.1V296.4z"/>
		<path class="st1" d="M434.8,297.2c5.1-1,10-1.5,15-1.5c7.4,0,13,1.4,16.6,4.3c3.7,2.9,5.5,7.4,5.5,13.5c0,5.9-1.8,10.3-5.4,13.3
			s-8.9,4.5-16,4.5c-1,0-2.6,0-4.8-0.1v14.5h-10.9V297.2z M458.7,321.1c1.7-1.5,2.6-4,2.6-7.3c0-3.4-0.9-5.9-2.6-7.4
			c-1.7-1.6-4.4-2.3-8-2.3c-1.8,0-3.5,0.1-5.1,0.4V323c1.6,0.2,3.2,0.3,4.9,0.3C454.3,323.3,457,322.6,458.7,321.1z"/>
		<path class="st1" d="M507.9,345.8l-12.6-18.1h-0.6c-1.6,0-3.3-0.1-5.2-0.2v18.3h-10.7v-48.3c2.4-0.5,4.9-0.9,7.5-1.2
			c2.7-0.3,5.3-0.5,7.9-0.5c7.1,0,12.5,1.3,16.1,3.9c3.6,2.6,5.3,6.6,5.3,12c0,3.5-0.9,6.5-2.6,8.9c-1.7,2.4-4.2,4.2-7.4,5.4
			l14,19.9H507.9z M489.5,319.3c1.9,0.2,3.7,0.3,5.4,0.3c3.6,0,6.3-0.6,8-1.9c1.7-1.2,2.6-3.3,2.6-6c0-2.7-0.8-4.7-2.5-6
			s-4.2-1.9-7.6-1.9c-2,0-3.9,0.2-5.8,0.5V319.3z"/>
		<path class="st1" d="M531.7,343.6c-3.5-1.9-6.2-4.7-8.1-8.5c-1.9-3.8-2.9-8.5-2.9-14.1s1-10.3,2.9-14.1c1.9-3.8,4.6-6.6,8.1-8.5
			s7.6-2.8,12.4-2.8c4.8,0,8.9,0.9,12.4,2.8c3.5,1.9,6.2,4.7,8.1,8.5c1.9,3.8,2.8,8.5,2.8,14.1c0,5.6-1,10.3-2.9,14.1
			s-4.6,6.6-8.1,8.5c-3.5,1.9-7.6,2.8-12.4,2.8C539.3,346.4,535.2,345.5,531.7,343.6z M553.1,333.7c2.1-2.6,3.1-6.7,3.1-12.4
			c0-5.9-1-10.1-3.1-12.8s-5.1-4-9-4c-3.9,0-7,1.3-9,3.9c-2.1,2.6-3.1,6.7-3.1,12.4c0,5.9,1,10.2,3.1,12.8c2.1,2.6,5.1,4,9,4
			C548.1,337.6,551.1,336.3,553.1,333.7z"/>
		<path class="st1" d="M606,296.4h10.6l-15.9,49.4h-16.1l-15.9-49.4h11.4l12.8,41.2L606,296.4z"/>
		<path class="st1" d="M621.1,345.8v-49.4H632v49.4H621.1z"/>
		<path class="st1" d="M673.3,296.4h10.3v49.4h-11l-21.5-33.1v33.1h-10.3v-49.4h11l21.5,33.1V296.4z"/>
		<path class="st1" d="M697.4,340.3c-4.4-4.1-6.6-10.5-6.6-19.1c0-8.4,2.3-14.8,6.8-19c4.5-4.3,11.1-6.4,19.6-6.4
			c3.8,0,7.3,0.4,10.6,1.2v8.9c-3.2-0.8-6.5-1.1-9.8-1.1c-3.6,0-6.6,0.6-8.9,1.7s-4,2.9-5.2,5.3s-1.7,5.5-1.7,9.4
			c0,4,0.6,7.1,1.7,9.5c1.1,2.4,2.8,4.1,5.1,5.2c2.2,1.1,5.1,1.6,8.6,1.6c3.2,0,6.5-0.5,10.1-1.6v9c-1.6,0.5-3.4,0.9-5.3,1.2
			c-1.9,0.3-3.9,0.4-5.8,0.4C708.2,346.4,701.7,344.4,697.4,340.3z"/>
		<path class="st1" d="M733.8,345.8v-49.4h10.9v49.4H733.8z"/>
		<path class="st1" d="M786.7,345.8l-4.1-13.2h-18.3l-4.1,13.2h-10.6l16-49.4h15.9l16,49.4H786.7z M766.9,324h13l-6.5-21.1
			L766.9,324z"/>
		<path class="st1" d="M802.3,345.8v-49.4h10.9v40.4h22.7v9H802.3z"/>
	</g>
</g>
</svg>
