<?xml version="1.0" encoding="utf-8"?>
<!-- Generator: Adobe Illustrator 25.3.1, SVG Export Plug-In . SVG Version: 6.00 Build 0)  -->
<svg version="1.1" id="Layer_1" x="0px" y="0px"
	 viewBox="0 0 349.3 164.7" style="enable-background:new 0 0 349.3 164.7;" xml:space="preserve">
<style type="text/css">
	.st0{fill:#001BDA;}
	.st1{fill:#3E4B59;}
</style>
<g>
	<g>
		<g>
			<path class="st0" d="M166.4,132.6c-11.6,0-26.3-3.5-34.8-11.7s-12.4-19.9-12.4-31.6V29.5h31.1c0,19.9,0,39.9,0,59.8
				c0,5.5,1.3,11.6,5.7,15.4c4.4,3.7,11.3,4.3,16.6,2.3c8.1-3,9.8-11.6,9.8-19.3c0-12.1,0-24.3,0-36.4c0-7.3,0-14.6,0-21.9h32.4
				v59.9c0,11.4-3.8,22.9-11.9,31.1C194.4,129,178.2,132.6,166.4,132.6z"/>
			<path class="st0" d="M267.1,132.7c-16.6,0-32.8-5.5-44.4-15.2l-0.5-0.4l9.8-12.8c2-2.7,5-4.1,8.7-4.1c2.8,0,5.9,0.8,8.8,2.3
				c5.9,3,11.2,5.4,17.6,5.6h0.8c7,0,10.7-2.1,11.2-6.2c0.7-5.9-6.6-7.6-11.9-8.9l-2.8-0.7c-12.3-2.9-26.2-6.2-32.9-17.6
				c-6.5-11-4.1-25.5,5.6-34.6c10.3-9.7,24.6-11.7,34.8-11.7c1.1,0,2.3,0,3.4,0.1c14.1,0.6,26.3,4.8,36.3,12.5l0.5,0.3L303.8,54
				c-2.4,3.2-5.4,4.8-9.2,4.8c-2.4,0-5.1-0.7-8.1-2c-4.5-2-9.5-3.9-15.2-3.9c-0.9,0-1.8,0-2.7,0.1c-1.9,0.2-4.5,0.7-6.2,2.4
				c-0.9,1-1.5,2.4-1.4,3.7c0,0.7,0.2,1.6,1,2.3c3.5,3,8.8,4.2,13.9,5.4c1.6,0.4,3.1,0.7,4.5,1.1c13.9,3.8,27.3,9.2,31,22.1
				c3.5,12.1-1.8,26-12.8,33.9C288.5,131.2,275.9,132.7,267.1,132.7z"/>
		</g>
		<g>
			<path class="st0" d="M334.7,29.5c-7.1,0-12.8,5.8-12.8,13c0,7.1,5.7,13,12.8,13s13-5.8,13-13S341.9,29.5,334.7,29.5z M334.7,53.4
				c-5.9,0-10.8-5-10.8-11s4.9-11,10.8-11c6,0,11,4.9,11,11S340.8,53.4,334.7,53.4z"/>
			<g>
				<g>
					<path class="st0" d="M329.1,35.8h6.2c1.7,0,3.1,0.5,4,1.4c0.8,0.8,1.2,1.8,1.2,3.1l0,0c0,1.1-0.3,2-0.8,2.7s-1.2,1.2-2.1,1.5
						l3.3,4.9h-3.5l-2.9-4.4h-2.4v4.4h-3V35.8z M335.1,42.4c0.7,0,1.3-0.2,1.7-0.5s0.6-0.8,0.6-1.4l0,0c0-0.6-0.2-1.1-0.6-1.5
						c-0.4-0.3-1-0.5-1.7-0.5h-3v3.9H335.1z"/>
				</g>
			</g>
		</g>
	</g>
	<path class="st0" d="M90.2,93.4c4.7-2.6,7.9-5.7,10.8-9.7c3.8-5.2,5.7-11.8,5.7-19.6v-0.3c0-9.7-3-17.7-9.1-23.7
		c-3.4-3.4-7.8-6.1-13.2-8c-5.3-1.9-11.9-2.9-19.5-2.9H17.4v100.2h30.1V100h9.4c1.2,0,2.3,0,3.4-0.1v0.1c0,0,8.3,12.4,14.3,21.6
		c5.1,7.8,15.6,7.8,22.8,7.8c7.2,0,17.3,0,17.3,0S96.8,103.2,90.2,93.4z M47.5,75.8V55.6h16.1c4.1,0,7.3,0.9,9.6,2.6
		c2.2,1.6,3.3,4.1,3.3,7.4v0.3c0,3-1.1,5.4-3.2,7.1c-2.2,1.8-5.5,2.8-9.6,2.8H47.5z"/>
</g>
<g>
	<g>
		<path class="st1" d="M18.6,148.8h6.5c0.9,0,1.8,0.1,2.5,0.4c0.7,0.3,1.3,0.6,1.8,1.1c0.4,0.4,0.7,0.8,0.9,1.3s0.3,1.1,0.3,1.7l0,0
			c0,0.6-0.1,1.2-0.3,1.7s-0.5,0.9-0.9,1.3s-0.8,0.7-1.3,0.9s-1.1,0.4-1.7,0.5l4.7,6.2H29l-4.4-5.9h-4.3v5.9h-1.7V148.8z M25,156.6
			c0.6,0,1.1-0.1,1.6-0.2c0.5-0.1,0.9-0.4,1.2-0.6c0.3-0.3,0.6-0.6,0.8-1s0.3-0.8,0.3-1.3l0,0c0-0.9-0.3-1.7-1-2.2s-1.6-0.8-2.9-0.8
			h-4.7v6.2L25,156.6L25,156.6z"/>
		<path class="st1" d="M35.6,148.8h1.7V164h-1.7V148.8z"/>
		<path class="st1" d="M49.9,164.3c-1.2,0-2.2-0.2-3.2-0.6c-1-0.4-1.8-1-2.4-1.7c-0.7-0.7-1.2-1.6-1.6-2.5c-0.4-1-0.6-1.9-0.6-3l0,0
			c0-1,0.2-2,0.6-3s0.9-1.8,1.6-2.5s1.5-1.3,2.5-1.7s2-0.6,3.2-0.6s2.2,0.2,3.2,0.6c1,0.4,1.8,1,2.4,1.7c0.7,0.7,1.2,1.6,1.6,2.5
			c0.4,1,0.6,1.9,0.6,3l0,0c0,1-0.2,2-0.6,3s-0.9,1.8-1.6,2.5s-1.5,1.3-2.5,1.7C52.1,164.1,51.1,164.3,49.9,164.3z M49.9,162.7
			c0.9,0,1.7-0.2,2.4-0.5c0.7-0.3,1.4-0.8,1.9-1.3c0.5-0.6,0.9-1.2,1.2-2c0.3-0.8,0.4-1.6,0.4-2.4l0,0c0-0.9-0.1-1.7-0.4-2.4
			c-0.3-0.8-0.7-1.4-1.3-2c-0.5-0.6-1.2-1-1.9-1.3c-0.7-0.3-1.5-0.5-2.4-0.5s-1.7,0.2-2.4,0.5c-0.7,0.3-1.4,0.8-1.9,1.3
			c-0.5,0.6-0.9,1.2-1.2,2c-0.3,0.8-0.4,1.6-0.4,2.4l0,0c0,0.9,0.1,1.7,0.4,2.4c0.3,0.8,0.7,1.4,1.3,2s1.2,1,1.9,1.4
			C48.3,162.6,49.1,162.7,49.9,162.7z"/>
		<path class="st1" d="M76.1,164.3c-0.9,0-1.8-0.1-2.6-0.4c-0.8-0.3-1.4-0.7-2-1.3s-1-1.3-1.3-2.1s-0.5-1.8-0.5-2.9v-8.9h1.7v8.8
			c0,1.7,0.4,2.9,1.2,3.8c0.8,0.9,2,1.3,3.4,1.3s2.5-0.4,3.4-1.3c0.8-0.8,1.2-2.1,1.2-3.8v-8.9h1.7v8.7c0,1.1-0.2,2.1-0.5,2.9
			c-0.3,0.8-0.7,1.5-1.3,2.1c-0.6,0.6-1.2,1-2,1.3C78,164.2,77.1,164.3,76.1,164.3z"/>
		<path class="st1" d="M87.7,148.8h6.5c0.9,0,1.8,0.1,2.5,0.4c0.7,0.3,1.3,0.6,1.8,1.1c0.4,0.4,0.7,0.8,0.9,1.3
			c0.2,0.5,0.3,1.1,0.3,1.7l0,0c0,0.6-0.1,1.2-0.3,1.7c-0.2,0.5-0.5,0.9-0.9,1.3s-0.8,0.7-1.3,0.9s-1.1,0.4-1.7,0.5l4.7,6.2h-2.1
			l-4.4-5.9h-4.3v5.9h-1.7V148.8z M94.1,156.6c0.6,0,1.1-0.1,1.6-0.2c0.5-0.1,0.9-0.4,1.2-0.6c0.3-0.3,0.6-0.6,0.8-1
			c0.2-0.4,0.3-0.8,0.3-1.3l0,0c0-0.9-0.3-1.7-1-2.2s-1.6-0.8-2.9-0.8h-4.7v6.2L94.1,156.6L94.1,156.6z"/>
		<path class="st1" d="M110.6,164.3c-0.9,0-1.8-0.1-2.6-0.4c-0.8-0.3-1.4-0.7-2-1.3s-1-1.3-1.3-2.1s-0.5-1.8-0.5-2.9v-8.9h1.7v8.8
			c0,1.7,0.4,2.9,1.2,3.8c0.8,0.9,2,1.3,3.4,1.3s2.5-0.4,3.4-1.3s1.2-2.1,1.2-3.8v-8.9h1.7v8.7c0,1.1-0.2,2.1-0.5,2.9
			c-0.3,0.8-0.7,1.5-1.3,2.1c-0.6,0.6-1.2,1-2,1.3C112.4,164.2,111.5,164.3,110.6,164.3z"/>
		<path class="st1" d="M129.2,164.3c-1.2,0-2.3-0.2-3.2-0.6c-1-0.4-1.8-1-2.4-1.7c-0.7-0.7-1.2-1.5-1.5-2.5c-0.4-1-0.5-2-0.5-3.1
			l0,0c0-1,0.2-2,0.6-3s0.9-1.8,1.6-2.5s1.5-1.3,2.4-1.7s2-0.6,3.1-0.6c0.6,0,1.2,0,1.8,0.1c0.5,0.1,1,0.2,1.5,0.4s0.9,0.4,1.3,0.6
			c0.4,0.3,0.8,0.5,1.2,0.9l-1.1,1.3c-0.3-0.3-0.6-0.5-0.9-0.7s-0.7-0.4-1-0.5c-0.4-0.2-0.8-0.3-1.2-0.4c-0.4-0.1-0.9-0.1-1.5-0.1
			c-0.8,0-1.6,0.2-2.3,0.5c-0.7,0.3-1.3,0.8-1.8,1.3c-0.5,0.6-0.9,1.2-1.2,2c-0.3,0.8-0.4,1.6-0.4,2.4l0,0c0,0.9,0.1,1.8,0.4,2.5
			c0.3,0.8,0.7,1.4,1.2,2s1.2,1,1.9,1.3c0.7,0.3,1.6,0.5,2.5,0.5s1.7-0.1,2.5-0.4c0.8-0.3,1.4-0.7,1.9-1.1v-3.8H129v-1.5h6.3v6.1
			c-0.7,0.6-1.6,1.2-2.6,1.6C131.6,164.1,130.5,164.3,129.2,164.3z"/>
		<path class="st1" d="M146.4,164.3c-0.9,0-1.8-0.1-2.6-0.4c-0.8-0.3-1.4-0.7-2-1.3s-1-1.3-1.3-2.1s-0.5-1.8-0.5-2.9v-8.9h1.7v8.8
			c0,1.7,0.4,2.9,1.2,3.8s2,1.3,3.4,1.3s2.5-0.4,3.4-1.3s1.2-2.1,1.2-3.8v-8.9h1.7v8.7c0,1.1-0.2,2.1-0.5,2.9
			c-0.3,0.8-0.7,1.5-1.3,2.1c-0.6,0.6-1.2,1-2,1.3C148.2,164.2,147.3,164.3,146.4,164.3z"/>
		<path class="st1" d="M163.5,148.7h1.6l6.9,15.4h-1.9l-1.8-4H160l-1.8,4h-1.8L163.5,148.7z M167.8,158.5l-3.5-7.8l-3.5,7.8H167.8z"
			/>
		<path class="st1" d="M180.9,158l-6.3-9.2h2.1l5.1,7.6l5.2-7.6h2l-6.3,9.2v6.1H181V158H180.9z"/>
		<path class="st1" d="M204.4,164.3c-1.2,0-2.3-0.2-3.3-0.6s-2-1-2.9-1.8l1.1-1.3c0.8,0.7,1.6,1.3,2.4,1.6c0.8,0.4,1.7,0.5,2.8,0.5
			c1,0,1.9-0.2,2.5-0.7s0.9-1.1,0.9-1.9l0,0c0-0.3-0.1-0.7-0.2-0.9c-0.1-0.3-0.3-0.5-0.6-0.8c-0.3-0.2-0.7-0.4-1.2-0.6
			c-0.5-0.2-1.2-0.4-2-0.5c-0.9-0.2-1.6-0.4-2.3-0.7c-0.6-0.2-1.2-0.5-1.6-0.9c-0.4-0.3-0.7-0.8-0.9-1.2c-0.2-0.5-0.3-1-0.3-1.6l0,0
			c0-0.6,0.1-1.1,0.4-1.7c0.2-0.5,0.6-0.9,1-1.3c0.5-0.4,1-0.7,1.6-0.9s1.3-0.3,2-0.3c1.1,0,2.1,0.2,2.9,0.5s1.6,0.8,2.4,1.4l-1,1.3
			c-0.7-0.6-1.4-1-2.1-1.3s-1.5-0.4-2.3-0.4c-1,0-1.8,0.2-2.4,0.7s-0.9,1.1-0.9,1.8l0,0c0,0.4,0.1,0.7,0.2,1s0.3,0.5,0.6,0.8
			c0.3,0.2,0.7,0.5,1.3,0.7c0.5,0.2,1.2,0.4,2.1,0.6c1.7,0.4,2.9,0.9,3.7,1.6c0.8,0.7,1.2,1.6,1.2,2.7l0,0c0,0.7-0.1,1.2-0.4,1.8
			c-0.3,0.5-0.6,1-1.1,1.4s-1,0.7-1.6,0.9C205.8,164.2,205.1,164.3,204.4,164.3z"/>
		<path class="st1" d="M214.2,148.8h11v1.6h-9.3v5.2h8.3v1.6h-8.3v5.3h9.4v1.6h-11.1V148.8z"/>
		<path class="st1" d="M236.9,164.3c-1.2,0-2.3-0.2-3.2-0.6c-1-0.4-1.8-1-2.4-1.7c-0.7-0.7-1.2-1.5-1.5-2.5c-0.4-1-0.5-2-0.5-3.1
			l0,0c0-1,0.2-2,0.6-3s0.9-1.8,1.6-2.5s1.5-1.3,2.4-1.7s2-0.6,3.1-0.6c0.6,0,1.2,0,1.8,0.1c0.5,0.1,1,0.2,1.5,0.4s0.9,0.4,1.3,0.6
			c0.4,0.3,0.8,0.5,1.2,0.9l-1.1,1.3c-0.3-0.3-0.6-0.5-0.9-0.7s-0.7-0.4-1-0.5c-0.4-0.2-0.8-0.3-1.2-0.4c-0.4-0.1-0.9-0.1-1.5-0.1
			c-0.8,0-1.6,0.2-2.3,0.5c-0.7,0.3-1.3,0.8-1.8,1.3c-0.5,0.6-0.9,1.2-1.2,2c-0.3,0.8-0.4,1.6-0.4,2.4l0,0c0,0.9,0.1,1.8,0.4,2.5
			c0.3,0.8,0.7,1.4,1.2,2s1.2,1,1.9,1.3c0.7,0.3,1.6,0.5,2.5,0.5s1.7-0.1,2.5-0.4c0.8-0.3,1.4-0.7,1.9-1.1v-3.8h-4.6v-1.5h6.3v6.1
			c-0.7,0.6-1.6,1.2-2.6,1.6C239.4,164.1,238.2,164.3,236.9,164.3z"/>
		<path class="st1" d="M254.1,164.3c-0.9,0-1.8-0.1-2.6-0.4c-0.8-0.3-1.4-0.7-2-1.3s-1-1.3-1.3-2.1s-0.5-1.8-0.5-2.9v-8.9h1.7v8.8
			c0,1.7,0.4,2.9,1.2,3.8s2,1.3,3.4,1.3s2.5-0.4,3.4-1.3s1.2-2.1,1.2-3.8v-8.9h1.7v8.7c0,1.1-0.2,2.1-0.5,2.9
			c-0.3,0.8-0.7,1.5-1.3,2.1c-0.6,0.6-1.2,1-2,1.3C255.9,164.2,255.1,164.3,254.1,164.3z"/>
		<path class="st1" d="M265.6,148.8h6.5c0.9,0,1.8,0.1,2.5,0.4c0.7,0.3,1.3,0.6,1.8,1.1c0.4,0.4,0.7,0.8,0.9,1.3
			c0.2,0.5,0.3,1.1,0.3,1.7l0,0c0,0.6-0.1,1.2-0.3,1.7c-0.2,0.5-0.5,0.9-0.9,1.3s-0.8,0.7-1.3,0.9s-1.1,0.4-1.7,0.5l4.7,6.2H276
			l-4.4-5.9h-4.3v5.9h-1.7V148.8z M272,156.6c0.6,0,1.1-0.1,1.6-0.2s0.9-0.4,1.2-0.6c0.3-0.3,0.6-0.6,0.8-1c0.2-0.4,0.3-0.8,0.3-1.3
			l0,0c0-0.9-0.3-1.7-1-2.2s-1.6-0.8-2.9-0.8h-4.7v6.2L272,156.6L272,156.6z"/>
		<path class="st1" d="M289.5,164.3c-1.2,0-2.2-0.2-3.2-0.6c-1-0.4-1.8-1-2.4-1.7c-0.7-0.7-1.2-1.6-1.6-2.5c-0.4-1-0.6-1.9-0.6-3
			l0,0c0-1,0.2-2,0.6-3s0.9-1.8,1.6-2.5s1.5-1.3,2.5-1.7s2-0.6,3.2-0.6s2.2,0.2,3.2,0.6c1,0.4,1.8,1,2.4,1.7
			c0.7,0.7,1.2,1.6,1.6,2.5c0.4,1,0.6,1.9,0.6,3l0,0c0,1-0.2,2-0.6,3c-0.4,1-0.9,1.8-1.6,2.5c-0.7,0.7-1.5,1.3-2.5,1.7
			C291.8,164.1,290.7,164.3,289.5,164.3z M289.6,162.7c0.9,0,1.7-0.2,2.4-0.5c0.7-0.3,1.4-0.8,1.9-1.3c0.5-0.6,0.9-1.2,1.2-2
			s0.4-1.6,0.4-2.4l0,0c0-0.9-0.1-1.7-0.4-2.4c-0.3-0.8-0.7-1.4-1.3-2c-0.5-0.6-1.2-1-1.9-1.3c-0.7-0.3-1.5-0.5-2.4-0.5
			s-1.7,0.2-2.4,0.5c-0.7,0.3-1.4,0.8-1.9,1.3s-0.9,1.2-1.2,2c-0.3,0.8-0.4,1.6-0.4,2.4l0,0c0,0.9,0.1,1.7,0.4,2.4
			c0.3,0.8,0.7,1.4,1.3,2c0.5,0.6,1.2,1,1.9,1.4C287.9,162.6,288.7,162.7,289.6,162.7z"/>
		<path class="st1" d="M307.2,164.3c-1.2,0-2.3-0.2-3.3-0.6s-2-1-2.9-1.8l1.1-1.3c0.8,0.7,1.6,1.3,2.4,1.6c0.8,0.4,1.7,0.5,2.8,0.5
			c1,0,1.9-0.2,2.5-0.7s0.9-1.1,0.9-1.9l0,0c0-0.3-0.1-0.7-0.2-0.9c-0.1-0.3-0.3-0.5-0.6-0.8c-0.3-0.2-0.7-0.4-1.2-0.6
			c-0.5-0.2-1.2-0.4-2-0.5c-0.9-0.2-1.6-0.4-2.3-0.7c-0.6-0.2-1.2-0.5-1.6-0.9c-0.4-0.3-0.7-0.8-0.9-1.2c-0.2-0.5-0.3-1-0.3-1.6l0,0
			c0-0.6,0.1-1.1,0.4-1.7c0.2-0.5,0.6-0.9,1-1.3c0.5-0.4,1-0.7,1.6-0.9s1.3-0.3,2-0.3c1.1,0,2.1,0.2,2.9,0.5
			c0.8,0.3,1.6,0.8,2.4,1.4l-1,1.3c-0.7-0.6-1.4-1-2.1-1.3c-0.7-0.3-1.5-0.4-2.3-0.4c-1,0-1.8,0.2-2.4,0.7s-0.9,1.1-0.9,1.8l0,0
			c0,0.4,0.1,0.7,0.2,1s0.3,0.5,0.6,0.8c0.3,0.2,0.7,0.5,1.3,0.7c0.5,0.2,1.2,0.4,2.1,0.6c1.7,0.4,2.9,0.9,3.7,1.6
			c0.8,0.7,1.2,1.6,1.2,2.7l0,0c0,0.7-0.1,1.2-0.4,1.8c-0.3,0.5-0.6,1-1.1,1.4s-1,0.7-1.6,0.9C308.6,164.2,307.9,164.3,307.2,164.3z
			"/>
	</g>
</g>
</svg>
