<?xml version="1.0" encoding="utf-8"?>
<!-- Generator: Adobe Illustrator 25.3.1, SVG Export Plug-In . SVG Version: 6.00 Build 0)  -->
<svg version="1.1" id="Capa_1"x="0px" y="0px"
	 viewBox="0 0 879.9 348.6" style="enable-background:new 0 0 879.9 348.6;" xml:space="preserve">
<style type="text/css">
	.st0{fill:#467CBE;}
</style>
<g>
	<path id="XMLID_753_" class="st0" d="M614.2,182.6H505.9c-1.2,0-2.1-0.9-2.1-2.1v-27.6c0-1.2,0.9-2.1,2.1-2.1h108.3
		c1.2,0,2.1,0.9,2.1,2.1v27.6C616.3,181.7,615.3,182.6,614.2,182.6"/>
	<path id="XMLID_752_" class="st0" d="M614.2,54H505.9c-1.2,0-2.1-0.9-2.1-2.1V24.3c0-1.2,0.9-2.1,2.1-2.1h108.3
		c1.2,0,2.1,0.9,2.1,2.1v27.6C616.3,53.1,615.3,54,614.2,54"/>
	<path id="XMLID_751_" class="st0" d="M149.9,24.3v156.2c0,1.2-0.9,2.1-2.1,2.1h-27.6c-1.2,0-2.1-0.9-2.1-2.1V24.3
		c0-1.2,1-2.1,2.1-2.1h27.6C148.9,22.2,149.9,23.1,149.9,24.3"/>
	<path id="XMLID_750_" class="st0" d="M568.6,118.3h-48.9c-8.8,0-15.9-7.1-15.9-15.9c0-8.8,7.1-15.9,15.9-15.9h48.9
		c8.8,0,15.9,7.1,15.9,15.9C584.5,111.2,577.4,118.3,568.6,118.3"/>
	<path id="XMLID_749_" class="st0" d="M423.1,135.1c0,8.8-7.1,15.9-15.9,15.9s-15.9-7.1-15.9-15.9c0-8.8,7.1-15.9,15.9-15.9
		S423.1,126.3,423.1,135.1"/>
	<path id="XMLID_748_" class="st0" d="M487.3,179.6c0,0-56-152.2-56.9-153.6h0c-1-2.2-3.3-3.7-5.8-3.7l-17.2,0h-0.1h-0.1l-17.2,0
		c-2.6,0-4.8,1.5-5.8,3.7h0c-0.9,1.3-56.9,153.6-56.9,153.6c-0.2,0.7-0.4,1.2-0.4,1.8c0,0.4,0.4,1.2,1.2,1.2h30.7
		c1.6,0,2.1-1,2.6-2.2l45.9-125.7l45.9,125.7c0.5,1.2,1,2.2,2.6,2.2h30.7c0.8,0,1.2-0.8,1.2-1.2
		C487.7,180.8,487.5,180.3,487.3,179.6"/>
	<path id="XMLID_747_" class="st0" d="M310.3,24.3c0-1.2-0.9-2.1-2.1-2.1h-27.6c-1.2,0-2.1,0.9-2.1,2.1v98.9L214,24.3
		c-0.5-0.7-1.3-2.1-3.3-2.1h-1.8h-24.9c-1.2,0-2.1,0.9-2.1,2.1v156.2c0,1.2,0.9,2.1,2.1,2.1h27.6c1.2,0,2.1-0.9,2.1-2.1V82.1
		l64.5,98.9c0.9,0.9,2.4,1.6,5,1.6h3.6h21.4c1.2,0,2.1-0.9,2.1-2.1V24.3z"/>
	<path id="XMLID_746_" class="st0" d="M700.8,183c-3.9,0-7.9-0.2-12.1-0.7c-19.5-2.2-45.1-14.2-56.4-35.7c-0.6-1.1-0.1-2.5,1-3
		l23.2-10.9c1-0.5,2.3-0.1,2.9,0.9c6.6,11.3,22.7,17.8,32.6,18.9c14.1,1.6,25.2-0.9,29.8-4c0.4-0.3,8.9-5.1,7.6-15
		c-0.7-5.5-5.5-10.3-14.5-13.4c-4-1.4-11.8-3.3-19.5-4.9c-14.1-3.1-28.7-6.2-38.5-11.7c-18.5-10.4-27.6-28.4-22.2-46.9
		c4.9-16.5,15-26.5,35.5-32.8c10.2-3.1,27.6-3.2,51.5,0c12.8,1.7,23.2,3.6,27.8,4.6c1.2,0.2,2,1.4,1.7,2.7l-5.4,25
		c-0.3,1.2-1.4,2-2.6,1.7c-29.3-6.6-49.8-7.9-63.9-5.9c-9.3,1.3-14.2,5.3-15.2,11.1c-1,5.8,0.6,10.5,7.5,14.3
		c5.9,3.3,19.3,6.2,30.1,8.5c9.7,2.1,18,3.9,24.2,6.3c18.1,7.1,31.1,20.7,34.1,35.3c2.7,13.4-1.5,32.6-21.5,46
		C729.3,179.6,715.9,183,700.8,183"/>
</g>
<g id="XMLID_671_">
	<path id="XMLID_704_" class="st0" d="M474.2,231.2h9.8c2.1,0,3.9,0.3,5.7,1c1.7,0.7,3.2,1.6,4.4,2.8c1.2,1.2,2.2,2.6,2.9,4.2
		c0.7,1.6,1,3.3,1,5.2v0.1c0,1.9-0.3,3.6-1,5.2c-0.7,1.6-1.6,3-2.9,4.2c-1.2,1.2-2.7,2.1-4.4,2.8c-1.7,0.7-3.6,1-5.7,1h-9.8V231.2z
		 M484,253.4c1.4,0,2.6-0.2,3.8-0.7c1.1-0.4,2.1-1.1,2.9-1.9c0.8-0.8,1.4-1.7,1.8-2.8c0.4-1.1,0.7-2.3,0.7-3.6v-0.1
		c0-1.3-0.2-2.5-0.7-3.6c-0.4-1.1-1.1-2.1-1.8-2.9c-0.8-0.8-1.8-1.4-2.9-1.9c-1.1-0.5-2.4-0.7-3.8-0.7h-5.2v18H484z"/>
	<path id="XMLID_702_" class="st0" d="M504.4,231.2h19.5v4.2H509v6.8h13.2v4.2H509v7h15.1v4.2h-19.7V231.2z"/>
	<path id="XMLID_699_" class="st0" d="M551.9,231h4.3l11.6,26.6h-4.9l-2.7-6.4h-12.5l-2.7,6.4h-4.7L551.9,231z M558.5,247.1
		l-4.6-10.5l-4.5,10.5H558.5z"/>
	<path id="XMLID_697_" class="st0" d="M582.3,258c-2,0-4-0.3-5.8-1s-3.6-1.8-5.2-3.2l2.8-3.3c1.3,1.1,2.6,2,3.9,2.5
		c1.3,0.6,2.8,0.9,4.4,0.9c1.4,0,2.6-0.3,3.4-0.9c0.8-0.6,1.3-1.4,1.3-2.4v-0.1c0-0.5-0.1-0.9-0.2-1.3c-0.2-0.4-0.5-0.7-0.9-1
		s-1-0.6-1.8-0.9c-0.8-0.3-1.8-0.6-3-0.8c-1.4-0.3-2.7-0.7-3.8-1.1c-1.1-0.4-2-0.9-2.8-1.5c-0.7-0.6-1.3-1.3-1.7-2.2
		c-0.4-0.9-0.6-1.9-0.6-3.1v-0.1c0-1.1,0.2-2.2,0.7-3.1c0.4-0.9,1.1-1.7,1.8-2.4c0.8-0.7,1.7-1.2,2.8-1.6c1.1-0.4,2.3-0.6,3.6-0.6
		c1.9,0,3.7,0.3,5.2,0.8c1.5,0.6,3,1.4,4.4,2.5l-2.5,3.5c-1.2-0.9-2.4-1.5-3.6-2c-1.2-0.5-2.4-0.7-3.6-0.7c-1.4,0-2.4,0.3-3.2,0.9
		c-0.8,0.6-1.1,1.3-1.1,2.2v0.1c0,0.5,0.1,0.9,0.3,1.3c0.2,0.4,0.5,0.7,1,1.1c0.5,0.3,1.1,0.6,1.9,0.9c0.8,0.3,1.9,0.6,3.1,0.9
		c1.4,0.4,2.6,0.7,3.7,1.2c1.1,0.4,2,0.9,2.7,1.6c0.7,0.6,1.2,1.3,1.6,2.1c0.4,0.8,0.5,1.8,0.5,2.8v0.1c0,1.2-0.2,2.3-0.7,3.3
		c-0.5,1-1.1,1.8-1.9,2.5c-0.8,0.7-1.8,1.2-3,1.5C584.9,257.8,583.7,258,582.3,258z"/>
	<path id="XMLID_694_" class="st0" d="M610.5,258c-2,0-3.9-0.4-5.6-1.1c-1.7-0.7-3.1-1.7-4.3-2.9c-1.2-1.2-2.1-2.7-2.8-4.3
		s-1-3.4-1-5.3v-0.1c0-1.9,0.3-3.6,1-5.3c0.7-1.6,1.6-3.1,2.9-4.3c1.2-1.2,2.7-2.2,4.4-3c1.7-0.7,3.5-1.1,5.6-1.1
		c2,0,3.9,0.4,5.6,1.1c1.7,0.7,3.1,1.7,4.3,2.9c1.2,1.2,2.1,2.7,2.8,4.3s1,3.4,1,5.3v0.1c0,1.9-0.3,3.6-1,5.3s-1.6,3.1-2.9,4.3
		c-1.2,1.2-2.7,2.2-4.4,3C614.4,257.7,612.5,258,610.5,258z M610.6,253.8c1.3,0,2.5-0.2,3.6-0.7c1.1-0.5,2-1.2,2.8-2
		c0.8-0.8,1.4-1.8,1.8-3c0.4-1.1,0.7-2.3,0.7-3.6v-0.1c0-1.3-0.2-2.5-0.7-3.6s-1.1-2.1-1.8-3c-0.8-0.8-1.7-1.5-2.8-2
		c-1.1-0.5-2.3-0.8-3.6-0.8c-1.3,0-2.5,0.2-3.6,0.7c-1.1,0.5-2,1.2-2.8,2c-0.8,0.8-1.4,1.8-1.8,3c-0.4,1.1-0.7,2.3-0.7,3.6v0.1
		c0,1.3,0.2,2.5,0.7,3.6c0.4,1.1,1.1,2.1,1.8,3c0.8,0.8,1.7,1.5,2.8,2C608.1,253.5,609.3,253.8,610.6,253.8z"/>
	<path id="XMLID_692_" class="st0" d="M643,258c-1.9,0-3.7-0.4-5.3-1.1c-1.6-0.7-3-1.7-4.2-2.9c-1.2-1.2-2.1-2.7-2.8-4.3
		c-0.7-1.7-1-3.4-1-5.3v-0.1c0-1.9,0.3-3.6,1-5.3c0.7-1.6,1.6-3.1,2.8-4.3c1.2-1.2,2.6-2.2,4.3-2.9c1.7-0.7,3.5-1.1,5.5-1.1
		c1.2,0,2.3,0.1,3.3,0.3c1,0.2,1.9,0.5,2.7,0.8c0.8,0.4,1.6,0.8,2.3,1.3c0.7,0.5,1.4,1.1,2,1.7l-3,3.4c-1.1-1-2.2-1.8-3.4-2.4
		c-1.2-0.6-2.5-0.9-4-0.9c-1.3,0-2.4,0.2-3.5,0.7c-1.1,0.5-2,1.2-2.8,2c-0.8,0.8-1.4,1.8-1.8,3c-0.4,1.1-0.6,2.3-0.6,3.6v0.1
		c0,1.3,0.2,2.5,0.6,3.6c0.4,1.1,1,2.1,1.8,3c0.8,0.9,1.7,1.5,2.8,2c1.1,0.5,2.2,0.7,3.5,0.7c1.6,0,3-0.3,4.1-0.9
		c1.2-0.6,2.3-1.5,3.4-2.5l3,3c-0.7,0.7-1.4,1.4-2.1,1.9c-0.7,0.6-1.5,1.1-2.4,1.5c-0.9,0.4-1.8,0.7-2.8,0.9
		C645.4,257.9,644.2,258,643,258z"/>
	<path id="XMLID_690_" class="st0" d="M659.6,231.2h4.6v26.4h-4.6V231.2z"/>
	<path id="XMLID_687_" class="st0" d="M681.4,231h4.3l11.6,26.6h-4.9l-2.7-6.4h-12.5l-2.7,6.4h-4.7L681.4,231z M688,247.1l-4.6-10.5
		l-4.5,10.5H688z"/>
	<path id="XMLID_685_" class="st0" d="M709,235.5h-8.4v-4.3h21.4v4.3h-8.4v22.1H709V235.5z"/>
	<path id="XMLID_683_" class="st0" d="M728,231.2h4.6v26.4H728V231.2z"/>
	<path id="XMLID_681_" class="st0" d="M738.2,231.2h5.1l7.9,20.3l7.9-20.3h5l-11,26.6h-4.1L738.2,231.2z"/>
	<path id="XMLID_679_" class="st0" d="M769.8,231.2h4.6v26.4h-4.6V231.2z"/>
	<path id="XMLID_677_" class="st0" d="M791.5,258c-2,0-4-0.3-5.8-1s-3.6-1.8-5.2-3.2l2.8-3.3c1.3,1.1,2.6,2,3.9,2.5
		c1.3,0.6,2.8,0.9,4.4,0.9c1.4,0,2.6-0.3,3.4-0.9c0.8-0.6,1.3-1.4,1.3-2.4v-0.1c0-0.5-0.1-0.9-0.2-1.3c-0.2-0.4-0.5-0.7-0.9-1
		c-0.4-0.3-1-0.6-1.8-0.9c-0.8-0.3-1.8-0.6-3-0.8c-1.4-0.3-2.7-0.7-3.8-1.1c-1.1-0.4-2-0.9-2.8-1.5c-0.7-0.6-1.3-1.3-1.7-2.2
		c-0.4-0.9-0.6-1.9-0.6-3.1v-0.1c0-1.1,0.2-2.2,0.7-3.1c0.4-0.9,1.1-1.7,1.8-2.4c0.8-0.7,1.7-1.2,2.8-1.6c1.1-0.4,2.3-0.6,3.6-0.6
		c1.9,0,3.7,0.3,5.2,0.8c1.5,0.6,3,1.4,4.4,2.5l-2.5,3.5c-1.2-0.9-2.4-1.5-3.6-2c-1.2-0.5-2.4-0.7-3.6-0.7c-1.4,0-2.4,0.3-3.2,0.9
		c-0.8,0.6-1.1,1.3-1.1,2.2v0.1c0,0.5,0.1,0.9,0.3,1.3c0.2,0.4,0.5,0.7,1,1.1c0.5,0.3,1.1,0.6,1.9,0.9s1.9,0.6,3.1,0.9
		c1.4,0.4,2.6,0.7,3.7,1.2c1.1,0.4,2,0.9,2.7,1.6c0.7,0.6,1.2,1.3,1.6,2.1c0.4,0.8,0.5,1.8,0.5,2.8v0.1c0,1.2-0.2,2.3-0.7,3.3
		c-0.5,1-1.1,1.8-1.9,2.5c-0.8,0.7-1.8,1.2-3,1.5C794.2,257.8,792.9,258,791.5,258z"/>
	<path id="XMLID_675_" class="st0" d="M807.1,231.2h4.9l8,12.5l8-12.5h4.9v26.4h-4.6v-18.9l-8.3,12.4H820l-8.2-12.4v18.8h-4.6V231.2
		z"/>
	<path id="XMLID_672_" class="st0" d="M853.2,258c-2,0-3.9-0.4-5.6-1.1c-1.7-0.7-3.1-1.7-4.3-2.9c-1.2-1.2-2.1-2.7-2.8-4.3
		c-0.7-1.6-1-3.4-1-5.3v-0.1c0-1.9,0.3-3.6,1-5.3c0.7-1.6,1.6-3.1,2.9-4.3c1.2-1.2,2.7-2.2,4.4-3c1.7-0.7,3.5-1.1,5.6-1.1
		c2,0,3.9,0.4,5.6,1.1c1.7,0.7,3.1,1.7,4.3,2.9c1.2,1.2,2.1,2.7,2.8,4.3c0.7,1.6,1,3.4,1,5.3v0.1c0,1.9-0.3,3.6-1,5.3
		c-0.7,1.6-1.6,3.1-2.9,4.3c-1.2,1.2-2.7,2.2-4.4,3C857.1,257.7,855.2,258,853.2,258z M853.3,253.8c1.3,0,2.5-0.2,3.6-0.7
		c1.1-0.5,2-1.2,2.8-2c0.8-0.8,1.4-1.8,1.8-3c0.4-1.1,0.7-2.3,0.7-3.6v-0.1c0-1.3-0.2-2.5-0.7-3.6s-1.1-2.1-1.8-3
		c-0.8-0.8-1.7-1.5-2.8-2s-2.3-0.8-3.6-0.8c-1.3,0-2.5,0.2-3.6,0.7c-1.1,0.5-2,1.2-2.8,2c-0.8,0.8-1.4,1.8-1.8,3
		c-0.4,1.1-0.7,2.3-0.7,3.6v0.1c0,1.3,0.2,2.5,0.7,3.6c0.4,1.1,1.1,2.1,1.8,3c0.8,0.8,1.7,1.5,2.8,2
		C850.8,253.5,852,253.8,853.3,253.8z"/>
</g>
<g id="XMLID_707_">
	<path id="XMLID_744_" class="st0" d="M16.7,231.2h4.6v26.4h-4.6V231.2z"/>
	<path id="XMLID_742_" class="st0" d="M27.9,231.2h4.3l14.1,18.2v-18.2h4.6v26.4H47l-14.5-18.8v18.8h-4.6V231.2z"/>
	<path id="XMLID_740_" class="st0" d="M66.4,257.9c-2,0-4-0.3-5.8-1c-1.9-0.7-3.6-1.8-5.2-3.2l2.8-3.3c1.3,1.1,2.6,2,3.9,2.5
		c1.3,0.6,2.8,0.9,4.4,0.9c1.4,0,2.6-0.3,3.4-0.9c0.8-0.6,1.3-1.4,1.3-2.4v-0.1c0-0.5-0.1-0.9-0.2-1.3c-0.2-0.4-0.5-0.7-0.9-1
		c-0.4-0.3-1-0.6-1.8-0.9c-0.8-0.3-1.8-0.6-3-0.8c-1.4-0.3-2.7-0.7-3.8-1.1c-1.1-0.4-2-0.9-2.8-1.5c-0.7-0.6-1.3-1.3-1.7-2.2
		c-0.4-0.9-0.6-1.9-0.6-3.1v-0.1c0-1.1,0.2-2.2,0.7-3.1c0.4-0.9,1.1-1.7,1.8-2.4c0.8-0.7,1.7-1.2,2.8-1.6c1.1-0.4,2.3-0.6,3.6-0.6
		c1.9,0,3.7,0.3,5.2,0.8c1.5,0.6,3,1.4,4.4,2.5l-2.5,3.5c-1.2-0.9-2.4-1.5-3.6-2c-1.2-0.5-2.4-0.7-3.6-0.7c-1.4,0-2.4,0.3-3.2,0.9
		c-0.8,0.6-1.1,1.3-1.1,2.2v0.1c0,0.5,0.1,0.9,0.3,1.3c0.2,0.4,0.5,0.7,1,1.1c0.5,0.3,1.1,0.6,1.9,0.9c0.8,0.3,1.9,0.6,3.1,0.9
		c1.4,0.4,2.6,0.7,3.7,1.2c1.1,0.4,2,0.9,2.7,1.6c0.7,0.6,1.2,1.3,1.6,2.1c0.4,0.8,0.5,1.8,0.5,2.8v0.1c0,1.2-0.2,2.3-0.7,3.3
		c-0.5,1-1.1,1.8-1.9,2.5c-0.8,0.7-1.8,1.2-3,1.5C69,257.8,67.8,257.9,66.4,257.9z"/>
	<path id="XMLID_738_" class="st0" d="M87.2,235.5h-8.4v-4.3h21.4v4.3h-8.4v22.1h-4.7V235.5z"/>
	<path id="XMLID_736_" class="st0" d="M104.9,231.2h4.6v26.4h-4.6V231.2z"/>
	<path id="XMLID_734_" class="st0" d="M122.6,235.5h-8.4v-4.3h21.4v4.3h-8.4v22.1h-4.7V235.5z"/>
	<path id="XMLID_732_" class="st0" d="M150.8,258c-1.7,0-3.3-0.2-4.6-0.7c-1.4-0.5-2.6-1.2-3.5-2.2c-1-1-1.7-2.2-2.3-3.6
		c-0.5-1.4-0.8-3.1-0.8-5v-15.2h4.6v15c0,2.5,0.6,4.3,1.8,5.6s2.8,1.9,4.9,1.9c2.1,0,3.7-0.6,4.9-1.8c1.2-1.2,1.8-3.1,1.8-5.5v-15.2
		h4.6v15c0,2-0.3,3.7-0.8,5.2c-0.5,1.5-1.3,2.7-2.3,3.7c-1,1-2.2,1.7-3.6,2.2C154.1,257.7,152.5,258,150.8,258z"/>
	<path id="XMLID_730_" class="st0" d="M174.5,235.5h-8.4v-4.3h21.4v4.3h-8.4v22.1h-4.7V235.5z"/>
	<path id="XMLID_727_" class="st0" d="M204.5,258c-2,0-3.9-0.4-5.6-1.1c-1.7-0.7-3.1-1.7-4.3-2.9c-1.2-1.2-2.1-2.7-2.8-4.3
		c-0.7-1.6-1-3.4-1-5.3v-0.1c0-1.9,0.3-3.6,1-5.3c0.7-1.6,1.6-3.1,2.9-4.3c1.2-1.2,2.7-2.2,4.4-3c1.7-0.7,3.5-1.1,5.6-1.1
		s3.9,0.4,5.6,1.1c1.7,0.7,3.1,1.7,4.3,2.9c1.2,1.2,2.1,2.7,2.8,4.3s1,3.4,1,5.3v0.1c0,1.9-0.3,3.6-1,5.3s-1.6,3.1-2.9,4.3
		c-1.2,1.2-2.7,2.2-4.4,3C208.3,257.7,206.5,258,204.5,258z M204.5,253.8c1.3,0,2.5-0.2,3.6-0.7c1.1-0.5,2-1.2,2.8-2
		c0.8-0.8,1.4-1.8,1.8-3c0.4-1.1,0.7-2.3,0.7-3.6v-0.1c0-1.3-0.2-2.5-0.7-3.6c-0.4-1.1-1.1-2.1-1.8-3c-0.8-0.8-1.7-1.5-2.8-2
		s-2.3-0.8-3.6-0.8c-1.3,0-2.5,0.2-3.6,0.7c-1.1,0.5-2,1.2-2.8,2c-0.8,0.8-1.4,1.8-1.8,3c-0.4,1.1-0.7,2.3-0.7,3.6v0.1
		c0,1.3,0.2,2.5,0.7,3.6c0.4,1.1,1.1,2.1,1.8,3c0.8,0.8,1.7,1.5,2.8,2C202,253.5,203.2,253.8,204.5,253.8z"/>
	<path id="XMLID_725_" class="st0" d="M234.2,231.2h4.3l14.1,18.2v-18.2h4.6v26.4h-3.9l-14.5-18.8v18.8h-4.6V231.2z"/>
	<path id="XMLID_722_" class="st0" d="M272.8,231h4.3l11.6,26.6h-4.9l-2.7-6.4h-12.5l-2.7,6.4h-4.7L272.8,231z M279.4,247.1
		l-4.6-10.5l-4.5,10.5H279.4z"/>
	<path id="XMLID_720_" class="st0" d="M305,258c-1.9,0-3.7-0.4-5.3-1.1c-1.6-0.7-3-1.7-4.2-2.9c-1.2-1.2-2.1-2.7-2.8-4.3
		c-0.7-1.7-1-3.4-1-5.3v-0.1c0-1.9,0.3-3.6,1-5.3c0.7-1.6,1.6-3.1,2.8-4.3c1.2-1.2,2.6-2.2,4.3-2.9c1.7-0.7,3.5-1.1,5.5-1.1
		c1.2,0,2.3,0.1,3.3,0.3c1,0.2,1.9,0.5,2.7,0.8c0.8,0.4,1.6,0.8,2.3,1.3c0.7,0.5,1.4,1.1,2,1.7l-3,3.4c-1.1-1-2.2-1.8-3.4-2.4
		c-1.2-0.6-2.5-0.9-4-0.9c-1.3,0-2.4,0.2-3.5,0.7c-1.1,0.5-2,1.2-2.8,2c-0.8,0.8-1.4,1.8-1.8,3c-0.4,1.1-0.6,2.3-0.6,3.6v0.1
		c0,1.3,0.2,2.5,0.6,3.6c0.4,1.1,1,2.1,1.8,3c0.8,0.9,1.7,1.5,2.8,2c1.1,0.5,2.2,0.7,3.5,0.7c1.6,0,3-0.3,4.1-0.9
		c1.2-0.6,2.3-1.5,3.4-2.5l3,3c-0.7,0.7-1.4,1.4-2.1,1.9c-0.7,0.6-1.5,1.1-2.4,1.5c-0.9,0.4-1.8,0.7-2.8,0.9
		C307.3,257.9,306.2,258,305,258z"/>
	<path id="XMLID_718_" class="st0" d="M320.3,231.2h4.6v26.4h-4.6V231.2z"/>
	<path id="XMLID_715_" class="st0" d="M344,258c-2,0-3.9-0.4-5.6-1.1c-1.7-0.7-3.1-1.7-4.3-2.9c-1.2-1.2-2.1-2.7-2.8-4.3
		s-1-3.4-1-5.3v-0.1c0-1.9,0.3-3.6,1-5.3c0.7-1.6,1.6-3.1,2.9-4.3c1.2-1.2,2.7-2.2,4.4-3c1.7-0.7,3.5-1.1,5.6-1.1
		c2,0,3.9,0.4,5.6,1.1c1.7,0.7,3.1,1.7,4.3,2.9c1.2,1.2,2.1,2.7,2.8,4.3c0.7,1.6,1,3.4,1,5.3v0.1c0,1.9-0.3,3.6-1,5.3
		c-0.7,1.6-1.6,3.1-2.9,4.3c-1.2,1.2-2.7,2.2-4.4,3C347.9,257.7,346.1,258,344,258z M344.1,253.8c1.3,0,2.5-0.2,3.6-0.7
		c1.1-0.5,2-1.2,2.8-2c0.8-0.8,1.4-1.8,1.8-3c0.4-1.1,0.7-2.3,0.7-3.6v-0.1c0-1.3-0.2-2.5-0.7-3.6c-0.4-1.1-1.1-2.1-1.8-3
		c-0.8-0.8-1.7-1.5-2.8-2c-1.1-0.5-2.3-0.8-3.6-0.8c-1.3,0-2.5,0.2-3.6,0.7c-1.1,0.5-2,1.2-2.8,2c-0.8,0.8-1.4,1.8-1.8,3
		c-0.4,1.1-0.7,2.3-0.7,3.6v0.1c0,1.3,0.2,2.5,0.7,3.6c0.4,1.1,1.1,2.1,1.8,3c0.8,0.8,1.7,1.5,2.8,2
		C341.6,253.5,342.8,253.8,344.1,253.8z"/>
	<path id="XMLID_713_" class="st0" d="M363,231.2h4.3l14.1,18.2v-18.2h4.6v26.4h-3.9l-14.5-18.8v18.8H363V231.2z"/>
	<path id="XMLID_710_" class="st0" d="M401.6,231h4.3l11.6,26.6h-4.9l-2.7-6.4h-12.5l-2.7,6.4H390L401.6,231z M408.2,247.1
		l-4.6-10.5l-4.5,10.5H408.2z"/>
	<path id="XMLID_708_" class="st0" d="M421.5,231.2h4.6v22.2h13.9v4.2h-18.5V231.2z"/>
</g>
<g id="XMLID_633_">
	<path id="XMLID_790_" class="st0" d="M237.3,298.6l-10.4-15.9h5.4l7.3,11.6l7.4-11.6h5.3l-10.4,15.7v10.4h-4.6V298.6z"/>
	<path id="XMLID_788_" class="st0" d="M268.6,282.7H288v4.1h-14.8v6.7h13.1v4.1h-13.1v7h15v4.1h-19.6V282.7z"/>
	<path id="XMLID_786_" class="st0" d="M306.3,309.3c-1.9,0-3.7-0.3-5.3-1c-1.6-0.7-3-1.7-4.2-2.9c-1.2-1.2-2.1-2.6-2.8-4.3
		c-0.7-1.6-1-3.4-1-5.3v-0.1c0-1.9,0.3-3.6,1-5.3c0.7-1.6,1.6-3.1,2.8-4.3c1.2-1.2,2.6-2.2,4.3-2.9c1.6-0.7,3.5-1.1,5.5-1.1
		c1.2,0,2.3,0.1,3.3,0.3c1,0.2,1.9,0.5,2.7,0.8c0.8,0.4,1.6,0.8,2.3,1.3c0.7,0.5,1.4,1,2,1.6l-3,3.4c-1-1-2.2-1.8-3.3-2.4
		c-1.2-0.6-2.5-0.9-4-0.9c-1.2,0-2.4,0.2-3.5,0.7c-1.1,0.5-2,1.1-2.7,2c-0.8,0.8-1.4,1.8-1.8,2.9c-0.4,1.1-0.6,2.3-0.6,3.6v0.1
		c0,1.3,0.2,2.5,0.6,3.6c0.4,1.1,1,2.1,1.8,3s1.7,1.5,2.7,2c1.1,0.5,2.2,0.7,3.5,0.7c1.6,0,3-0.3,4.1-0.9c1.1-0.6,2.3-1.4,3.4-2.5
		l3,3c-0.7,0.7-1.4,1.4-2.1,1.9c-0.7,0.6-1.5,1-2.4,1.5c-0.8,0.4-1.8,0.7-2.8,0.9C308.7,309.2,307.6,309.3,306.3,309.3z"/>
	<path id="XMLID_783_" class="st0" d="M334.7,309.3c-2,0-3.9-0.4-5.5-1.1c-1.7-0.7-3.1-1.7-4.3-2.9c-1.2-1.2-2.1-2.6-2.8-4.3
		c-0.7-1.6-1-3.4-1-5.2v-0.1c0-1.8,0.3-3.6,1-5.2s1.6-3.1,2.8-4.3c1.2-1.2,2.7-2.2,4.3-2.9c1.7-0.7,3.5-1.1,5.5-1.1
		c2,0,3.9,0.4,5.5,1.1c1.7,0.7,3.1,1.7,4.3,2.9c1.2,1.2,2.1,2.6,2.8,4.3c0.7,1.6,1,3.4,1,5.2v0.1c0,1.8-0.3,3.6-1,5.2
		c-0.7,1.6-1.6,3.1-2.8,4.3c-1.2,1.2-2.7,2.2-4.3,2.9C338.6,309,336.8,309.3,334.7,309.3z M334.8,305.1c1.3,0,2.5-0.2,3.6-0.7
		c1.1-0.5,2-1.1,2.8-2c0.8-0.8,1.4-1.8,1.8-2.9c0.4-1.1,0.7-2.3,0.7-3.6v-0.1c0-1.3-0.2-2.5-0.7-3.6c-0.4-1.1-1-2.1-1.8-3
		c-0.8-0.8-1.7-1.5-2.8-2s-2.3-0.7-3.6-0.7s-2.5,0.2-3.6,0.7c-1.1,0.5-2,1.1-2.8,2c-0.8,0.8-1.4,1.8-1.8,2.9
		c-0.4,1.1-0.7,2.3-0.7,3.6v0.1c0,1.3,0.2,2.5,0.7,3.6c0.4,1.1,1,2.1,1.8,3c0.8,0.8,1.7,1.5,2.8,2
		C332.3,304.9,333.5,305.1,334.8,305.1z"/>
	<path id="XMLID_781_" class="st0" d="M354.6,282.7h4.3l14,18.1v-18.1h4.6v26.2h-3.8l-14.4-18.6v18.6h-4.6V282.7z"/>
	<path id="XMLID_778_" class="st0" d="M397.1,309.3c-2,0-3.9-0.4-5.5-1.1c-1.7-0.7-3.1-1.7-4.3-2.9c-1.2-1.2-2.1-2.6-2.8-4.3
		c-0.7-1.6-1-3.4-1-5.2v-0.1c0-1.8,0.3-3.6,1-5.2s1.6-3.1,2.8-4.3c1.2-1.2,2.7-2.2,4.3-2.9c1.7-0.7,3.5-1.1,5.5-1.1
		c2,0,3.9,0.4,5.5,1.1c1.7,0.7,3.1,1.7,4.3,2.9c1.2,1.2,2.1,2.6,2.8,4.3c0.7,1.6,1,3.4,1,5.2v0.1c0,1.8-0.3,3.6-1,5.2
		c-0.7,1.6-1.6,3.1-2.8,4.3c-1.2,1.2-2.7,2.2-4.3,2.9C401,309,399.1,309.3,397.1,309.3z M397.2,305.1c1.3,0,2.5-0.2,3.6-0.7
		c1.1-0.5,2-1.1,2.8-2c0.8-0.8,1.4-1.8,1.8-2.9c0.4-1.1,0.7-2.3,0.7-3.6v-0.1c0-1.3-0.2-2.5-0.7-3.6c-0.4-1.1-1-2.1-1.8-3
		c-0.8-0.8-1.7-1.5-2.8-2s-2.3-0.7-3.6-0.7c-1.3,0-2.5,0.2-3.6,0.7c-1.1,0.5-2,1.1-2.8,2c-0.8,0.8-1.4,1.8-1.8,2.9
		c-0.4,1.1-0.7,2.3-0.7,3.6v0.1c0,1.3,0.2,2.5,0.7,3.6c0.4,1.1,1,2.1,1.8,3c0.8,0.8,1.7,1.5,2.8,2
		C394.7,304.9,395.9,305.1,397.2,305.1z"/>
	<path id="XMLID_776_" class="st0" d="M416.9,282.7h4.9l8,12.4l8-12.4h4.9v26.2h-4.6v-18.8l-8.3,12.3h-0.1l-8.2-12.3v18.7h-4.6
		V282.7z"/>
	<path id="XMLID_773_" class="st0" d="M450.1,282.7h4.6v26.2h-4.6V282.7z M454.5,274.4l4.1,1.8l-4.6,4.3h-3.5L454.5,274.4z"/>
	<path id="XMLID_770_" class="st0" d="M471.5,282.5h4.3l11.5,26.4h-4.9l-2.7-6.3h-12.4l-2.7,6.3H460L471.5,282.5z M478.1,298.5
		l-4.5-10.5l-4.5,10.5H478.1z"/>
	<path id="XMLID_768_" class="st0" d="M513.2,309.3c-2,0-4-0.3-5.8-1c-1.8-0.7-3.6-1.7-5.1-3.2l2.8-3.3c1.3,1.1,2.6,1.9,3.8,2.5
		c1.3,0.6,2.8,0.9,4.4,0.9c1.4,0,2.5-0.3,3.4-0.9c0.8-0.6,1.3-1.4,1.3-2.4v-0.1c0-0.5-0.1-0.9-0.2-1.3c-0.2-0.4-0.5-0.7-0.9-1
		c-0.4-0.3-1-0.6-1.8-0.9c-0.8-0.3-1.8-0.5-3-0.8c-1.4-0.3-2.6-0.7-3.7-1.1c-1.1-0.4-2-0.9-2.7-1.5c-0.7-0.6-1.3-1.3-1.7-2.1
		s-0.6-1.9-0.6-3.1v-0.1c0-1.1,0.2-2.1,0.7-3.1c0.4-0.9,1.1-1.7,1.8-2.4c0.8-0.7,1.7-1.2,2.8-1.6c1.1-0.4,2.3-0.6,3.6-0.6
		c1.9,0,3.6,0.3,5.2,0.8c1.5,0.6,3,1.4,4.3,2.4l-2.5,3.5c-1.2-0.9-2.4-1.5-3.6-2c-1.2-0.5-2.4-0.7-3.6-0.7c-1.3,0-2.4,0.3-3.1,0.9
		c-0.7,0.6-1.1,1.3-1.1,2.2v0.1c0,0.5,0.1,0.9,0.3,1.3c0.2,0.4,0.5,0.7,1,1c0.5,0.3,1.1,0.6,1.9,0.9c0.8,0.3,1.8,0.6,3.1,0.9
		c1.4,0.3,2.6,0.7,3.7,1.2c1.1,0.4,1.9,0.9,2.6,1.6c0.7,0.6,1.2,1.3,1.6,2.1c0.4,0.8,0.5,1.8,0.5,2.8v0.1c0,1.2-0.2,2.3-0.7,3.3
		c-0.5,1-1.1,1.8-1.9,2.5c-0.8,0.7-1.8,1.2-2.9,1.5C515.8,309.1,514.6,309.3,513.2,309.3z"/>
	<path id="XMLID_765_" class="st0" d="M540.9,309.3c-2,0-3.9-0.4-5.5-1.1c-1.7-0.7-3.1-1.7-4.3-2.9c-1.2-1.2-2.1-2.6-2.8-4.3
		c-0.7-1.6-1-3.4-1-5.2v-0.1c0-1.8,0.3-3.6,1-5.2c0.7-1.6,1.6-3.1,2.8-4.3c1.2-1.2,2.7-2.2,4.3-2.9c1.7-0.7,3.5-1.1,5.5-1.1
		c2,0,3.9,0.4,5.5,1.1c1.7,0.7,3.1,1.7,4.3,2.9c1.2,1.2,2.1,2.6,2.8,4.3c0.7,1.6,1,3.4,1,5.2v0.1c0,1.8-0.3,3.6-1,5.2
		c-0.7,1.6-1.6,3.1-2.8,4.3c-1.2,1.2-2.7,2.2-4.3,2.9C544.8,309,542.9,309.3,540.9,309.3z M541,305.1c1.3,0,2.5-0.2,3.6-0.7
		c1.1-0.5,2-1.1,2.8-2c0.8-0.8,1.4-1.8,1.8-2.9c0.4-1.1,0.7-2.3,0.7-3.6v-0.1c0-1.3-0.2-2.5-0.7-3.6c-0.4-1.1-1-2.1-1.8-3
		c-0.8-0.8-1.7-1.5-2.8-2s-2.3-0.7-3.6-0.7s-2.5,0.2-3.6,0.7c-1.1,0.5-2,1.1-2.8,2c-0.8,0.8-1.4,1.8-1.8,2.9
		c-0.4,1.1-0.7,2.3-0.7,3.6v0.1c0,1.3,0.2,2.5,0.7,3.6c0.4,1.1,1,2.1,1.8,3c0.8,0.8,1.7,1.5,2.8,2
		C538.5,304.9,539.7,305.1,541,305.1z"/>
	<path id="XMLID_763_" class="st0" d="M572.9,309.3c-1.9,0-3.7-0.3-5.3-1s-3-1.7-4.2-2.9s-2.1-2.6-2.8-4.3c-0.7-1.6-1-3.4-1-5.3
		v-0.1c0-1.9,0.3-3.6,1-5.3c0.7-1.6,1.6-3.1,2.8-4.3c1.2-1.2,2.6-2.2,4.3-2.9c1.6-0.7,3.5-1.1,5.5-1.1c1.2,0,2.3,0.1,3.3,0.3
		c1,0.2,1.9,0.5,2.7,0.8c0.8,0.4,1.6,0.8,2.3,1.3s1.4,1,2,1.6l-3,3.4c-1-1-2.2-1.8-3.3-2.4c-1.2-0.6-2.5-0.9-4-0.9
		c-1.2,0-2.4,0.2-3.5,0.7c-1.1,0.5-2,1.1-2.7,2c-0.8,0.8-1.4,1.8-1.8,2.9s-0.6,2.3-0.6,3.6v0.1c0,1.3,0.2,2.5,0.6,3.6
		c0.4,1.1,1,2.1,1.8,3c0.8,0.8,1.7,1.5,2.7,2c1.1,0.5,2.2,0.7,3.5,0.7c1.6,0,3-0.3,4.1-0.9c1.1-0.6,2.3-1.4,3.4-2.5l3,3
		c-0.7,0.7-1.4,1.4-2.1,1.9c-0.7,0.6-1.5,1-2.4,1.5c-0.8,0.4-1.8,0.7-2.8,0.9C575.2,309.2,574.1,309.3,572.9,309.3z"/>
	<path id="XMLID_761_" class="st0" d="M589.1,282.7h4.6v26.2h-4.6V282.7z"/>
	<path id="XMLID_758_" class="st0" d="M610.5,282.5h4.3l11.5,26.4h-4.9l-2.7-6.3h-12.4l-2.7,6.3H599L610.5,282.5z M617.1,298.5
		l-4.5-10.5l-4.5,10.5H617.1z"/>
	<path id="XMLID_756_" class="st0" d="M631.2,282.7h4.6v22h13.8v4.1h-18.3V282.7z"/>
</g>
</svg>
